<svg width="428" height="926" viewBox="0 0 428 926" fill="none" xmlns="http://www.w3.org/2000/svg">
<rect width="428" height="926" rx="32" fill="white"/>
<path d="M359 30.55C360.977 28.9037 363.468 28.0021 366.04 28.0021C368.612 28.0021 371.103 28.9037 373.08 30.55" stroke="black" stroke-width="2" stroke-linecap="round" stroke-linejoin="round"/>
<path d="M355.42 27C358.342 24.4239 362.104 23.0026 366 23.0026C369.896 23.0026 373.658 24.4239 376.58 27" stroke="black" stroke-width="2" stroke-linecap="round" stroke-linejoin="round"/>
<path d="M362.53 34.11C363.545 33.3888 364.76 33.0013 366.005 33.0013C367.25 33.0013 368.465 33.3888 369.48 34.11" stroke="black" stroke-width="2" stroke-linecap="round" stroke-linejoin="round"/>
<path d="M366 38H366.01" stroke="black" stroke-width="2" stroke-linecap="round" stroke-linejoin="round"/>
<path d="M404 24H390C388.895 24 388 24.8954 388 26V34C388 35.1046 388.895 36 390 36H404C405.105 36 406 35.1046 406 34V26C406 24.8954 405.105 24 404 24Z" fill="black"/>
<path d="M407 31V29" stroke="black" stroke-width="2" stroke-linecap="round" stroke-linejoin="round"/>
<path d="M333 38V28" stroke="black" stroke-width="2" stroke-linecap="round" stroke-linejoin="round"/>
<path d="M339 38V22" stroke="black" stroke-width="2" stroke-linecap="round" stroke-linejoin="round"/>
<path d="M327 38V34" stroke="black" stroke-width="2" stroke-linecap="round" stroke-linejoin="round"/>
<path d="M26.9432 24.5455V42H24.8295V26.7614H24.7273L20.4659 29.5909V27.4432L24.8295 24.5455H26.9432ZM37.6562 42.2386C36.3722 42.2386 35.2784 41.8892 34.375 41.1903C33.4716 40.4858 32.7813 39.4659 32.304 38.1307C31.8267 36.7898 31.5881 35.1705 31.5881 33.2727C31.5881 31.3864 31.8267 29.7756 32.304 28.4403C32.7869 27.0994 33.4801 26.0767 34.3835 25.3722C35.2926 24.6619 36.3835 24.3068 37.6562 24.3068C38.929 24.3068 40.017 24.6619 40.9205 25.3722C41.8295 26.0767 42.5227 27.0994 43 28.4403C43.483 29.7756 43.7244 31.3864 43.7244 33.2727C43.7244 35.1705 43.4858 36.7898 43.0085 38.1307C42.5312 39.4659 41.8409 40.4858 40.9375 41.1903C40.0341 41.8892 38.9403 42.2386 37.6562 42.2386ZM37.6562 40.3636C38.929 40.3636 39.9176 39.75 40.6222 38.5227C41.3267 37.2955 41.679 35.5455 41.679 33.2727C41.679 31.7614 41.517 30.4744 41.1932 29.4119C40.875 28.3494 40.4148 27.5398 39.8125 26.983C39.2159 26.4261 38.4972 26.1477 37.6562 26.1477C36.3949 26.1477 35.4091 26.7699 34.6989 28.0142C33.9886 29.2528 33.6335 31.0057 33.6335 33.2727C33.6335 34.7841 33.7926 36.0682 34.1108 37.125C34.429 38.1818 34.8864 38.9858 35.483 39.5369C36.0852 40.0881 36.8097 40.3636 37.6562 40.3636ZM48.4631 39.767C48.0426 39.767 47.6818 39.6165 47.3807 39.3153C47.0795 39.0142 46.929 38.6534 46.929 38.233C46.929 37.8125 47.0795 37.4517 47.3807 37.1506C47.6818 36.8494 48.0426 36.6989 48.4631 36.6989C48.8835 36.6989 49.2443 36.8494 49.5455 37.1506C49.8466 37.4517 49.9972 37.8125 49.9972 38.233C49.9972 38.5114 49.9261 38.767 49.7841 39C49.6477 39.233 49.4631 39.4205 49.2301 39.5625C49.0028 39.6989 48.7472 39.767 48.4631 39.767ZM48.4631 30.9375C48.0426 30.9375 47.6818 30.7869 47.3807 30.4858C47.0795 30.1847 46.929 29.8239 46.929 29.4034C46.929 28.983 47.0795 28.6222 47.3807 28.321C47.6818 28.0199 48.0426 27.8693 48.4631 27.8693C48.8835 27.8693 49.2443 28.0199 49.5455 28.321C49.8466 28.6222 49.9972 28.983 49.9972 29.4034C49.9972 29.6818 49.9261 29.9375 49.7841 30.1705C49.6477 30.4034 49.4631 30.5909 49.2301 30.733C49.0028 30.8693 48.7472 30.9375 48.4631 30.9375ZM59.2656 42.2386C57.9815 42.2386 56.8878 41.8892 55.9844 41.1903C55.081 40.4858 54.3906 39.4659 53.9134 38.1307C53.4361 36.7898 53.1974 35.1705 53.1974 33.2727C53.1974 31.3864 53.4361 29.7756 53.9134 28.4403C54.3963 27.0994 55.0895 26.0767 55.9929 25.3722C56.902 24.6619 57.9929 24.3068 59.2656 24.3068C60.5384 24.3068 61.6264 24.6619 62.5298 25.3722C63.4389 26.0767 64.1321 27.0994 64.6094 28.4403C65.0923 29.7756 65.3338 31.3864 65.3338 33.2727C65.3338 35.1705 65.0952 36.7898 64.6179 38.1307C64.1406 39.4659 63.4503 40.4858 62.5469 41.1903C61.6435 41.8892 60.5497 42.2386 59.2656 42.2386ZM59.2656 40.3636C60.5384 40.3636 61.527 39.75 62.2315 38.5227C62.9361 37.2955 63.2884 35.5455 63.2884 33.2727C63.2884 31.7614 63.1264 30.4744 62.8026 29.4119C62.4844 28.3494 62.0241 27.5398 61.4219 26.983C60.8253 26.4261 60.1065 26.1477 59.2656 26.1477C58.0043 26.1477 57.0185 26.7699 56.3082 28.0142C55.598 29.2528 55.2429 31.0057 55.2429 33.2727C55.2429 34.7841 55.402 36.0682 55.7202 37.125C56.0384 38.1818 56.4957 38.9858 57.0923 39.5369C57.6946 40.0881 58.419 40.3636 59.2656 40.3636ZM74.2656 42.2386C72.9815 42.2386 71.8878 41.8892 70.9844 41.1903C70.081 40.4858 69.3906 39.4659 68.9134 38.1307C68.4361 36.7898 68.1974 35.1705 68.1974 33.2727C68.1974 31.3864 68.4361 29.7756 68.9134 28.4403C69.3963 27.0994 70.0895 26.0767 70.9929 25.3722C71.902 24.6619 72.9929 24.3068 74.2656 24.3068C75.5384 24.3068 76.6264 24.6619 77.5298 25.3722C78.4389 26.0767 79.1321 27.0994 79.6094 28.4403C80.0923 29.7756 80.3338 31.3864 80.3338 33.2727C80.3338 35.1705 80.0952 36.7898 79.6179 38.1307C79.1406 39.4659 78.4503 40.4858 77.5469 41.1903C76.6435 41.8892 75.5497 42.2386 74.2656 42.2386ZM74.2656 40.3636C75.5384 40.3636 76.527 39.75 77.2315 38.5227C77.9361 37.2955 78.2884 35.5455 78.2884 33.2727C78.2884 31.7614 78.1264 30.4744 77.8026 29.4119C77.4844 28.3494 77.0241 27.5398 76.4219 26.983C75.8253 26.4261 75.1065 26.1477 74.2656 26.1477C73.0043 26.1477 72.0185 26.7699 71.3082 28.0142C70.598 29.2528 70.2429 31.0057 70.2429 33.2727C70.2429 34.7841 70.402 36.0682 70.7202 37.125C71.0384 38.1818 71.4957 38.9858 72.0923 39.5369C72.6946 40.0881 73.419 40.3636 74.2656 40.3636Z" fill="black"/>
<path d="M195.67 814.909V816.614H188.614V814.909H195.67ZM190.727 828V813.102C190.727 812.352 190.903 811.727 191.256 811.227C191.608 810.727 192.065 810.352 192.628 810.102C193.19 809.852 193.784 809.727 194.409 809.727C194.903 809.727 195.307 809.767 195.619 809.847C195.932 809.926 196.165 810 196.318 810.068L195.739 811.807C195.636 811.773 195.494 811.73 195.312 811.679C195.136 811.628 194.903 811.602 194.614 811.602C193.949 811.602 193.469 811.77 193.173 812.105C192.884 812.44 192.739 812.932 192.739 813.58V828H190.727ZM198.489 828V814.909H200.433V816.886H200.569C200.808 816.239 201.239 815.713 201.864 815.31C202.489 814.906 203.194 814.705 203.978 814.705C204.126 814.705 204.31 814.707 204.532 814.713C204.754 814.719 204.921 814.727 205.035 814.739V816.784C204.967 816.767 204.81 816.741 204.566 816.707C204.327 816.668 204.075 816.648 203.808 816.648C203.171 816.648 202.603 816.781 202.103 817.048C201.609 817.31 201.217 817.673 200.927 818.139C200.643 818.599 200.501 819.125 200.501 819.716V828H198.489ZM212.339 828.273C211.157 828.273 210.12 827.991 209.228 827.429C208.342 826.866 207.648 826.08 207.148 825.068C206.654 824.057 206.407 822.875 206.407 821.523C206.407 820.159 206.654 818.969 207.148 817.952C207.648 816.935 208.342 816.145 209.228 815.582C210.12 815.02 211.157 814.739 212.339 814.739C213.521 814.739 214.555 815.02 215.441 815.582C216.333 816.145 217.026 816.935 217.521 817.952C218.021 818.969 218.271 820.159 218.271 821.523C218.271 822.875 218.021 824.057 217.521 825.068C217.026 826.08 216.333 826.866 215.441 827.429C214.555 827.991 213.521 828.273 212.339 828.273ZM212.339 826.466C213.237 826.466 213.975 826.236 214.555 825.776C215.134 825.315 215.563 824.71 215.842 823.96C216.12 823.21 216.259 822.398 216.259 821.523C216.259 820.648 216.12 819.832 215.842 819.077C215.563 818.321 215.134 817.71 214.555 817.244C213.975 816.778 213.237 816.545 212.339 816.545C211.441 816.545 210.702 816.778 210.123 817.244C209.543 817.71 209.114 818.321 208.836 819.077C208.558 819.832 208.418 820.648 208.418 821.523C208.418 822.398 208.558 823.21 208.836 823.96C209.114 824.71 209.543 825.315 210.123 825.776C210.702 826.236 211.441 826.466 212.339 826.466ZM221.341 828V814.909H223.284V816.955H223.455C223.727 816.256 224.168 815.713 224.776 815.327C225.384 814.935 226.114 814.739 226.966 814.739C227.83 814.739 228.548 814.935 229.122 815.327C229.702 815.713 230.153 816.256 230.477 816.955H230.614C230.949 816.278 231.452 815.741 232.122 815.344C232.793 814.94 233.597 814.739 234.534 814.739C235.705 814.739 236.662 815.105 237.406 815.838C238.151 816.565 238.523 817.699 238.523 819.239V828H236.511V819.239C236.511 818.273 236.247 817.582 235.719 817.168C235.19 816.753 234.568 816.545 233.852 816.545C232.932 816.545 232.219 816.824 231.713 817.381C231.207 817.932 230.955 818.631 230.955 819.477V828H228.909V819.034C228.909 818.29 228.668 817.69 228.185 817.236C227.702 816.776 227.08 816.545 226.318 816.545C225.795 816.545 225.307 816.685 224.852 816.963C224.403 817.241 224.04 817.628 223.761 818.122C223.489 818.611 223.352 819.176 223.352 819.818V828H221.341Z" fill="black"/>
<path d="M176.023 853.727H182.091L188.5 869.364H188.773L195.182 853.727H201.25V877H196.477V861.852H196.284L190.261 876.886H187.011L180.989 861.795H180.795V877H176.023V853.727ZM213.168 877.341C211.372 877.341 209.827 876.977 208.531 876.25C207.243 875.515 206.251 874.477 205.554 873.136C204.857 871.788 204.509 870.193 204.509 868.352C204.509 866.557 204.857 864.981 205.554 863.625C206.251 862.269 207.232 861.212 208.497 860.455C209.77 859.697 211.262 859.318 212.974 859.318C214.126 859.318 215.198 859.504 216.19 859.875C217.19 860.239 218.062 860.788 218.804 861.523C219.554 862.258 220.137 863.182 220.554 864.295C220.971 865.402 221.179 866.697 221.179 868.182V869.511H206.44V866.511H216.622C216.622 865.814 216.471 865.197 216.168 864.659C215.865 864.121 215.444 863.701 214.906 863.398C214.376 863.087 213.759 862.932 213.054 862.932C212.319 862.932 211.668 863.102 211.099 863.443C210.539 863.777 210.099 864.227 209.781 864.795C209.463 865.356 209.3 865.981 209.293 866.67V869.523C209.293 870.386 209.452 871.133 209.77 871.761C210.096 872.39 210.554 872.875 211.145 873.216C211.736 873.557 212.437 873.727 213.247 873.727C213.785 873.727 214.277 873.652 214.724 873.5C215.171 873.348 215.554 873.121 215.872 872.818C216.19 872.515 216.433 872.144 216.599 871.705L221.077 872C220.849 873.076 220.384 874.015 219.679 874.818C218.982 875.614 218.08 876.235 216.974 876.682C215.876 877.121 214.607 877.341 213.168 877.341ZM233.622 859.545V863.182H223.111V859.545H233.622ZM225.497 855.364H230.338V871.636C230.338 872.083 230.406 872.432 230.543 872.682C230.679 872.924 230.868 873.095 231.111 873.193C231.361 873.292 231.649 873.341 231.974 873.341C232.202 873.341 232.429 873.322 232.656 873.284C232.884 873.239 233.058 873.205 233.179 873.182L233.94 876.784C233.698 876.86 233.357 876.947 232.918 877.045C232.478 877.152 231.944 877.216 231.315 877.239C230.149 877.284 229.126 877.129 228.247 876.773C227.376 876.417 226.698 875.864 226.213 875.114C225.728 874.364 225.49 873.417 225.497 872.273V855.364ZM241.753 877.33C240.639 877.33 239.647 877.136 238.776 876.75C237.904 876.356 237.215 875.777 236.707 875.011C236.207 874.239 235.957 873.277 235.957 872.125C235.957 871.155 236.135 870.341 236.491 869.682C236.848 869.023 237.332 868.492 237.946 868.091C238.56 867.689 239.257 867.386 240.037 867.182C240.825 866.977 241.651 866.833 242.514 866.75C243.529 866.644 244.348 866.545 244.969 866.455C245.59 866.356 246.041 866.212 246.321 866.023C246.601 865.833 246.741 865.553 246.741 865.182V865.114C246.741 864.394 246.514 863.837 246.06 863.443C245.613 863.049 244.976 862.852 244.151 862.852C243.279 862.852 242.586 863.045 242.071 863.432C241.556 863.811 241.215 864.288 241.048 864.864L236.571 864.5C236.798 863.439 237.245 862.523 237.912 861.75C238.579 860.97 239.438 860.371 240.491 859.955C241.552 859.53 242.779 859.318 244.173 859.318C245.143 859.318 246.071 859.432 246.957 859.659C247.851 859.886 248.643 860.239 249.332 860.716C250.029 861.193 250.579 861.807 250.98 862.557C251.382 863.299 251.582 864.189 251.582 865.227V877H246.991V874.58H246.855C246.575 875.125 246.2 875.606 245.73 876.023C245.26 876.432 244.696 876.754 244.037 876.989C243.378 877.216 242.616 877.33 241.753 877.33ZM243.139 873.989C243.851 873.989 244.48 873.848 245.026 873.568C245.571 873.28 245.999 872.894 246.31 872.409C246.62 871.924 246.776 871.375 246.776 870.761V868.909C246.624 869.008 246.416 869.098 246.151 869.182C245.893 869.258 245.601 869.33 245.276 869.398C244.95 869.458 244.624 869.515 244.298 869.568C243.973 869.614 243.677 869.655 243.412 869.693C242.844 869.777 242.348 869.909 241.923 870.091C241.499 870.273 241.17 870.519 240.935 870.83C240.7 871.133 240.582 871.511 240.582 871.966C240.582 872.625 240.821 873.129 241.298 873.477C241.783 873.818 242.397 873.989 243.139 873.989Z" fill="url(#paint0_linear_66_2)"/>
<g clip-path="url(#clip0_66_2)">
<path d="M338.248 411.463C337.64 398.158 335.527 389.071 332.437 381.122C329.299 372.781 324.378 365.225 318.019 358.981C311.775 352.621 304.22 347.699 295.878 344.56C287.927 341.471 278.842 339.36 265.537 338.755C252.207 338.145 247.947 338 214 338C180.053 338 175.794 338.145 162.463 338.752C149.158 339.36 140.073 341.473 132.122 344.563C123.78 347.701 116.224 352.622 109.98 358.981C103.621 365.224 98.699 372.78 95.5591 381.12C92.4707 389.072 90.3594 398.158 89.7549 411.462C89.145 424.794 89 429.051 89 462.998C89 496.947 89.145 501.206 89.7554 514.536C90.3618 527.84 92.4751 536.927 95.5649 544.879C98.7034 553.219 103.624 560.775 109.983 567.018C116.226 573.377 123.782 578.297 132.123 581.435C140.073 584.527 149.16 586.638 162.465 587.247C175.798 587.855 180.055 587.999 214.002 587.999C247.949 587.999 252.208 587.855 265.539 587.247C278.844 586.638 287.929 584.527 295.88 581.435C304.184 578.224 311.725 573.314 318.02 567.018C324.316 560.723 329.226 553.182 332.437 544.878C335.529 536.927 337.64 527.84 338.249 514.537C338.855 501.204 339 496.947 339 463C339 429.051 338.855 424.794 338.248 411.463ZM315.748 513.513C315.193 525.701 313.156 532.319 311.445 536.723C309.365 542.114 306.18 547.01 302.094 551.096C298.008 555.182 293.112 558.367 287.721 560.447C283.317 562.158 276.699 564.195 264.511 564.75C251.333 565.353 247.379 565.479 214 565.479C180.62 565.479 176.668 565.353 163.488 564.75C151.302 564.195 144.684 562.158 140.278 560.447C134.849 558.442 129.938 555.247 125.906 551.095C121.754 547.064 118.558 542.152 116.554 536.723C114.843 532.319 112.806 525.701 112.251 513.513C111.65 500.333 111.522 496.379 111.522 463.002C111.522 429.624 111.65 425.672 112.251 412.49C112.808 400.302 114.843 393.684 116.554 389.28C118.559 383.85 121.754 378.939 125.906 374.906C129.938 370.754 134.85 367.559 140.28 365.556C144.684 363.843 151.302 361.808 163.49 361.251C176.67 360.65 180.624 360.522 214 360.522H213.999C247.375 360.522 251.329 360.65 264.511 361.253C276.699 361.808 283.315 363.845 287.721 365.556C293.15 367.561 298.061 370.755 302.093 374.906C306.246 378.938 309.441 383.85 311.443 389.28C313.156 393.684 315.193 400.302 315.748 412.49C316.349 425.67 316.477 429.624 316.477 463C316.477 496.379 316.351 500.331 315.748 513.513Z" fill="url(#paint1_linear_66_2)"/>
<path d="M213.998 398.811C178.548 398.811 149.81 427.55 149.81 463C149.81 498.45 178.548 527.188 213.998 527.188C249.45 527.188 278.188 498.45 278.188 463C278.188 427.55 249.45 398.811 213.998 398.811ZM213.998 504.666C190.988 504.664 172.332 486.01 172.334 462.998C172.334 439.988 190.988 421.332 214 421.332C237.012 421.334 255.666 439.988 255.666 462.998C255.666 486.01 237.01 504.666 213.998 504.666Z" fill="url(#paint2_linear_66_2)"/>
<path d="M295.724 396.275C295.724 404.559 289.008 411.274 280.725 411.274C272.439 411.274 265.724 404.559 265.724 396.275C265.724 387.989 272.439 381.274 280.725 381.274C289.008 381.274 295.725 387.99 295.725 396.275H295.724Z" fill="url(#paint3_linear_66_2)"/>
</g>
<defs>
<linearGradient id="paint0_linear_66_2" x1="166.5" y1="839" x2="267" y2="877" gradientUnits="userSpaceOnUse">
<stop stop-color="#8609F4"/>
<stop offset="0.578125" stop-color="#FFC410"/>
<stop offset="1" stop-color="#FF0053"/>
</linearGradient>
<linearGradient id="paint1_linear_66_2" x1="109.979" y1="567.019" x2="318.021" y2="358.978" gradientUnits="userSpaceOnUse">
<stop stop-color="#FFD600"/>
<stop offset="0.5" stop-color="#FF0100"/>
<stop offset="1" stop-color="#D800B9"/>
</linearGradient>
<linearGradient id="paint2_linear_66_2" x1="168.611" y1="508.388" x2="259.388" y2="417.611" gradientUnits="userSpaceOnUse">
<stop stop-color="#FF6400"/>
<stop offset="0.5" stop-color="#FF0100"/>
<stop offset="1" stop-color="#FD0056"/>
</linearGradient>
<linearGradient id="paint3_linear_66_2" x1="270.118" y1="406.881" x2="291.331" y2="385.668" gradientUnits="userSpaceOnUse">
<stop stop-color="#F30072"/>
<stop offset="1" stop-color="#E50097"/>
</linearGradient>
<clipPath id="clip0_66_2">
<rect width="250" height="250" fill="white" transform="translate(89 338)"/>
</clipPath>
</defs>
</svg>
