<svg width="428" height="926" viewBox="0 0 428 926" fill="none" xmlns="http://www.w3.org/2000/svg">
<rect width="428" height="926" rx="32" fill="white"/>
<path d="M347 30.55C348.977 28.9036 351.468 28.0021 354.04 28.0021C356.612 28.0021 359.103 28.9036 361.08 30.55" stroke="black" stroke-width="2" stroke-linecap="round" stroke-linejoin="round"/>
<path d="M343.42 27C346.342 24.424 350.104 23.0027 354 23.0027C357.896 23.0027 361.658 24.424 364.58 27" stroke="black" stroke-width="2" stroke-linecap="round" stroke-linejoin="round"/>
<path d="M350.53 34.11C351.545 33.3887 352.76 33.0012 354.005 33.0012C355.25 33.0012 356.465 33.3887 357.48 34.11" stroke="black" stroke-width="2" stroke-linecap="round" stroke-linejoin="round"/>
<path d="M354 38H354.01" stroke="black" stroke-width="2" stroke-linecap="round" stroke-linejoin="round"/>
<path d="M392 24H378C376.895 24 376 24.8954 376 26V34C376 35.1046 376.895 36 378 36H392C393.105 36 394 35.1046 394 34V26C394 24.8954 393.105 24 392 24Z" fill="black"/>
<path d="M395 31V29" stroke="black" stroke-width="2" stroke-linecap="round" stroke-linejoin="round"/>
<path d="M321 38V28" stroke="black" stroke-width="2" stroke-linecap="round" stroke-linejoin="round"/>
<path d="M327 38V22" stroke="black" stroke-width="2" stroke-linecap="round" stroke-linejoin="round"/>
<path d="M315 38V34" stroke="black" stroke-width="2" stroke-linecap="round" stroke-linejoin="round"/>
<path d="M27.9432 24.5455V42H25.8295V26.7614H25.7273L21.4659 29.5909V27.4432L25.8295 24.5455H27.9432ZM38.6562 42.2386C37.3722 42.2386 36.2784 41.8892 35.375 41.1903C34.4716 40.4858 33.7813 39.4659 33.304 38.1307C32.8267 36.7898 32.5881 35.1705 32.5881 33.2727C32.5881 31.3864 32.8267 29.7756 33.304 28.4403C33.7869 27.0994 34.4801 26.0767 35.3835 25.3722C36.2926 24.6619 37.3835 24.3068 38.6562 24.3068C39.929 24.3068 41.017 24.6619 41.9205 25.3722C42.8295 26.0767 43.5227 27.0994 44 28.4403C44.483 29.7756 44.7244 31.3864 44.7244 33.2727C44.7244 35.1705 44.4858 36.7898 44.0085 38.1307C43.5312 39.4659 42.8409 40.4858 41.9375 41.1903C41.0341 41.8892 39.9403 42.2386 38.6562 42.2386ZM38.6562 40.3636C39.929 40.3636 40.9176 39.75 41.6222 38.5227C42.3267 37.2955 42.679 35.5455 42.679 33.2727C42.679 31.7614 42.517 30.4744 42.1932 29.4119C41.875 28.3494 41.4148 27.5398 40.8125 26.983C40.2159 26.4261 39.4972 26.1477 38.6562 26.1477C37.3949 26.1477 36.4091 26.7699 35.6989 28.0142C34.9886 29.2528 34.6335 31.0057 34.6335 33.2727C34.6335 34.7841 34.7926 36.0682 35.1108 37.125C35.429 38.1818 35.8864 38.9858 36.483 39.5369C37.0852 40.0881 37.8097 40.3636 38.6562 40.3636ZM49.4631 39.767C49.0426 39.767 48.6818 39.6165 48.3807 39.3153C48.0795 39.0142 47.929 38.6534 47.929 38.233C47.929 37.8125 48.0795 37.4517 48.3807 37.1506C48.6818 36.8494 49.0426 36.6989 49.4631 36.6989C49.8835 36.6989 50.2443 36.8494 50.5455 37.1506C50.8466 37.4517 50.9972 37.8125 50.9972 38.233C50.9972 38.5114 50.9261 38.767 50.7841 39C50.6477 39.233 50.4631 39.4205 50.2301 39.5625C50.0028 39.6989 49.7472 39.767 49.4631 39.767ZM49.4631 30.9375C49.0426 30.9375 48.6818 30.7869 48.3807 30.4858C48.0795 30.1847 47.929 29.8239 47.929 29.4034C47.929 28.983 48.0795 28.6222 48.3807 28.321C48.6818 28.0199 49.0426 27.8693 49.4631 27.8693C49.8835 27.8693 50.2443 28.0199 50.5455 28.321C50.8466 28.6222 50.9972 28.983 50.9972 29.4034C50.9972 29.6818 50.9261 29.9375 50.7841 30.1705C50.6477 30.4034 50.4631 30.5909 50.2301 30.733C50.0028 30.8693 49.7472 30.9375 49.4631 30.9375ZM60.2656 42.2386C58.9815 42.2386 57.8878 41.8892 56.9844 41.1903C56.081 40.4858 55.3906 39.4659 54.9134 38.1307C54.4361 36.7898 54.1974 35.1705 54.1974 33.2727C54.1974 31.3864 54.4361 29.7756 54.9134 28.4403C55.3963 27.0994 56.0895 26.0767 56.9929 25.3722C57.902 24.6619 58.9929 24.3068 60.2656 24.3068C61.5384 24.3068 62.6264 24.6619 63.5298 25.3722C64.4389 26.0767 65.1321 27.0994 65.6094 28.4403C66.0923 29.7756 66.3338 31.3864 66.3338 33.2727C66.3338 35.1705 66.0952 36.7898 65.6179 38.1307C65.1406 39.4659 64.4503 40.4858 63.5469 41.1903C62.6435 41.8892 61.5497 42.2386 60.2656 42.2386ZM60.2656 40.3636C61.5384 40.3636 62.527 39.75 63.2315 38.5227C63.9361 37.2955 64.2884 35.5455 64.2884 33.2727C64.2884 31.7614 64.1264 30.4744 63.8026 29.4119C63.4844 28.3494 63.0241 27.5398 62.4219 26.983C61.8253 26.4261 61.1065 26.1477 60.2656 26.1477C59.0043 26.1477 58.0185 26.7699 57.3082 28.0142C56.598 29.2528 56.2429 31.0057 56.2429 33.2727C56.2429 34.7841 56.402 36.0682 56.7202 37.125C57.0384 38.1818 57.4957 38.9858 58.0923 39.5369C58.6946 40.0881 59.419 40.3636 60.2656 40.3636ZM75.2656 42.2386C73.9815 42.2386 72.8878 41.8892 71.9844 41.1903C71.081 40.4858 70.3906 39.4659 69.9134 38.1307C69.4361 36.7898 69.1974 35.1705 69.1974 33.2727C69.1974 31.3864 69.4361 29.7756 69.9134 28.4403C70.3963 27.0994 71.0895 26.0767 71.9929 25.3722C72.902 24.6619 73.9929 24.3068 75.2656 24.3068C76.5384 24.3068 77.6264 24.6619 78.5298 25.3722C79.4389 26.0767 80.1321 27.0994 80.6094 28.4403C81.0923 29.7756 81.3338 31.3864 81.3338 33.2727C81.3338 35.1705 81.0952 36.7898 80.6179 38.1307C80.1406 39.4659 79.4503 40.4858 78.5469 41.1903C77.6435 41.8892 76.5497 42.2386 75.2656 42.2386ZM75.2656 40.3636C76.5384 40.3636 77.527 39.75 78.2315 38.5227C78.9361 37.2955 79.2884 35.5455 79.2884 33.2727C79.2884 31.7614 79.1264 30.4744 78.8026 29.4119C78.4844 28.3494 78.0241 27.5398 77.4219 26.983C76.8253 26.4261 76.1065 26.1477 75.2656 26.1477C74.0043 26.1477 73.0185 26.7699 72.3082 28.0142C71.598 29.2528 71.2429 31.0057 71.2429 33.2727C71.2429 34.7841 71.402 36.0682 71.7202 37.125C72.0384 38.1818 72.4957 38.9858 73.0923 39.5369C73.6946 40.0881 74.419 40.3636 75.2656 40.3636Z" fill="black"/>
<path d="M428 892.053V111C423.172 168.76 367.446 197 308.992 200.25L82.9848 202.378C24.6441 208.696 3.35296 261.793 0 287.552V900.944C0 914.782 11.2178 926 25.0557 926H396C413.673 926 428 911.672 428 893.999V892.053Z" fill="url(#paint0_linear_233_176)"/>
<path d="M83.6999 250L78.7056 232.545H82.7369L85.6261 244.673H85.771L88.9585 232.545H92.4102L95.5891 244.699H95.7425L98.6317 232.545H102.663L97.6687 250H94.0721L90.7482 238.588H90.6119L87.2965 250H83.6999ZM109.13 250.256C107.783 250.256 106.624 249.983 105.652 249.438C104.686 248.886 103.942 248.108 103.419 247.102C102.897 246.091 102.635 244.895 102.635 243.514C102.635 242.168 102.897 240.986 103.419 239.969C103.942 238.952 104.678 238.159 105.627 237.591C106.581 237.023 107.701 236.739 108.985 236.739C109.848 236.739 110.652 236.878 111.397 237.156C112.147 237.429 112.8 237.841 113.357 238.392C113.919 238.943 114.357 239.636 114.669 240.472C114.982 241.301 115.138 242.273 115.138 243.386V244.384H104.084V242.134H111.721C111.721 241.611 111.607 241.148 111.38 240.744C111.152 240.341 110.837 240.026 110.434 239.798C110.036 239.565 109.573 239.449 109.044 239.449C108.493 239.449 108.005 239.577 107.578 239.832C107.158 240.082 106.828 240.42 106.59 240.847C106.351 241.267 106.229 241.736 106.223 242.253V244.392C106.223 245.04 106.343 245.599 106.581 246.071C106.826 246.543 107.169 246.906 107.613 247.162C108.056 247.418 108.581 247.545 109.189 247.545C109.593 247.545 109.962 247.489 110.297 247.375C110.632 247.261 110.919 247.091 111.158 246.864C111.397 246.636 111.578 246.358 111.703 246.028L115.061 246.25C114.891 247.057 114.542 247.761 114.013 248.364C113.49 248.96 112.814 249.426 111.985 249.761C111.161 250.091 110.209 250.256 109.13 250.256ZM121.138 232.545V250H117.507V232.545H121.138ZM129.961 250.256C128.62 250.256 127.467 249.972 126.501 249.403C125.541 248.83 124.802 248.034 124.285 247.017C123.774 246 123.518 244.83 123.518 243.506C123.518 242.165 123.777 240.989 124.294 239.977C124.816 238.96 125.558 238.168 126.518 237.599C127.478 237.026 128.62 236.739 129.944 236.739C131.086 236.739 132.086 236.946 132.944 237.361C133.802 237.776 134.481 238.358 134.981 239.108C135.481 239.858 135.757 240.739 135.808 241.75H132.382C132.285 241.097 132.029 240.571 131.615 240.173C131.206 239.77 130.669 239.568 130.004 239.568C129.441 239.568 128.95 239.722 128.529 240.028C128.115 240.33 127.791 240.77 127.558 241.349C127.325 241.929 127.208 242.631 127.208 243.455C127.208 244.29 127.322 245 127.549 245.585C127.782 246.17 128.109 246.616 128.529 246.923C128.95 247.23 129.441 247.384 130.004 247.384C130.419 247.384 130.791 247.298 131.12 247.128C131.456 246.957 131.731 246.71 131.947 246.386C132.169 246.057 132.314 245.662 132.382 245.202H135.808C135.751 246.202 135.478 247.082 134.99 247.844C134.507 248.599 133.839 249.19 132.987 249.616C132.135 250.043 131.126 250.256 129.961 250.256ZM144.047 250.256C142.723 250.256 141.578 249.974 140.613 249.412C139.652 248.844 138.911 248.054 138.388 247.043C137.865 246.026 137.604 244.847 137.604 243.506C137.604 242.153 137.865 240.972 138.388 239.96C138.911 238.943 139.652 238.153 140.613 237.591C141.578 237.023 142.723 236.739 144.047 236.739C145.371 236.739 146.513 237.023 147.473 237.591C148.439 238.153 149.184 238.943 149.706 239.96C150.229 240.972 150.49 242.153 150.49 243.506C150.49 244.847 150.229 246.026 149.706 247.043C149.184 248.054 148.439 248.844 147.473 249.412C146.513 249.974 145.371 250.256 144.047 250.256ZM144.064 247.443C144.667 247.443 145.169 247.273 145.573 246.932C145.976 246.585 146.28 246.114 146.485 245.517C146.695 244.92 146.8 244.241 146.8 243.48C146.8 242.719 146.695 242.04 146.485 241.443C146.28 240.847 145.976 240.375 145.573 240.028C145.169 239.682 144.667 239.509 144.064 239.509C143.456 239.509 142.945 239.682 142.53 240.028C142.121 240.375 141.811 240.847 141.601 241.443C141.397 242.04 141.294 242.719 141.294 243.48C141.294 244.241 141.397 244.92 141.601 245.517C141.811 246.114 142.121 246.585 142.53 246.932C142.945 247.273 143.456 247.443 144.064 247.443ZM152.851 250V236.909H156.311V239.219H156.465C156.738 238.452 157.192 237.847 157.828 237.403C158.465 236.96 159.226 236.739 160.113 236.739C161.01 236.739 161.775 236.963 162.405 237.412C163.036 237.855 163.456 238.457 163.667 239.219H163.803C164.07 238.469 164.553 237.869 165.252 237.42C165.956 236.966 166.789 236.739 167.749 236.739C168.971 236.739 169.962 237.128 170.723 237.906C171.49 238.679 171.874 239.776 171.874 241.196V250H168.252V241.912C168.252 241.185 168.059 240.639 167.672 240.276C167.286 239.912 166.803 239.73 166.223 239.73C165.564 239.73 165.05 239.94 164.681 240.361C164.311 240.776 164.127 241.324 164.127 242.006V250H160.607V241.835C160.607 241.193 160.422 240.682 160.053 240.301C159.689 239.92 159.209 239.73 158.613 239.73C158.209 239.73 157.846 239.832 157.522 240.037C157.203 240.236 156.951 240.517 156.763 240.881C156.576 241.239 156.482 241.659 156.482 242.142V250H152.851ZM180.708 250.256C179.361 250.256 178.202 249.983 177.23 249.438C176.265 248.886 175.52 248.108 174.998 247.102C174.475 246.091 174.213 244.895 174.213 243.514C174.213 242.168 174.475 240.986 174.998 239.969C175.52 238.952 176.256 238.159 177.205 237.591C178.159 237.023 179.279 236.739 180.563 236.739C181.426 236.739 182.23 236.878 182.975 237.156C183.725 237.429 184.378 237.841 184.935 238.392C185.498 238.943 185.935 239.636 186.248 240.472C186.56 241.301 186.716 242.273 186.716 243.386V244.384H175.662V242.134H183.299C183.299 241.611 183.185 241.148 182.958 240.744C182.73 240.341 182.415 240.026 182.012 239.798C181.614 239.565 181.151 239.449 180.623 239.449C180.071 239.449 179.583 239.577 179.157 239.832C178.736 240.082 178.407 240.42 178.168 240.847C177.929 241.267 177.807 241.736 177.801 242.253V244.392C177.801 245.04 177.921 245.599 178.159 246.071C178.404 246.543 178.748 246.906 179.191 247.162C179.634 247.418 180.159 247.545 180.767 247.545C181.171 247.545 181.54 247.489 181.875 247.375C182.211 247.261 182.498 247.091 182.736 246.864C182.975 246.636 183.157 246.358 183.282 246.028L186.64 246.25C186.469 247.057 186.12 247.761 185.591 248.364C185.069 248.96 184.392 249.426 183.563 249.761C182.739 250.091 181.787 250.256 180.708 250.256ZM201.603 236.909V239.636H193.72V236.909H201.603ZM195.51 233.773H199.14V245.977C199.14 246.312 199.191 246.574 199.294 246.761C199.396 246.943 199.538 247.071 199.72 247.145C199.907 247.219 200.123 247.256 200.368 247.256C200.538 247.256 200.708 247.241 200.879 247.213C201.049 247.179 201.18 247.153 201.271 247.136L201.842 249.838C201.66 249.895 201.404 249.96 201.075 250.034C200.745 250.114 200.345 250.162 199.873 250.179C198.998 250.213 198.231 250.097 197.572 249.83C196.919 249.562 196.41 249.148 196.047 248.585C195.683 248.023 195.504 247.312 195.51 246.455V233.773ZM209.743 250.256C208.419 250.256 207.274 249.974 206.308 249.412C205.348 248.844 204.606 248.054 204.083 247.043C203.561 246.026 203.299 244.847 203.299 243.506C203.299 242.153 203.561 240.972 204.083 239.96C204.606 238.943 205.348 238.153 206.308 237.591C207.274 237.023 208.419 236.739 209.743 236.739C211.066 236.739 212.208 237.023 213.169 237.591C214.135 238.153 214.879 238.943 215.402 239.96C215.924 240.972 216.186 242.153 216.186 243.506C216.186 244.847 215.924 246.026 215.402 247.043C214.879 248.054 214.135 248.844 213.169 249.412C212.208 249.974 211.066 250.256 209.743 250.256ZM209.76 247.443C210.362 247.443 210.865 247.273 211.268 246.932C211.672 246.585 211.975 246.114 212.18 245.517C212.39 244.92 212.495 244.241 212.495 243.48C212.495 242.719 212.39 242.04 212.18 241.443C211.975 240.847 211.672 240.375 211.268 240.028C210.865 239.682 210.362 239.509 209.76 239.509C209.152 239.509 208.64 239.682 208.225 240.028C207.816 240.375 207.507 240.847 207.297 241.443C207.092 242.04 206.99 242.719 206.99 243.48C206.99 244.241 207.092 244.92 207.297 245.517C207.507 246.114 207.816 246.585 208.225 246.932C208.64 247.273 209.152 247.443 209.76 247.443ZM227.86 232.545V250H224.169V232.545H227.86ZM234.458 242.432V250H230.828V236.909H234.288V239.219H234.441C234.731 238.457 235.217 237.855 235.899 237.412C236.581 236.963 237.407 236.739 238.379 236.739C239.288 236.739 240.081 236.938 240.757 237.335C241.433 237.733 241.958 238.301 242.333 239.04C242.708 239.773 242.896 240.648 242.896 241.665V250H239.265V242.312C239.271 241.511 239.066 240.886 238.652 240.438C238.237 239.983 237.666 239.756 236.939 239.756C236.45 239.756 236.018 239.861 235.643 240.071C235.274 240.281 234.984 240.588 234.774 240.991C234.569 241.389 234.464 241.869 234.458 242.432ZM256.65 240.642L253.326 240.847C253.269 240.562 253.147 240.307 252.959 240.08C252.772 239.847 252.525 239.662 252.218 239.526C251.917 239.384 251.556 239.312 251.135 239.312C250.573 239.312 250.098 239.432 249.712 239.67C249.326 239.903 249.132 240.216 249.132 240.608C249.132 240.92 249.257 241.185 249.507 241.401C249.757 241.616 250.186 241.79 250.794 241.92L253.164 242.398C254.436 242.659 255.385 243.08 256.01 243.659C256.635 244.239 256.948 245 256.948 245.943C256.948 246.801 256.695 247.554 256.189 248.202C255.689 248.849 255.002 249.355 254.127 249.719C253.257 250.077 252.255 250.256 251.118 250.256C249.385 250.256 248.005 249.895 246.976 249.173C245.953 248.446 245.354 247.457 245.178 246.207L248.749 246.02C248.857 246.548 249.118 246.952 249.533 247.23C249.948 247.503 250.479 247.639 251.127 247.639C251.763 247.639 252.275 247.517 252.661 247.273C253.053 247.023 253.252 246.702 253.257 246.31C253.252 245.98 253.113 245.71 252.84 245.5C252.567 245.284 252.147 245.119 251.578 245.006L249.311 244.554C248.033 244.298 247.081 243.855 246.456 243.224C245.837 242.594 245.527 241.79 245.527 240.812C245.527 239.972 245.755 239.247 246.209 238.639C246.669 238.031 247.314 237.562 248.144 237.233C248.979 236.903 249.956 236.739 251.076 236.739C252.729 236.739 254.03 237.088 254.979 237.787C255.934 238.486 256.49 239.437 256.65 240.642ZM266.197 236.909V239.636H258.314V236.909H266.197ZM260.103 233.773H263.734V245.977C263.734 246.312 263.785 246.574 263.887 246.761C263.99 246.943 264.132 247.071 264.314 247.145C264.501 247.219 264.717 247.256 264.961 247.256C265.132 247.256 265.302 247.241 265.473 247.213C265.643 247.179 265.774 247.153 265.865 247.136L266.436 249.838C266.254 249.895 265.998 249.96 265.669 250.034C265.339 250.114 264.939 250.162 264.467 250.179C263.592 250.213 262.825 250.097 262.166 249.83C261.512 249.562 261.004 249.148 260.64 248.585C260.277 248.023 260.098 247.312 260.103 246.455V233.773ZM272.295 250.247C271.46 250.247 270.716 250.102 270.062 249.812C269.409 249.517 268.892 249.082 268.511 248.509C268.136 247.929 267.949 247.207 267.949 246.344C267.949 245.616 268.082 245.006 268.349 244.511C268.616 244.017 268.98 243.619 269.44 243.318C269.9 243.017 270.423 242.79 271.008 242.636C271.599 242.483 272.218 242.375 272.866 242.312C273.627 242.233 274.241 242.159 274.707 242.091C275.173 242.017 275.511 241.909 275.721 241.767C275.931 241.625 276.037 241.415 276.037 241.136V241.085C276.037 240.545 275.866 240.128 275.525 239.832C275.19 239.537 274.713 239.389 274.093 239.389C273.44 239.389 272.92 239.534 272.534 239.824C272.147 240.108 271.892 240.466 271.767 240.898L268.409 240.625C268.579 239.83 268.914 239.142 269.414 238.562C269.914 237.977 270.559 237.528 271.349 237.216C272.145 236.898 273.065 236.739 274.11 236.739C274.838 236.739 275.534 236.824 276.199 236.994C276.869 237.165 277.463 237.429 277.98 237.787C278.502 238.145 278.914 238.605 279.216 239.168C279.517 239.724 279.667 240.392 279.667 241.17V250H276.224V248.185H276.122C275.912 248.594 275.63 248.955 275.278 249.267C274.926 249.574 274.502 249.815 274.008 249.991C273.514 250.162 272.943 250.247 272.295 250.247ZM273.335 247.741C273.869 247.741 274.341 247.636 274.75 247.426C275.159 247.21 275.48 246.92 275.713 246.557C275.946 246.193 276.062 245.781 276.062 245.321V243.932C275.949 244.006 275.792 244.074 275.593 244.136C275.4 244.193 275.181 244.247 274.937 244.298C274.693 244.344 274.449 244.386 274.204 244.426C273.96 244.46 273.738 244.491 273.539 244.52C273.113 244.582 272.741 244.682 272.423 244.818C272.105 244.955 271.858 245.139 271.681 245.372C271.505 245.599 271.417 245.884 271.417 246.224C271.417 246.719 271.596 247.097 271.954 247.358C272.318 247.614 272.778 247.741 273.335 247.741ZM288.382 255.182C287.206 255.182 286.197 255.02 285.356 254.696C284.521 254.378 283.856 253.943 283.362 253.392C282.868 252.841 282.547 252.222 282.399 251.534L285.757 251.082C285.859 251.344 286.021 251.588 286.243 251.815C286.464 252.043 286.757 252.224 287.12 252.361C287.49 252.503 287.939 252.574 288.467 252.574C289.257 252.574 289.907 252.381 290.419 251.994C290.936 251.614 291.194 250.974 291.194 250.077V247.682H291.041C290.882 248.045 290.643 248.389 290.325 248.713C290.007 249.037 289.598 249.301 289.098 249.506C288.598 249.71 288.001 249.812 287.308 249.812C286.325 249.812 285.43 249.585 284.623 249.131C283.822 248.67 283.183 247.969 282.706 247.026C282.234 246.077 281.998 244.878 281.998 243.429C281.998 241.946 282.24 240.707 282.723 239.713C283.206 238.719 283.848 237.974 284.649 237.48C285.456 236.986 286.339 236.739 287.299 236.739C288.032 236.739 288.646 236.864 289.14 237.114C289.635 237.358 290.032 237.665 290.333 238.034C290.64 238.398 290.876 238.756 291.041 239.108H291.177V236.909H294.782V250.128C294.782 251.241 294.51 252.173 293.964 252.923C293.419 253.673 292.663 254.236 291.697 254.611C290.737 254.991 289.632 255.182 288.382 255.182ZM288.458 247.085C289.044 247.085 289.538 246.94 289.941 246.651C290.35 246.355 290.663 245.935 290.879 245.389C291.1 244.838 291.211 244.179 291.211 243.412C291.211 242.645 291.103 241.98 290.887 241.418C290.672 240.849 290.359 240.409 289.95 240.097C289.541 239.784 289.044 239.628 288.458 239.628C287.862 239.628 287.359 239.79 286.95 240.114C286.541 240.432 286.231 240.875 286.021 241.443C285.811 242.011 285.706 242.668 285.706 243.412C285.706 244.168 285.811 244.821 286.021 245.372C286.237 245.918 286.547 246.341 286.95 246.642C287.359 246.937 287.862 247.085 288.458 247.085ZM297.672 250V236.909H301.191V239.193H301.328C301.566 238.381 301.967 237.767 302.529 237.352C303.092 236.932 303.74 236.722 304.473 236.722C304.654 236.722 304.85 236.733 305.061 236.756C305.271 236.778 305.456 236.81 305.615 236.849V240.071C305.444 240.02 305.208 239.974 304.907 239.935C304.606 239.895 304.331 239.875 304.081 239.875C303.547 239.875 303.069 239.991 302.649 240.224C302.234 240.452 301.904 240.77 301.66 241.179C301.422 241.588 301.302 242.06 301.302 242.594V250H297.672ZM310.85 250.247C310.015 250.247 309.27 250.102 308.617 249.812C307.963 249.517 307.446 249.082 307.066 248.509C306.691 247.929 306.503 247.207 306.503 246.344C306.503 245.616 306.637 245.006 306.904 244.511C307.171 244.017 307.534 243.619 307.995 243.318C308.455 243.017 308.978 242.79 309.563 242.636C310.154 242.483 310.773 242.375 311.421 242.312C312.182 242.233 312.796 242.159 313.262 242.091C313.728 242.017 314.066 241.909 314.276 241.767C314.486 241.625 314.591 241.415 314.591 241.136V241.085C314.591 240.545 314.421 240.128 314.08 239.832C313.745 239.537 313.267 239.389 312.648 239.389C311.995 239.389 311.475 239.534 311.088 239.824C310.702 240.108 310.446 240.466 310.321 240.898L306.963 240.625C307.134 239.83 307.469 239.142 307.969 238.562C308.469 237.977 309.114 237.528 309.904 237.216C310.699 236.898 311.62 236.739 312.665 236.739C313.392 236.739 314.088 236.824 314.753 236.994C315.424 237.165 316.017 237.429 316.534 237.787C317.057 238.145 317.469 238.605 317.77 239.168C318.071 239.724 318.222 240.392 318.222 241.17V250H314.779V248.185H314.676C314.466 248.594 314.185 248.955 313.833 249.267C313.48 249.574 313.057 249.815 312.563 249.991C312.069 250.162 311.498 250.247 310.85 250.247ZM311.89 247.741C312.424 247.741 312.895 247.636 313.304 247.426C313.713 247.21 314.034 246.92 314.267 246.557C314.5 246.193 314.617 245.781 314.617 245.321V243.932C314.503 244.006 314.347 244.074 314.148 244.136C313.955 244.193 313.736 244.247 313.492 244.298C313.248 244.344 313.003 244.386 312.759 244.426C312.515 244.46 312.293 244.491 312.094 244.52C311.668 244.582 311.296 244.682 310.978 244.818C310.659 244.955 310.412 245.139 310.236 245.372C310.06 245.599 309.972 245.884 309.972 246.224C309.972 246.719 310.151 247.097 310.509 247.358C310.873 247.614 311.333 247.741 311.89 247.741ZM321.039 250V236.909H324.499V239.219H324.652C324.925 238.452 325.38 237.847 326.016 237.403C326.652 236.96 327.414 236.739 328.3 236.739C329.198 236.739 329.962 236.963 330.593 237.412C331.223 237.855 331.644 238.457 331.854 239.219H331.99C332.257 238.469 332.74 237.869 333.439 237.42C334.144 236.966 334.976 236.739 335.936 236.739C337.158 236.739 338.15 237.128 338.911 237.906C339.678 238.679 340.061 239.776 340.061 241.196V250H336.439V241.912C336.439 241.185 336.246 240.639 335.86 240.276C335.473 239.912 334.99 239.73 334.411 239.73C333.752 239.73 333.238 239.94 332.868 240.361C332.499 240.776 332.314 241.324 332.314 242.006V250H328.794V241.835C328.794 241.193 328.61 240.682 328.24 240.301C327.877 239.92 327.397 239.73 326.8 239.73C326.397 239.73 326.033 239.832 325.709 240.037C325.391 240.236 325.138 240.517 324.951 240.881C324.763 241.239 324.669 241.659 324.669 242.142V250H321.039ZM346.875 247.614L346.782 248.551C346.708 249.301 346.566 250.048 346.355 250.793C346.151 251.543 345.935 252.222 345.708 252.83C345.486 253.438 345.307 253.915 345.171 254.261H342.819C342.904 253.926 343.02 253.457 343.168 252.855C343.316 252.259 343.455 251.588 343.586 250.844C343.716 250.099 343.799 249.341 343.833 248.568L343.875 247.614H346.875ZM164.364 269.642L161.04 269.847C160.984 269.562 160.862 269.307 160.674 269.08C160.487 268.847 160.239 268.662 159.933 268.526C159.631 268.384 159.271 268.312 158.85 268.312C158.288 268.312 157.813 268.432 157.427 268.67C157.04 268.903 156.847 269.216 156.847 269.608C156.847 269.92 156.972 270.185 157.222 270.401C157.472 270.616 157.901 270.79 158.509 270.92L160.879 271.398C162.151 271.659 163.1 272.08 163.725 272.659C164.35 273.239 164.663 274 164.663 274.943C164.663 275.801 164.41 276.554 163.904 277.202C163.404 277.849 162.717 278.355 161.842 278.719C160.972 279.077 159.969 279.256 158.833 279.256C157.1 279.256 155.719 278.895 154.691 278.173C153.668 277.446 153.069 276.457 152.893 275.207L156.464 275.02C156.572 275.548 156.833 275.952 157.248 276.23C157.663 276.503 158.194 276.639 158.842 276.639C159.478 276.639 159.989 276.517 160.376 276.273C160.768 276.023 160.967 275.702 160.972 275.31C160.967 274.98 160.827 274.71 160.555 274.5C160.282 274.284 159.862 274.119 159.293 274.006L157.026 273.554C155.748 273.298 154.796 272.855 154.171 272.224C153.552 271.594 153.242 270.79 153.242 269.812C153.242 268.972 153.469 268.247 153.924 267.639C154.384 267.031 155.029 266.562 155.859 266.233C156.694 265.903 157.671 265.739 158.79 265.739C160.444 265.739 161.745 266.088 162.694 266.787C163.648 267.486 164.205 268.437 164.364 269.642ZM166.949 279V265.909H170.409V268.219H170.562C170.835 267.452 171.29 266.847 171.926 266.403C172.562 265.96 173.324 265.739 174.21 265.739C175.108 265.739 175.872 265.963 176.503 266.412C177.134 266.855 177.554 267.457 177.764 268.219H177.901C178.168 267.469 178.651 266.869 179.349 266.42C180.054 265.966 180.886 265.739 181.847 265.739C183.068 265.739 184.06 266.128 184.821 266.906C185.588 267.679 185.972 268.776 185.972 270.196V279H182.349V270.912C182.349 270.185 182.156 269.639 181.77 269.276C181.384 268.912 180.901 268.73 180.321 268.73C179.662 268.73 179.148 268.94 178.778 269.361C178.409 269.776 178.224 270.324 178.224 271.006V279H174.705V270.835C174.705 270.193 174.52 269.682 174.151 269.301C173.787 268.92 173.307 268.73 172.71 268.73C172.307 268.73 171.943 268.832 171.619 269.037C171.301 269.236 171.048 269.517 170.861 269.881C170.673 270.239 170.58 270.659 170.58 271.142V279H166.949ZM188.839 279V265.909H192.47V279H188.839ZM190.663 264.222C190.124 264.222 189.661 264.043 189.274 263.685C188.893 263.321 188.703 262.886 188.703 262.381C188.703 261.881 188.893 261.452 189.274 261.094C189.661 260.73 190.124 260.548 190.663 260.548C191.203 260.548 191.663 260.73 192.044 261.094C192.43 261.452 192.624 261.881 192.624 262.381C192.624 262.886 192.43 263.321 192.044 263.685C191.663 264.043 191.203 264.222 190.663 264.222ZM202.342 265.909V268.636H194.458V265.909H202.342ZM196.248 262.773H199.879V274.977C199.879 275.312 199.93 275.574 200.032 275.761C200.134 275.943 200.276 276.071 200.458 276.145C200.646 276.219 200.862 276.256 201.106 276.256C201.276 276.256 201.447 276.241 201.617 276.213C201.788 276.179 201.918 276.153 202.009 276.136L202.58 278.838C202.398 278.895 202.143 278.96 201.813 279.034C201.484 279.114 201.083 279.162 200.612 279.179C199.737 279.213 198.969 279.097 198.31 278.83C197.657 278.562 197.148 278.148 196.785 277.585C196.421 277.023 196.242 276.312 196.248 275.455V262.773ZM214.704 279V281.753H203.241V279H214.704ZM217.246 283.909V265.909H220.825V268.108H220.987C221.146 267.756 221.376 267.398 221.678 267.034C221.984 266.665 222.382 266.358 222.871 266.114C223.365 265.864 223.979 265.739 224.712 265.739C225.666 265.739 226.547 265.989 227.354 266.489C228.161 266.983 228.805 267.73 229.288 268.73C229.771 269.724 230.013 270.972 230.013 272.472C230.013 273.932 229.777 275.165 229.305 276.17C228.839 277.17 228.203 277.929 227.396 278.446C226.595 278.957 225.697 279.213 224.703 279.213C223.999 279.213 223.399 279.097 222.905 278.864C222.416 278.631 222.016 278.338 221.703 277.986C221.391 277.628 221.152 277.267 220.987 276.903H220.876V283.909H217.246ZM220.8 272.455C220.8 273.233 220.908 273.912 221.124 274.491C221.339 275.071 221.652 275.523 222.061 275.847C222.47 276.165 222.967 276.324 223.553 276.324C224.143 276.324 224.643 276.162 225.053 275.838C225.462 275.509 225.771 275.054 225.982 274.474C226.197 273.889 226.305 273.216 226.305 272.455C226.305 271.699 226.2 271.034 225.99 270.46C225.78 269.886 225.47 269.437 225.061 269.114C224.652 268.79 224.149 268.628 223.553 268.628C222.962 268.628 222.462 268.784 222.053 269.097C221.649 269.409 221.339 269.852 221.124 270.426C220.908 271 220.8 271.676 220.8 272.455ZM236.166 279.247C235.331 279.247 234.587 279.102 233.933 278.812C233.28 278.517 232.763 278.082 232.382 277.509C232.007 276.929 231.82 276.207 231.82 275.344C231.82 274.616 231.953 274.006 232.22 273.511C232.487 273.017 232.851 272.619 233.311 272.318C233.771 272.017 234.294 271.79 234.879 271.636C235.47 271.483 236.089 271.375 236.737 271.312C237.499 271.233 238.112 271.159 238.578 271.091C239.044 271.017 239.382 270.909 239.592 270.767C239.803 270.625 239.908 270.415 239.908 270.136V270.085C239.908 269.545 239.737 269.128 239.396 268.832C239.061 268.537 238.584 268.389 237.964 268.389C237.311 268.389 236.791 268.534 236.405 268.824C236.018 269.108 235.763 269.466 235.638 269.898L232.28 269.625C232.45 268.83 232.786 268.142 233.286 267.562C233.786 266.977 234.43 266.528 235.22 266.216C236.016 265.898 236.936 265.739 237.982 265.739C238.709 265.739 239.405 265.824 240.07 265.994C240.74 266.165 241.334 266.429 241.851 266.787C242.374 267.145 242.786 267.605 243.087 268.168C243.388 268.724 243.538 269.392 243.538 270.17V279H240.095V277.185H239.993C239.783 277.594 239.501 277.955 239.149 278.267C238.797 278.574 238.374 278.815 237.879 278.991C237.385 279.162 236.814 279.247 236.166 279.247ZM237.206 276.741C237.74 276.741 238.212 276.636 238.621 276.426C239.03 276.21 239.351 275.92 239.584 275.557C239.817 275.193 239.933 274.781 239.933 274.321V272.932C239.82 273.006 239.663 273.074 239.464 273.136C239.271 273.193 239.053 273.247 238.808 273.298C238.564 273.344 238.32 273.386 238.075 273.426C237.831 273.46 237.609 273.491 237.411 273.52C236.984 273.582 236.612 273.682 236.294 273.818C235.976 273.955 235.729 274.139 235.553 274.372C235.376 274.599 235.288 274.884 235.288 275.224C235.288 275.719 235.467 276.097 235.825 276.358C236.189 276.614 236.649 276.741 237.206 276.741ZM253.318 265.909V268.636H245.435V265.909H253.318ZM247.224 262.773H250.855V274.977C250.855 275.312 250.906 275.574 251.009 275.761C251.111 275.943 251.253 276.071 251.435 276.145C251.622 276.219 251.838 276.256 252.082 276.256C252.253 276.256 252.423 276.241 252.594 276.213C252.764 276.179 252.895 276.153 252.986 276.136L253.557 278.838C253.375 278.895 253.119 278.96 252.79 279.034C252.46 279.114 252.06 279.162 251.588 279.179C250.713 279.213 249.946 279.097 249.287 278.83C248.634 278.562 248.125 278.148 247.761 277.585C247.398 277.023 247.219 276.312 247.224 275.455V262.773ZM261.509 279.256C260.162 279.256 259.003 278.983 258.031 278.438C257.065 277.886 256.321 277.108 255.798 276.102C255.276 275.091 255.014 273.895 255.014 272.514C255.014 271.168 255.276 269.986 255.798 268.969C256.321 267.952 257.057 267.159 258.006 266.591C258.96 266.023 260.08 265.739 261.364 265.739C262.227 265.739 263.031 265.878 263.776 266.156C264.526 266.429 265.179 266.841 265.736 267.392C266.298 267.943 266.736 268.636 267.048 269.472C267.361 270.301 267.517 271.273 267.517 272.386V273.384H256.463V271.134H264.099C264.099 270.611 263.986 270.148 263.759 269.744C263.531 269.341 263.216 269.026 262.812 268.798C262.415 268.565 261.952 268.449 261.423 268.449C260.872 268.449 260.384 268.577 259.957 268.832C259.537 269.082 259.207 269.42 258.969 269.847C258.73 270.267 258.608 270.736 258.602 271.253V273.392C258.602 274.04 258.722 274.599 258.96 275.071C259.205 275.543 259.548 275.906 259.991 276.162C260.435 276.418 260.96 276.545 261.568 276.545C261.972 276.545 262.341 276.489 262.676 276.375C263.011 276.261 263.298 276.091 263.537 275.864C263.776 275.636 263.957 275.358 264.082 275.028L267.44 275.25C267.27 276.057 266.92 276.761 266.392 277.364C265.869 277.96 265.193 278.426 264.364 278.761C263.54 279.091 262.588 279.256 261.509 279.256ZM273.517 261.545V279H269.886V261.545H273.517Z" fill="black"/>
<rect x="21" y="331" width="388" height="70" rx="12" fill="#FAFAFA"/>
<path d="M42.598 375V360.455H47.7827C48.9143 360.455 49.8518 360.661 50.5952 361.072C51.3385 361.484 51.8949 362.048 52.2642 362.763C52.6335 363.473 52.8182 364.273 52.8182 365.163C52.8182 366.058 52.6312 366.863 52.2571 367.578C51.8878 368.288 51.3291 368.852 50.581 369.268C49.8376 369.68 48.9025 369.886 47.7756 369.886H44.2102V368.026H47.5767C48.2917 368.026 48.8717 367.902 49.3168 367.656C49.7618 367.405 50.0885 367.064 50.2969 366.634C50.5052 366.203 50.6094 365.713 50.6094 365.163C50.6094 364.614 50.5052 364.126 50.2969 363.7C50.0885 363.274 49.7595 362.94 49.3097 362.699C48.8646 362.457 48.2775 362.337 47.5483 362.337H44.7926V375H42.598ZM57.3441 368.523V375H55.2205V360.455H57.3157V365.866H57.4506C57.7063 365.279 58.0969 364.813 58.6225 364.467C59.1481 364.122 59.8346 363.949 60.6822 363.949C61.4303 363.949 62.0837 364.103 62.6424 364.411C63.2058 364.718 63.6415 365.178 63.9492 365.788C64.2617 366.394 64.418 367.152 64.418 368.061V375H62.2944V368.317C62.2944 367.517 62.0884 366.896 61.6765 366.456C61.2646 366.011 60.6916 365.788 59.9577 365.788C59.4558 365.788 59.006 365.895 58.6083 366.108C58.2153 366.321 57.9052 366.634 57.6779 367.045C57.4554 367.453 57.3441 367.945 57.3441 368.523ZM71.8469 375.22C70.8242 375.22 69.9317 374.986 69.1694 374.517C68.4071 374.048 67.8152 373.393 67.3938 372.55C66.9724 371.707 66.7617 370.722 66.7617 369.595C66.7617 368.464 66.9724 367.474 67.3938 366.626C67.8152 365.779 68.4071 365.121 69.1694 364.652C69.9317 364.183 70.8242 363.949 71.8469 363.949C72.8697 363.949 73.7622 364.183 74.5245 364.652C75.2868 365.121 75.8787 365.779 76.3001 366.626C76.7215 367.474 76.9322 368.464 76.9322 369.595C76.9322 370.722 76.7215 371.707 76.3001 372.55C75.8787 373.393 75.2868 374.048 74.5245 374.517C73.7622 374.986 72.8697 375.22 71.8469 375.22ZM71.854 373.438C72.5169 373.438 73.0662 373.262 73.5018 372.912C73.9374 372.562 74.2594 372.095 74.4677 371.513C74.6808 370.93 74.7873 370.289 74.7873 369.588C74.7873 368.892 74.6808 368.253 74.4677 367.67C74.2594 367.083 73.9374 366.612 73.5018 366.257C73.0662 365.902 72.5169 365.724 71.854 365.724C71.1864 365.724 70.6325 365.902 70.1921 366.257C69.7565 366.612 69.4322 367.083 69.2191 367.67C69.0108 368.253 68.9066 368.892 68.9066 369.588C68.9066 370.289 69.0108 370.93 69.2191 371.513C69.4322 372.095 69.7565 372.562 70.1921 372.912C70.6325 373.262 71.1864 373.438 71.854 373.438ZM81.4261 368.523V375H79.3026V364.091H81.3409V365.866H81.4759C81.7268 365.289 82.1198 364.825 82.6548 364.474C83.1946 364.124 83.8741 363.949 84.6932 363.949C85.4366 363.949 86.0876 364.105 86.6463 364.418C87.205 364.725 87.6383 365.185 87.946 365.795C88.2538 366.406 88.4077 367.161 88.4077 368.061V375H86.2841V368.317C86.2841 367.526 86.0781 366.908 85.6662 366.463C85.2543 366.013 84.6884 365.788 83.9688 365.788C83.4763 365.788 83.0384 365.895 82.6548 366.108C82.276 366.321 81.9754 366.634 81.7528 367.045C81.535 367.453 81.4261 367.945 81.4261 368.523ZM95.9574 375.22C94.8826 375.22 93.9569 374.991 93.1804 374.531C92.4086 374.067 91.812 373.416 91.3906 372.578C90.974 371.735 90.7656 370.748 90.7656 369.616C90.7656 368.499 90.974 367.514 91.3906 366.662C91.812 365.81 92.3991 365.144 93.152 364.666C93.9096 364.188 94.795 363.949 95.8082 363.949C96.4238 363.949 97.0204 364.051 97.598 364.254C98.1757 364.458 98.6941 364.777 99.1534 365.213C99.6127 365.649 99.9749 366.214 100.24 366.911C100.505 367.602 100.638 368.442 100.638 369.432V370.185H91.9659V368.594H98.5568C98.5568 368.035 98.4432 367.54 98.2159 367.109C97.9886 366.674 97.669 366.33 97.2571 366.08C96.8499 365.829 96.3717 365.703 95.8224 365.703C95.2259 365.703 94.705 365.85 94.2599 366.143C93.8196 366.432 93.4787 366.811 93.2372 367.28C93.0005 367.744 92.8821 368.248 92.8821 368.793V370.036C92.8821 370.765 93.0099 371.385 93.2656 371.896C93.526 372.408 93.8883 372.798 94.3523 373.068C94.8163 373.333 95.3584 373.466 95.9787 373.466C96.3812 373.466 96.7481 373.409 97.0795 373.295C97.411 373.177 97.6974 373.002 97.9389 372.77C98.1804 372.538 98.3651 372.251 98.4929 371.911L100.503 372.273C100.342 372.865 100.053 373.383 99.6364 373.828C99.2244 374.268 98.706 374.612 98.081 374.858C97.4607 375.099 96.7528 375.22 95.9574 375.22ZM120.197 360.455V375H118.18L110.787 364.332H110.652V375H108.457V360.455H110.489L117.889 371.136H118.024V360.455H120.197ZM130.139 370.476V364.091H132.27V375H130.181V373.111H130.068C129.817 373.693 129.414 374.179 128.86 374.567C128.311 374.95 127.627 375.142 126.808 375.142C126.107 375.142 125.487 374.988 124.947 374.68C124.412 374.368 123.991 373.906 123.683 373.295C123.38 372.685 123.228 371.929 123.228 371.03V364.091H125.352V370.774C125.352 371.518 125.558 372.109 125.97 372.55C126.382 372.99 126.917 373.21 127.575 373.21C127.973 373.21 128.368 373.111 128.761 372.912C129.159 372.713 129.488 372.412 129.748 372.01C130.013 371.607 130.144 371.096 130.139 370.476ZM135.123 375V364.091H137.161V365.866H137.296C137.523 365.265 137.895 364.796 138.411 364.46C138.927 364.119 139.545 363.949 140.265 363.949C140.994 363.949 141.605 364.119 142.097 364.46C142.594 364.801 142.961 365.27 143.198 365.866H143.312C143.572 365.284 143.987 364.82 144.555 364.474C145.123 364.124 145.8 363.949 146.586 363.949C147.576 363.949 148.383 364.259 149.008 364.879C149.638 365.5 149.952 366.435 149.952 367.685V375H147.829V367.884C147.829 367.145 147.628 366.61 147.225 366.278C146.823 365.947 146.342 365.781 145.783 365.781C145.092 365.781 144.555 365.994 144.171 366.42C143.788 366.842 143.596 367.384 143.596 368.047V375H141.479V367.749C141.479 367.157 141.295 366.681 140.925 366.321C140.556 365.961 140.076 365.781 139.484 365.781C139.081 365.781 138.71 365.888 138.369 366.101C138.032 366.309 137.76 366.6 137.552 366.974C137.348 367.348 137.246 367.782 137.246 368.274V375H135.123ZM152.969 375V360.455H155.093V365.859H155.221C155.344 365.632 155.521 365.369 155.753 365.071C155.985 364.773 156.307 364.512 156.719 364.29C157.131 364.062 157.676 363.949 158.353 363.949C159.233 363.949 160.019 364.171 160.711 364.616C161.402 365.062 161.944 365.703 162.337 366.541C162.735 367.379 162.934 368.388 162.934 369.567C162.934 370.746 162.737 371.757 162.344 372.599C161.951 373.437 161.411 374.084 160.725 374.538C160.038 374.988 159.255 375.213 158.374 375.213C157.711 375.213 157.169 375.102 156.748 374.879C156.331 374.657 156.004 374.396 155.767 374.098C155.531 373.8 155.348 373.535 155.221 373.303H155.043V375H152.969ZM155.05 369.545C155.05 370.312 155.161 370.985 155.384 371.562C155.606 372.14 155.928 372.592 156.35 372.919C156.771 373.241 157.287 373.402 157.898 373.402C158.533 373.402 159.063 373.234 159.489 372.898C159.915 372.557 160.237 372.095 160.455 371.513C160.677 370.93 160.789 370.275 160.789 369.545C160.789 368.826 160.68 368.179 160.462 367.607C160.249 367.034 159.927 366.581 159.496 366.25C159.07 365.919 158.537 365.753 157.898 365.753C157.283 365.753 156.762 365.911 156.336 366.229C155.914 366.546 155.595 366.989 155.377 367.557C155.159 368.125 155.05 368.788 155.05 369.545ZM170.02 375.22C168.945 375.22 168.019 374.991 167.243 374.531C166.471 374.067 165.875 373.416 165.453 372.578C165.036 371.735 164.828 370.748 164.828 369.616C164.828 368.499 165.036 367.514 165.453 366.662C165.875 365.81 166.462 365.144 167.214 364.666C167.972 364.188 168.857 363.949 169.871 363.949C170.486 363.949 171.083 364.051 171.661 364.254C172.238 364.458 172.757 364.777 173.216 365.213C173.675 365.649 174.037 366.214 174.303 366.911C174.568 367.602 174.7 368.442 174.7 369.432V370.185H166.028V368.594H172.619C172.619 368.035 172.506 367.54 172.278 367.109C172.051 366.674 171.732 366.33 171.32 366.08C170.912 365.829 170.434 365.703 169.885 365.703C169.288 365.703 168.768 365.85 168.322 366.143C167.882 366.432 167.541 366.811 167.3 367.28C167.063 367.744 166.945 368.248 166.945 368.793V370.036C166.945 370.765 167.072 371.385 167.328 371.896C167.589 372.408 167.951 372.798 168.415 373.068C168.879 373.333 169.421 373.466 170.041 373.466C170.444 373.466 170.811 373.409 171.142 373.295C171.473 373.177 171.76 373.002 172.001 372.77C172.243 372.538 172.428 372.251 172.555 371.911L174.565 372.273C174.404 372.865 174.116 373.383 173.699 373.828C173.287 374.268 172.768 374.612 172.143 374.858C171.523 375.099 170.815 375.22 170.02 375.22ZM177.056 375V364.091H179.109V365.824H179.223C179.422 365.237 179.772 364.775 180.274 364.439C180.78 364.098 181.353 363.928 181.993 363.928C182.125 363.928 182.281 363.932 182.461 363.942C182.646 363.951 182.79 363.963 182.895 363.977V366.009C182.809 365.985 182.658 365.959 182.44 365.93C182.222 365.897 182.004 365.881 181.787 365.881C181.285 365.881 180.837 365.987 180.444 366.2C180.056 366.409 179.748 366.7 179.521 367.074C179.294 367.443 179.18 367.865 179.18 368.338V375H177.056ZM194.62 375.22C193.598 375.22 192.705 374.986 191.943 374.517C191.181 374.048 190.589 373.393 190.167 372.55C189.746 371.707 189.535 370.722 189.535 369.595C189.535 368.464 189.746 367.474 190.167 366.626C190.589 365.779 191.181 365.121 191.943 364.652C192.705 364.183 193.598 363.949 194.62 363.949C195.643 363.949 196.536 364.183 197.298 364.652C198.06 365.121 198.652 365.779 199.074 366.626C199.495 367.474 199.706 368.464 199.706 369.595C199.706 370.722 199.495 371.707 199.074 372.55C198.652 373.393 198.06 374.048 197.298 374.517C196.536 374.986 195.643 375.22 194.62 375.22ZM194.627 373.438C195.29 373.438 195.84 373.262 196.275 372.912C196.711 372.562 197.033 372.095 197.241 371.513C197.454 370.93 197.561 370.289 197.561 369.588C197.561 368.892 197.454 368.253 197.241 367.67C197.033 367.083 196.711 366.612 196.275 366.257C195.84 365.902 195.29 365.724 194.627 365.724C193.96 365.724 193.406 365.902 192.966 366.257C192.53 366.612 192.206 367.083 191.993 367.67C191.784 368.253 191.68 368.892 191.68 369.588C191.68 370.289 191.784 370.93 191.993 371.513C192.206 372.095 192.53 372.562 192.966 372.912C193.406 373.262 193.96 373.438 194.627 373.438ZM202.076 375V364.091H204.129V365.824H204.242C204.441 365.237 204.791 364.775 205.293 364.439C205.8 364.098 206.373 363.928 207.012 363.928C207.145 363.928 207.301 363.932 207.481 363.942C207.665 363.951 207.81 363.963 207.914 363.977V366.009C207.829 365.985 207.677 365.959 207.46 365.93C207.242 365.897 207.024 365.881 206.806 365.881C206.304 365.881 205.857 365.987 205.464 366.2C205.076 366.409 204.768 366.7 204.54 367.074C204.313 367.443 204.2 367.865 204.2 368.338V375H202.076ZM215.215 375V360.455H224.335V362.344H217.41V366.776H223.859V368.658H217.41V373.111H224.42V375H215.215ZM227.096 375V364.091H229.134V365.866H229.269C229.496 365.265 229.868 364.796 230.384 364.46C230.9 364.119 231.518 363.949 232.238 363.949C232.967 363.949 233.578 364.119 234.07 364.46C234.567 364.801 234.934 365.27 235.171 365.866H235.284C235.545 365.284 235.959 364.82 236.527 364.474C237.096 364.124 237.773 363.949 238.559 363.949C239.548 363.949 240.355 364.259 240.98 364.879C241.61 365.5 241.925 366.435 241.925 367.685V375H239.801V367.884C239.801 367.145 239.6 366.61 239.198 366.278C238.795 365.947 238.315 365.781 237.756 365.781C237.065 365.781 236.527 365.994 236.144 366.42C235.76 366.842 235.569 367.384 235.569 368.047V375H233.452V367.749C233.452 367.157 233.267 366.681 232.898 366.321C232.529 365.961 232.048 365.781 231.456 365.781C231.054 365.781 230.682 365.888 230.341 366.101C230.005 366.309 229.733 366.6 229.525 366.974C229.321 367.348 229.219 367.782 229.219 368.274V375H227.096ZM247.946 375.241C247.255 375.241 246.63 375.114 246.071 374.858C245.512 374.598 245.07 374.221 244.743 373.729C244.421 373.236 244.26 372.633 244.26 371.918C244.26 371.302 244.378 370.795 244.615 370.398C244.852 370 245.171 369.685 245.574 369.453C245.976 369.221 246.426 369.046 246.923 368.928C247.42 368.809 247.927 368.719 248.443 368.658C249.097 368.582 249.627 368.52 250.034 368.473C250.441 368.421 250.737 368.338 250.922 368.224C251.107 368.111 251.199 367.926 251.199 367.67V367.621C251.199 367 251.024 366.52 250.673 366.179C250.328 365.838 249.812 365.668 249.125 365.668C248.41 365.668 247.847 365.826 247.435 366.143C247.027 366.456 246.746 366.804 246.589 367.188L244.594 366.733C244.83 366.07 245.176 365.535 245.631 365.128C246.09 364.716 246.618 364.418 247.214 364.233C247.811 364.044 248.438 363.949 249.097 363.949C249.532 363.949 249.994 364.001 250.482 364.105C250.974 364.205 251.433 364.389 251.859 364.659C252.29 364.929 252.643 365.315 252.918 365.817C253.192 366.314 253.33 366.96 253.33 367.756V375H251.256V373.509H251.17C251.033 373.783 250.827 374.053 250.553 374.318C250.278 374.583 249.925 374.804 249.494 374.979C249.063 375.154 248.547 375.241 247.946 375.241ZM248.408 373.537C248.995 373.537 249.497 373.421 249.913 373.189C250.335 372.957 250.654 372.654 250.872 372.28C251.095 371.901 251.206 371.496 251.206 371.065V369.659C251.13 369.735 250.983 369.806 250.766 369.872C250.553 369.934 250.309 369.988 250.034 370.036C249.759 370.078 249.492 370.118 249.232 370.156C248.971 370.189 248.753 370.218 248.578 370.241C248.166 370.294 247.79 370.381 247.449 370.504C247.113 370.627 246.843 370.805 246.639 371.037C246.44 371.264 246.341 371.567 246.341 371.946C246.341 372.472 246.535 372.869 246.923 373.139C247.312 373.404 247.806 373.537 248.408 373.537ZM256.158 375V364.091H258.282V375H256.158ZM257.23 362.408C256.861 362.408 256.544 362.285 256.279 362.038C256.018 361.787 255.888 361.489 255.888 361.143C255.888 360.793 256.018 360.495 256.279 360.249C256.544 359.998 256.861 359.872 257.23 359.872C257.6 359.872 257.915 359.998 258.175 360.249C258.44 360.495 258.573 360.793 258.573 361.143C258.573 361.489 258.44 361.787 258.175 362.038C257.915 362.285 257.6 362.408 257.23 362.408ZM263.262 360.455V375H261.138V360.455H263.262Z" fill="black" fill-opacity="0.5"/>
<rect x="21" y="428" width="388" height="70" rx="12" fill="#0095F6"/>
<path d="M125.918 463.656H122.185C122.116 463.173 121.977 462.744 121.767 462.369C121.557 461.989 121.287 461.665 120.957 461.398C120.628 461.131 120.247 460.926 119.815 460.784C119.389 460.642 118.926 460.571 118.426 460.571C117.523 460.571 116.736 460.795 116.065 461.244C115.395 461.687 114.875 462.335 114.506 463.188C114.136 464.034 113.952 465.062 113.952 466.273C113.952 467.517 114.136 468.562 114.506 469.409C114.881 470.256 115.403 470.895 116.074 471.327C116.744 471.759 117.52 471.974 118.401 471.974C118.895 471.974 119.352 471.909 119.773 471.778C120.199 471.648 120.577 471.457 120.906 471.207C121.236 470.952 121.509 470.642 121.724 470.278C121.946 469.915 122.099 469.5 122.185 469.034L125.918 469.051C125.821 469.852 125.58 470.625 125.193 471.369C124.813 472.108 124.298 472.77 123.651 473.355C123.009 473.935 122.241 474.395 121.349 474.736C120.463 475.071 119.46 475.239 118.341 475.239C116.784 475.239 115.392 474.886 114.165 474.182C112.943 473.477 111.977 472.457 111.267 471.122C110.562 469.787 110.21 468.17 110.21 466.273C110.21 464.369 110.568 462.75 111.284 461.415C112 460.08 112.972 459.062 114.199 458.364C115.426 457.659 116.807 457.307 118.341 457.307C119.352 457.307 120.29 457.449 121.153 457.733C122.023 458.017 122.793 458.432 123.463 458.977C124.134 459.517 124.679 460.179 125.099 460.963C125.526 461.747 125.798 462.645 125.918 463.656ZM134.411 475.256C133.087 475.256 131.942 474.974 130.976 474.412C130.016 473.844 129.274 473.054 128.751 472.043C128.229 471.026 127.967 469.847 127.967 468.506C127.967 467.153 128.229 465.972 128.751 464.96C129.274 463.943 130.016 463.153 130.976 462.591C131.942 462.023 133.087 461.739 134.411 461.739C135.734 461.739 136.876 462.023 137.837 462.591C138.803 463.153 139.547 463.943 140.07 464.96C140.592 465.972 140.854 467.153 140.854 468.506C140.854 469.847 140.592 471.026 140.07 472.043C139.547 473.054 138.803 473.844 137.837 474.412C136.876 474.974 135.734 475.256 134.411 475.256ZM134.428 472.443C135.03 472.443 135.533 472.273 135.936 471.932C136.339 471.585 136.643 471.114 136.848 470.517C137.058 469.92 137.163 469.241 137.163 468.48C137.163 467.719 137.058 467.04 136.848 466.443C136.643 465.847 136.339 465.375 135.936 465.028C135.533 464.682 135.03 464.509 134.428 464.509C133.82 464.509 133.308 464.682 132.893 465.028C132.484 465.375 132.175 465.847 131.964 466.443C131.76 467.04 131.658 467.719 131.658 468.48C131.658 469.241 131.76 469.92 131.964 470.517C132.175 471.114 132.484 471.585 132.893 471.932C133.308 472.273 133.82 472.443 134.428 472.443ZM143.214 475V461.909H146.675V464.219H146.828C147.101 463.452 147.555 462.847 148.192 462.403C148.828 461.96 149.589 461.739 150.476 461.739C151.374 461.739 152.138 461.963 152.768 462.412C153.399 462.855 153.82 463.457 154.03 464.219H154.166C154.433 463.469 154.916 462.869 155.615 462.42C156.32 461.966 157.152 461.739 158.112 461.739C159.334 461.739 160.325 462.128 161.087 462.906C161.854 463.679 162.237 464.776 162.237 466.196V475H158.615V466.912C158.615 466.185 158.422 465.639 158.036 465.276C157.649 464.912 157.166 464.73 156.587 464.73C155.928 464.73 155.413 464.94 155.044 465.361C154.675 465.776 154.49 466.324 154.49 467.006V475H150.97V466.835C150.97 466.193 150.786 465.682 150.416 465.301C150.053 464.92 149.572 464.73 148.976 464.73C148.572 464.73 148.209 464.832 147.885 465.037C147.567 465.236 147.314 465.517 147.126 465.881C146.939 466.239 146.845 466.659 146.845 467.142V475H143.214ZM165.105 479.909V461.909H168.685V464.108H168.847C169.006 463.756 169.236 463.398 169.537 463.034C169.844 462.665 170.241 462.358 170.73 462.114C171.224 461.864 171.838 461.739 172.571 461.739C173.526 461.739 174.406 461.989 175.213 462.489C176.02 462.983 176.665 463.73 177.148 464.73C177.631 465.724 177.872 466.972 177.872 468.472C177.872 469.932 177.636 471.165 177.165 472.17C176.699 473.17 176.063 473.929 175.256 474.446C174.455 474.957 173.557 475.213 172.562 475.213C171.858 475.213 171.259 475.097 170.764 474.864C170.276 474.631 169.875 474.338 169.562 473.986C169.25 473.628 169.011 473.267 168.847 472.903H168.736V479.909H165.105ZM168.659 468.455C168.659 469.233 168.767 469.912 168.983 470.491C169.199 471.071 169.511 471.523 169.92 471.847C170.33 472.165 170.827 472.324 171.412 472.324C172.003 472.324 172.503 472.162 172.912 471.838C173.321 471.509 173.631 471.054 173.841 470.474C174.057 469.889 174.165 469.216 174.165 468.455C174.165 467.699 174.06 467.034 173.849 466.46C173.639 465.886 173.33 465.437 172.92 465.114C172.511 464.79 172.009 464.628 171.412 464.628C170.821 464.628 170.321 464.784 169.912 465.097C169.509 465.409 169.199 465.852 168.983 466.426C168.767 467 168.659 467.676 168.659 468.455ZM183.923 457.545V475H180.293V457.545H183.923ZM192.798 475.256C191.451 475.256 190.292 474.983 189.32 474.438C188.354 473.886 187.61 473.108 187.087 472.102C186.565 471.091 186.303 469.895 186.303 468.514C186.303 467.168 186.565 465.986 187.087 464.969C187.61 463.952 188.346 463.159 189.295 462.591C190.249 462.023 191.369 461.739 192.653 461.739C193.516 461.739 194.32 461.878 195.065 462.156C195.815 462.429 196.468 462.841 197.025 463.392C197.587 463.943 198.025 464.636 198.337 465.472C198.65 466.301 198.806 467.273 198.806 468.386V469.384H187.752V467.134H195.388C195.388 466.611 195.275 466.148 195.048 465.744C194.82 465.341 194.505 465.026 194.102 464.798C193.704 464.565 193.241 464.449 192.712 464.449C192.161 464.449 191.673 464.577 191.246 464.832C190.826 465.082 190.496 465.42 190.258 465.847C190.019 466.267 189.897 466.736 189.891 467.253V469.392C189.891 470.04 190.011 470.599 190.249 471.071C190.494 471.543 190.837 471.906 191.281 472.162C191.724 472.418 192.249 472.545 192.857 472.545C193.261 472.545 193.63 472.489 193.965 472.375C194.3 472.261 194.587 472.091 194.826 471.864C195.065 471.636 195.246 471.358 195.371 471.028L198.729 471.25C198.559 472.057 198.21 472.761 197.681 473.364C197.158 473.96 196.482 474.426 195.653 474.761C194.829 475.091 193.877 475.256 192.798 475.256ZM208.138 461.909V464.636H200.255V461.909H208.138ZM202.045 458.773H205.675V470.977C205.675 471.312 205.727 471.574 205.829 471.761C205.931 471.943 206.073 472.071 206.255 472.145C206.442 472.219 206.658 472.256 206.903 472.256C207.073 472.256 207.244 472.241 207.414 472.213C207.585 472.179 207.715 472.153 207.806 472.136L208.377 474.838C208.195 474.895 207.94 474.96 207.61 475.034C207.281 475.114 206.88 475.162 206.408 475.179C205.533 475.213 204.766 475.097 204.107 474.83C203.454 474.562 202.945 474.148 202.582 473.585C202.218 473.023 202.039 472.312 202.045 471.455V458.773ZM216.329 475.256C214.982 475.256 213.823 474.983 212.852 474.438C211.886 473.886 211.141 473.108 210.619 472.102C210.096 471.091 209.835 469.895 209.835 468.514C209.835 467.168 210.096 465.986 210.619 464.969C211.141 463.952 211.877 463.159 212.826 462.591C213.781 462.023 214.9 461.739 216.184 461.739C217.048 461.739 217.852 461.878 218.596 462.156C219.346 462.429 219.999 462.841 220.556 463.392C221.119 463.943 221.556 464.636 221.869 465.472C222.181 466.301 222.337 467.273 222.337 468.386V469.384H211.283V467.134H218.92C218.92 466.611 218.806 466.148 218.579 465.744C218.352 465.341 218.036 465.026 217.633 464.798C217.235 464.565 216.772 464.449 216.244 464.449C215.692 464.449 215.204 464.577 214.778 464.832C214.357 465.082 214.028 465.42 213.789 465.847C213.55 466.267 213.428 466.736 213.423 467.253V469.392C213.423 470.04 213.542 470.599 213.781 471.071C214.025 471.543 214.369 471.906 214.812 472.162C215.255 472.418 215.781 472.545 216.388 472.545C216.792 472.545 217.161 472.489 217.496 472.375C217.832 472.261 218.119 472.091 218.357 471.864C218.596 471.636 218.778 471.358 218.903 471.028L222.261 471.25C222.09 472.057 221.741 472.761 221.212 473.364C220.69 473.96 220.013 474.426 219.184 474.761C218.36 475.091 217.408 475.256 216.329 475.256ZM239.798 462.565C239.73 461.878 239.438 461.344 238.92 460.963C238.403 460.582 237.702 460.392 236.815 460.392C236.213 460.392 235.705 460.477 235.29 460.648C234.875 460.812 234.557 461.043 234.335 461.338C234.119 461.634 234.011 461.969 234.011 462.344C234 462.656 234.065 462.929 234.207 463.162C234.355 463.395 234.557 463.597 234.812 463.767C235.068 463.932 235.364 464.077 235.699 464.202C236.034 464.321 236.392 464.423 236.773 464.509L238.341 464.884C239.102 465.054 239.801 465.281 240.438 465.565C241.074 465.849 241.625 466.199 242.091 466.614C242.557 467.028 242.918 467.517 243.173 468.08C243.435 468.642 243.568 469.287 243.574 470.014C243.568 471.082 243.295 472.009 242.756 472.793C242.222 473.571 241.449 474.176 240.438 474.608C239.432 475.034 238.219 475.247 236.798 475.247C235.389 475.247 234.162 475.031 233.116 474.599C232.077 474.168 231.264 473.528 230.679 472.682C230.099 471.83 229.795 470.776 229.767 469.52H233.338C233.378 470.105 233.545 470.594 233.841 470.986C234.142 471.372 234.543 471.665 235.043 471.864C235.548 472.057 236.119 472.153 236.756 472.153C237.381 472.153 237.923 472.062 238.384 471.881C238.849 471.699 239.21 471.446 239.466 471.122C239.722 470.798 239.849 470.426 239.849 470.006C239.849 469.614 239.733 469.284 239.5 469.017C239.273 468.75 238.938 468.523 238.494 468.335C238.057 468.148 237.52 467.977 236.884 467.824L234.983 467.347C233.511 466.989 232.349 466.429 231.497 465.668C230.645 464.906 230.222 463.881 230.227 462.591C230.222 461.534 230.503 460.611 231.071 459.821C231.645 459.031 232.432 458.415 233.432 457.972C234.432 457.528 235.568 457.307 236.841 457.307C238.136 457.307 239.267 457.528 240.233 457.972C241.205 458.415 241.96 459.031 242.5 459.821C243.04 460.611 243.318 461.526 243.335 462.565H239.798ZM245.988 475V461.909H249.619V475H245.988ZM247.812 460.222C247.272 460.222 246.809 460.043 246.423 459.685C246.042 459.321 245.852 458.886 245.852 458.381C245.852 457.881 246.042 457.452 246.423 457.094C246.809 456.73 247.272 456.548 247.812 456.548C248.352 456.548 248.812 456.73 249.192 457.094C249.579 457.452 249.772 457.881 249.772 458.381C249.772 458.886 249.579 459.321 249.192 459.685C248.812 460.043 248.352 460.222 247.812 460.222ZM258.425 480.182C257.249 480.182 256.24 480.02 255.399 479.696C254.564 479.378 253.899 478.943 253.405 478.392C252.911 477.841 252.589 477.222 252.442 476.534L255.8 476.082C255.902 476.344 256.064 476.588 256.286 476.815C256.507 477.043 256.8 477.224 257.163 477.361C257.533 477.503 257.982 477.574 258.51 477.574C259.3 477.574 259.95 477.381 260.462 476.994C260.979 476.614 261.237 475.974 261.237 475.077V472.682H261.084C260.925 473.045 260.686 473.389 260.368 473.713C260.05 474.037 259.641 474.301 259.141 474.506C258.641 474.71 258.044 474.812 257.351 474.812C256.368 474.812 255.473 474.585 254.666 474.131C253.865 473.67 253.226 472.969 252.749 472.026C252.277 471.077 252.041 469.878 252.041 468.429C252.041 466.946 252.283 465.707 252.766 464.713C253.249 463.719 253.891 462.974 254.692 462.48C255.499 461.986 256.382 461.739 257.342 461.739C258.075 461.739 258.689 461.864 259.183 462.114C259.678 462.358 260.075 462.665 260.376 463.034C260.683 463.398 260.919 463.756 261.084 464.108H261.22V461.909H264.825V475.128C264.825 476.241 264.553 477.173 264.007 477.923C263.462 478.673 262.706 479.236 261.74 479.611C260.78 479.991 259.675 480.182 258.425 480.182ZM258.501 472.085C259.087 472.085 259.581 471.94 259.984 471.651C260.393 471.355 260.706 470.935 260.922 470.389C261.143 469.838 261.254 469.179 261.254 468.412C261.254 467.645 261.146 466.98 260.93 466.418C260.714 465.849 260.402 465.409 259.993 465.097C259.584 464.784 259.087 464.628 258.501 464.628C257.905 464.628 257.402 464.79 256.993 465.114C256.584 465.432 256.274 465.875 256.064 466.443C255.854 467.011 255.749 467.668 255.749 468.412C255.749 469.168 255.854 469.821 256.064 470.372C256.28 470.918 256.589 471.341 256.993 471.642C257.402 471.937 257.905 472.085 258.501 472.085ZM271.345 467.432V475H267.714V461.909H271.175V464.219H271.328C271.618 463.457 272.104 462.855 272.786 462.412C273.467 461.963 274.294 461.739 275.266 461.739C276.175 461.739 276.967 461.938 277.643 462.335C278.32 462.733 278.845 463.301 279.22 464.04C279.595 464.773 279.783 465.648 279.783 466.665V475H276.152V467.312C276.158 466.511 275.953 465.886 275.538 465.438C275.124 464.983 274.553 464.756 273.825 464.756C273.337 464.756 272.905 464.861 272.53 465.071C272.161 465.281 271.871 465.588 271.661 465.991C271.456 466.389 271.351 466.869 271.345 467.432ZM299.048 457.545H302.739V468.881C302.739 470.153 302.435 471.267 301.827 472.222C301.224 473.176 300.381 473.92 299.295 474.455C298.21 474.983 296.946 475.247 295.503 475.247C294.054 475.247 292.787 474.983 291.702 474.455C290.616 473.92 289.773 473.176 289.17 472.222C288.568 471.267 288.267 470.153 288.267 468.881V457.545H291.957V468.565C291.957 469.23 292.102 469.821 292.392 470.338C292.688 470.855 293.102 471.261 293.636 471.557C294.17 471.852 294.793 472 295.503 472C296.219 472 296.841 471.852 297.369 471.557C297.903 471.261 298.315 470.855 298.605 470.338C298.901 469.821 299.048 469.23 299.048 468.565V457.545ZM305.707 479.909V461.909H309.286V464.108H309.448C309.607 463.756 309.837 463.398 310.138 463.034C310.445 462.665 310.843 462.358 311.332 462.114C311.826 461.864 312.44 461.739 313.173 461.739C314.127 461.739 315.008 461.989 315.815 462.489C316.621 462.983 317.266 463.73 317.749 464.73C318.232 465.724 318.474 466.972 318.474 468.472C318.474 469.932 318.238 471.165 317.766 472.17C317.3 473.17 316.664 473.929 315.857 474.446C315.056 474.957 314.158 475.213 313.164 475.213C312.46 475.213 311.86 475.097 311.366 474.864C310.877 474.631 310.477 474.338 310.164 473.986C309.852 473.628 309.613 473.267 309.448 472.903H309.337V479.909H305.707ZM309.261 468.455C309.261 469.233 309.369 469.912 309.585 470.491C309.8 471.071 310.113 471.523 310.522 471.847C310.931 472.165 311.428 472.324 312.013 472.324C312.604 472.324 313.104 472.162 313.513 471.838C313.923 471.509 314.232 471.054 314.442 470.474C314.658 469.889 314.766 469.216 314.766 468.455C314.766 467.699 314.661 467.034 314.451 466.46C314.241 465.886 313.931 465.437 313.522 465.114C313.113 464.79 312.61 464.628 312.013 464.628C311.423 464.628 310.923 464.784 310.513 465.097C310.11 465.409 309.8 465.852 309.585 466.426C309.369 467 309.261 467.676 309.261 468.455Z" fill="white"/>
<defs>
<linearGradient id="paint0_linear_233_176" x1="19.987" y1="223.249" x2="462.172" y2="859.753" gradientUnits="userSpaceOnUse">
<stop stop-color="#82B7EE"/>
<stop offset="1" stop-color="#F5AA8F"/>
</linearGradient>
</defs>
</svg>
