<svg width="428" height="926" viewBox="0 0 428 926" fill="none" xmlns="http://www.w3.org/2000/svg">
<rect width="428" height="926" rx="32" fill="white"/>
<path d="M347 30.55C348.977 28.9037 351.468 28.0021 354.04 28.0021C356.612 28.0021 359.103 28.9037 361.08 30.55" stroke="black" stroke-width="2" stroke-linecap="round" stroke-linejoin="round"/>
<path d="M343.42 27C346.342 24.4239 350.104 23.0026 354 23.0026C357.896 23.0026 361.658 24.4239 364.58 27" stroke="black" stroke-width="2" stroke-linecap="round" stroke-linejoin="round"/>
<path d="M350.53 34.11C351.545 33.3888 352.76 33.0013 354.005 33.0013C355.25 33.0013 356.465 33.3888 357.48 34.11" stroke="black" stroke-width="2" stroke-linecap="round" stroke-linejoin="round"/>
<path d="M354 38H354.01" stroke="black" stroke-width="2" stroke-linecap="round" stroke-linejoin="round"/>
<path d="M392 24H378C376.895 24 376 24.8954 376 26V34C376 35.1046 376.895 36 378 36H392C393.105 36 394 35.1046 394 34V26C394 24.8954 393.105 24 392 24Z" fill="black"/>
<path d="M395 31V29" stroke="black" stroke-width="2" stroke-linecap="round" stroke-linejoin="round"/>
<path d="M321 38V28" stroke="black" stroke-width="2" stroke-linecap="round" stroke-linejoin="round"/>
<path d="M327 38V22" stroke="black" stroke-width="2" stroke-linecap="round" stroke-linejoin="round"/>
<path d="M315 38V34" stroke="black" stroke-width="2" stroke-linecap="round" stroke-linejoin="round"/>
<path d="M27.9432 24.5455V42H25.8295V26.7614H25.7273L21.4659 29.5909V27.4432L25.8295 24.5455H27.9432ZM38.6562 42.2386C37.3722 42.2386 36.2784 41.8892 35.375 41.1903C34.4716 40.4858 33.7813 39.4659 33.304 38.1307C32.8267 36.7898 32.5881 35.1705 32.5881 33.2727C32.5881 31.3864 32.8267 29.7756 33.304 28.4403C33.7869 27.0994 34.4801 26.0767 35.3835 25.3722C36.2926 24.6619 37.3835 24.3068 38.6562 24.3068C39.929 24.3068 41.017 24.6619 41.9205 25.3722C42.8295 26.0767 43.5227 27.0994 44 28.4403C44.483 29.7756 44.7244 31.3864 44.7244 33.2727C44.7244 35.1705 44.4858 36.7898 44.0085 38.1307C43.5312 39.4659 42.8409 40.4858 41.9375 41.1903C41.0341 41.8892 39.9403 42.2386 38.6562 42.2386ZM38.6562 40.3636C39.929 40.3636 40.9176 39.75 41.6222 38.5227C42.3267 37.2955 42.679 35.5455 42.679 33.2727C42.679 31.7614 42.517 30.4744 42.1932 29.4119C41.875 28.3494 41.4148 27.5398 40.8125 26.983C40.2159 26.4261 39.4972 26.1477 38.6562 26.1477C37.3949 26.1477 36.4091 26.7699 35.6989 28.0142C34.9886 29.2528 34.6335 31.0057 34.6335 33.2727C34.6335 34.7841 34.7926 36.0682 35.1108 37.125C35.429 38.1818 35.8864 38.9858 36.483 39.5369C37.0852 40.0881 37.8097 40.3636 38.6562 40.3636ZM49.4631 39.767C49.0426 39.767 48.6818 39.6165 48.3807 39.3153C48.0795 39.0142 47.929 38.6534 47.929 38.233C47.929 37.8125 48.0795 37.4517 48.3807 37.1506C48.6818 36.8494 49.0426 36.6989 49.4631 36.6989C49.8835 36.6989 50.2443 36.8494 50.5455 37.1506C50.8466 37.4517 50.9972 37.8125 50.9972 38.233C50.9972 38.5114 50.9261 38.767 50.7841 39C50.6477 39.233 50.4631 39.4205 50.2301 39.5625C50.0028 39.6989 49.7472 39.767 49.4631 39.767ZM49.4631 30.9375C49.0426 30.9375 48.6818 30.7869 48.3807 30.4858C48.0795 30.1847 47.929 29.8239 47.929 29.4034C47.929 28.983 48.0795 28.6222 48.3807 28.321C48.6818 28.0199 49.0426 27.8693 49.4631 27.8693C49.8835 27.8693 50.2443 28.0199 50.5455 28.321C50.8466 28.6222 50.9972 28.983 50.9972 29.4034C50.9972 29.6818 50.9261 29.9375 50.7841 30.1705C50.6477 30.4034 50.4631 30.5909 50.2301 30.733C50.0028 30.8693 49.7472 30.9375 49.4631 30.9375ZM60.2656 42.2386C58.9815 42.2386 57.8878 41.8892 56.9844 41.1903C56.081 40.4858 55.3906 39.4659 54.9134 38.1307C54.4361 36.7898 54.1974 35.1705 54.1974 33.2727C54.1974 31.3864 54.4361 29.7756 54.9134 28.4403C55.3963 27.0994 56.0895 26.0767 56.9929 25.3722C57.902 24.6619 58.9929 24.3068 60.2656 24.3068C61.5384 24.3068 62.6264 24.6619 63.5298 25.3722C64.4389 26.0767 65.1321 27.0994 65.6094 28.4403C66.0923 29.7756 66.3338 31.3864 66.3338 33.2727C66.3338 35.1705 66.0952 36.7898 65.6179 38.1307C65.1406 39.4659 64.4503 40.4858 63.5469 41.1903C62.6435 41.8892 61.5497 42.2386 60.2656 42.2386ZM60.2656 40.3636C61.5384 40.3636 62.527 39.75 63.2315 38.5227C63.9361 37.2955 64.2884 35.5455 64.2884 33.2727C64.2884 31.7614 64.1264 30.4744 63.8026 29.4119C63.4844 28.3494 63.0241 27.5398 62.4219 26.983C61.8253 26.4261 61.1065 26.1477 60.2656 26.1477C59.0043 26.1477 58.0185 26.7699 57.3082 28.0142C56.598 29.2528 56.2429 31.0057 56.2429 33.2727C56.2429 34.7841 56.402 36.0682 56.7202 37.125C57.0384 38.1818 57.4957 38.9858 58.0923 39.5369C58.6946 40.0881 59.419 40.3636 60.2656 40.3636ZM75.2656 42.2386C73.9815 42.2386 72.8878 41.8892 71.9844 41.1903C71.081 40.4858 70.3906 39.4659 69.9134 38.1307C69.4361 36.7898 69.1974 35.1705 69.1974 33.2727C69.1974 31.3864 69.4361 29.7756 69.9134 28.4403C70.3963 27.0994 71.0895 26.0767 71.9929 25.3722C72.902 24.6619 73.9929 24.3068 75.2656 24.3068C76.5384 24.3068 77.6264 24.6619 78.5298 25.3722C79.4389 26.0767 80.1321 27.0994 80.6094 28.4403C81.0923 29.7756 81.3338 31.3864 81.3338 33.2727C81.3338 35.1705 81.0952 36.7898 80.6179 38.1307C80.1406 39.4659 79.4503 40.4858 78.5469 41.1903C77.6435 41.8892 76.5497 42.2386 75.2656 42.2386ZM75.2656 40.3636C76.5384 40.3636 77.527 39.75 78.2315 38.5227C78.9361 37.2955 79.2884 35.5455 79.2884 33.2727C79.2884 31.7614 79.1264 30.4744 78.8026 29.4119C78.4844 28.3494 78.0241 27.5398 77.4219 26.983C76.8253 26.4261 76.1065 26.1477 75.2656 26.1477C74.0043 26.1477 73.0185 26.7699 72.3082 28.0142C71.598 29.2528 71.2429 31.0057 71.2429 33.2727C71.2429 34.7841 71.402 36.0682 71.7202 37.125C72.0384 38.1818 72.4957 38.9858 73.0923 39.5369C73.6946 40.0881 74.419 40.3636 75.2656 40.3636Z" fill="black"/>
<path d="M428 892.053V111C423.172 168.76 367.446 197 308.992 200.25L82.9848 202.378C24.6441 208.696 3.35296 261.793 0 287.552V900.944C0 914.782 11.2178 926 25.0557 926H396C413.673 926 428 911.672 428 893.999V892.053Z" fill="url(#paint0_linear_231_313)"/>
<path d="M122.918 120.656H119.185C119.116 120.173 118.977 119.744 118.767 119.369C118.557 118.989 118.287 118.665 117.957 118.398C117.628 118.131 117.247 117.926 116.815 117.784C116.389 117.642 115.926 117.571 115.426 117.571C114.523 117.571 113.736 117.795 113.065 118.244C112.395 118.687 111.875 119.335 111.506 120.188C111.136 121.034 110.952 122.062 110.952 123.273C110.952 124.517 111.136 125.562 111.506 126.409C111.881 127.256 112.403 127.895 113.074 128.327C113.744 128.759 114.52 128.974 115.401 128.974C115.895 128.974 116.352 128.909 116.773 128.778C117.199 128.648 117.577 128.457 117.906 128.207C118.236 127.952 118.509 127.642 118.724 127.278C118.946 126.915 119.099 126.5 119.185 126.034L122.918 126.051C122.821 126.852 122.58 127.625 122.193 128.369C121.813 129.108 121.298 129.77 120.651 130.355C120.009 130.935 119.241 131.395 118.349 131.736C117.463 132.071 116.46 132.239 115.341 132.239C113.784 132.239 112.392 131.886 111.165 131.182C109.943 130.477 108.977 129.457 108.267 128.122C107.562 126.787 107.21 125.17 107.21 123.273C107.21 121.369 107.568 119.75 108.284 118.415C109 117.08 109.972 116.062 111.199 115.364C112.426 114.659 113.807 114.307 115.341 114.307C116.352 114.307 117.29 114.449 118.153 114.733C119.023 115.017 119.793 115.432 120.463 115.977C121.134 116.517 121.679 117.179 122.099 117.963C122.526 118.747 122.798 119.645 122.918 120.656ZM129.126 124.432V132H125.496V114.545H129.024V121.219H129.178C129.473 120.446 129.95 119.841 130.609 119.403C131.268 118.96 132.095 118.739 133.089 118.739C133.999 118.739 134.791 118.938 135.467 119.335C136.149 119.727 136.678 120.293 137.053 121.031C137.433 121.764 137.621 122.642 137.615 123.665V132H133.984V124.312C133.99 123.506 133.786 122.878 133.371 122.429C132.962 121.98 132.388 121.756 131.649 121.756C131.155 121.756 130.717 121.861 130.337 122.071C129.962 122.281 129.666 122.588 129.45 122.991C129.24 123.389 129.132 123.869 129.126 124.432ZM146.387 132.256C145.063 132.256 143.918 131.974 142.952 131.412C141.992 130.844 141.251 130.054 140.728 129.043C140.205 128.026 139.944 126.847 139.944 125.506C139.944 124.153 140.205 122.972 140.728 121.96C141.251 120.943 141.992 120.153 142.952 119.591C143.918 119.023 145.063 118.739 146.387 118.739C147.711 118.739 148.853 119.023 149.813 119.591C150.779 120.153 151.523 120.943 152.046 121.96C152.569 122.972 152.83 124.153 152.83 125.506C152.83 126.847 152.569 128.026 152.046 129.043C151.523 130.054 150.779 130.844 149.813 131.412C148.853 131.974 147.711 132.256 146.387 132.256ZM146.404 129.443C147.006 129.443 147.509 129.273 147.913 128.932C148.316 128.585 148.62 128.114 148.825 127.517C149.035 126.92 149.14 126.241 149.14 125.48C149.14 124.719 149.035 124.04 148.825 123.443C148.62 122.847 148.316 122.375 147.913 122.028C147.509 121.682 147.006 121.509 146.404 121.509C145.796 121.509 145.285 121.682 144.87 122.028C144.461 122.375 144.151 122.847 143.941 123.443C143.737 124.04 143.634 124.719 143.634 125.48C143.634 126.241 143.737 126.92 143.941 127.517C144.151 128.114 144.461 128.585 144.87 128.932C145.285 129.273 145.796 129.443 146.404 129.443ZM161.106 132.256C159.782 132.256 158.637 131.974 157.671 131.412C156.711 130.844 155.969 130.054 155.447 129.043C154.924 128.026 154.663 126.847 154.663 125.506C154.663 124.153 154.924 122.972 155.447 121.96C155.969 120.943 156.711 120.153 157.671 119.591C158.637 119.023 159.782 118.739 161.106 118.739C162.43 118.739 163.572 119.023 164.532 119.591C165.498 120.153 166.242 120.943 166.765 121.96C167.288 122.972 167.549 124.153 167.549 125.506C167.549 126.847 167.288 128.026 166.765 129.043C166.242 130.054 165.498 130.844 164.532 131.412C163.572 131.974 162.43 132.256 161.106 132.256ZM161.123 129.443C161.725 129.443 162.228 129.273 162.631 128.932C163.035 128.585 163.339 128.114 163.543 127.517C163.754 126.92 163.859 126.241 163.859 125.48C163.859 124.719 163.754 124.04 163.543 123.443C163.339 122.847 163.035 122.375 162.631 122.028C162.228 121.682 161.725 121.509 161.123 121.509C160.515 121.509 160.004 121.682 159.589 122.028C159.18 122.375 158.87 122.847 158.66 123.443C158.455 124.04 158.353 124.719 158.353 125.48C158.353 126.241 158.455 126.92 158.66 127.517C158.87 128.114 159.18 128.585 159.589 128.932C160.004 129.273 160.515 129.443 161.123 129.443ZM180.802 122.642L177.478 122.847C177.421 122.562 177.299 122.307 177.112 122.08C176.924 121.847 176.677 121.662 176.37 121.526C176.069 121.384 175.708 121.312 175.288 121.312C174.725 121.312 174.251 121.432 173.864 121.67C173.478 121.903 173.285 122.216 173.285 122.608C173.285 122.92 173.41 123.185 173.66 123.401C173.91 123.616 174.339 123.79 174.947 123.92L177.316 124.398C178.589 124.659 179.538 125.08 180.163 125.659C180.788 126.239 181.1 127 181.1 127.943C181.1 128.801 180.847 129.554 180.342 130.202C179.842 130.849 179.154 131.355 178.279 131.719C177.41 132.077 176.407 132.256 175.271 132.256C173.538 132.256 172.157 131.895 171.129 131.173C170.106 130.446 169.506 129.457 169.33 128.207L172.901 128.02C173.009 128.548 173.271 128.952 173.685 129.23C174.1 129.503 174.631 129.639 175.279 129.639C175.915 129.639 176.427 129.517 176.813 129.273C177.205 129.023 177.404 128.702 177.41 128.31C177.404 127.98 177.265 127.71 176.992 127.5C176.719 127.284 176.299 127.119 175.731 127.006L173.464 126.554C172.185 126.298 171.234 125.855 170.609 125.224C169.989 124.594 169.68 123.79 169.68 122.812C169.68 121.972 169.907 121.247 170.362 120.639C170.822 120.031 171.467 119.562 172.296 119.233C173.131 118.903 174.109 118.739 175.228 118.739C176.881 118.739 178.183 119.088 179.131 119.787C180.086 120.486 180.643 121.437 180.802 122.642ZM189.352 132.256C188.006 132.256 186.847 131.983 185.875 131.438C184.909 130.886 184.165 130.108 183.642 129.102C183.119 128.091 182.858 126.895 182.858 125.514C182.858 124.168 183.119 122.986 183.642 121.969C184.165 120.952 184.901 120.159 185.849 119.591C186.804 119.023 187.923 118.739 189.207 118.739C190.071 118.739 190.875 118.878 191.619 119.156C192.369 119.429 193.023 119.841 193.58 120.392C194.142 120.943 194.58 121.636 194.892 122.472C195.205 123.301 195.361 124.273 195.361 125.386V126.384H184.307V124.134H191.943C191.943 123.611 191.83 123.148 191.602 122.744C191.375 122.341 191.06 122.026 190.656 121.798C190.259 121.565 189.795 121.449 189.267 121.449C188.716 121.449 188.227 121.577 187.801 121.832C187.381 122.082 187.051 122.42 186.812 122.847C186.574 123.267 186.452 123.736 186.446 124.253V126.392C186.446 127.04 186.565 127.599 186.804 128.071C187.048 128.543 187.392 128.906 187.835 129.162C188.278 129.418 188.804 129.545 189.412 129.545C189.815 129.545 190.185 129.489 190.52 129.375C190.855 129.261 191.142 129.091 191.381 128.864C191.619 128.636 191.801 128.358 191.926 128.028L195.284 128.25C195.114 129.057 194.764 129.761 194.236 130.364C193.713 130.96 193.037 131.426 192.207 131.761C191.384 132.091 190.432 132.256 189.352 132.256ZM214.134 114.545H217.825V125.881C217.825 127.153 217.521 128.267 216.913 129.222C216.31 130.176 215.467 130.92 214.381 131.455C213.296 131.983 212.032 132.247 210.589 132.247C209.14 132.247 207.873 131.983 206.788 131.455C205.702 130.92 204.859 130.176 204.256 129.222C203.654 128.267 203.353 127.153 203.353 125.881V114.545H207.043V125.565C207.043 126.23 207.188 126.821 207.478 127.338C207.773 127.855 208.188 128.261 208.722 128.557C209.256 128.852 209.879 129 210.589 129C211.305 129 211.927 128.852 212.455 128.557C212.989 128.261 213.401 127.855 213.691 127.338C213.987 126.821 214.134 126.23 214.134 125.565V114.545ZM231.685 122.642L228.361 122.847C228.304 122.562 228.182 122.307 227.994 122.08C227.807 121.847 227.56 121.662 227.253 121.526C226.952 121.384 226.591 121.312 226.17 121.312C225.608 121.312 225.134 121.432 224.747 121.67C224.361 121.903 224.168 122.216 224.168 122.608C224.168 122.92 224.293 123.185 224.543 123.401C224.793 123.616 225.222 123.79 225.83 123.92L228.199 124.398C229.472 124.659 230.42 125.08 231.045 125.659C231.67 126.239 231.983 127 231.983 127.943C231.983 128.801 231.73 129.554 231.224 130.202C230.724 130.849 230.037 131.355 229.162 131.719C228.293 132.077 227.29 132.256 226.153 132.256C224.42 132.256 223.04 131.895 222.011 131.173C220.989 130.446 220.389 129.457 220.213 128.207L223.784 128.02C223.892 128.548 224.153 128.952 224.568 129.23C224.983 129.503 225.514 129.639 226.162 129.639C226.798 129.639 227.31 129.517 227.696 129.273C228.088 129.023 228.287 128.702 228.293 128.31C228.287 127.98 228.148 127.71 227.875 127.5C227.602 127.284 227.182 127.119 226.614 127.006L224.347 126.554C223.068 126.298 222.116 125.855 221.491 125.224C220.872 124.594 220.562 123.79 220.562 122.812C220.562 121.972 220.79 121.247 221.244 120.639C221.705 120.031 222.349 119.562 223.179 119.233C224.014 118.903 224.991 118.739 226.111 118.739C227.764 118.739 229.065 119.088 230.014 119.787C230.969 120.486 231.526 121.437 231.685 122.642ZM240.235 132.256C238.888 132.256 237.729 131.983 236.758 131.438C235.792 130.886 235.048 130.108 234.525 129.102C234.002 128.091 233.741 126.895 233.741 125.514C233.741 124.168 234.002 122.986 234.525 121.969C235.048 120.952 235.783 120.159 236.732 119.591C237.687 119.023 238.806 118.739 240.09 118.739C240.954 118.739 241.758 118.878 242.502 119.156C243.252 119.429 243.906 119.841 244.462 120.392C245.025 120.943 245.462 121.636 245.775 122.472C246.087 123.301 246.244 124.273 246.244 125.386V126.384H235.19V124.134H242.826C242.826 123.611 242.712 123.148 242.485 122.744C242.258 122.341 241.942 122.026 241.539 121.798C241.141 121.565 240.678 121.449 240.15 121.449C239.599 121.449 239.11 121.577 238.684 121.832C238.263 122.082 237.934 122.42 237.695 122.847C237.457 123.267 237.335 123.736 237.329 124.253V126.392C237.329 127.04 237.448 127.599 237.687 128.071C237.931 128.543 238.275 128.906 238.718 129.162C239.161 129.418 239.687 129.545 240.295 129.545C240.698 129.545 241.067 129.489 241.403 129.375C241.738 129.261 242.025 129.091 242.263 128.864C242.502 128.636 242.684 128.358 242.809 128.028L246.167 128.25C245.996 129.057 245.647 129.761 245.119 130.364C244.596 130.96 243.92 131.426 243.09 131.761C242.266 132.091 241.315 132.256 240.235 132.256ZM248.613 132V118.909H252.133V121.193H252.269C252.508 120.381 252.908 119.767 253.471 119.352C254.033 118.932 254.681 118.722 255.414 118.722C255.596 118.722 255.792 118.733 256.002 118.756C256.212 118.778 256.397 118.81 256.556 118.849V122.071C256.386 122.02 256.15 121.974 255.849 121.935C255.548 121.895 255.272 121.875 255.022 121.875C254.488 121.875 254.011 121.991 253.59 122.224C253.175 122.452 252.846 122.77 252.602 123.179C252.363 123.588 252.244 124.06 252.244 124.594V132H248.613ZM262.064 124.432V132H258.433V118.909H261.893V121.219H262.047C262.337 120.457 262.822 119.855 263.504 119.412C264.186 118.963 265.013 118.739 265.984 118.739C266.893 118.739 267.686 118.938 268.362 119.335C269.038 119.733 269.564 120.301 269.939 121.04C270.314 121.773 270.501 122.648 270.501 123.665V132H266.871V124.312C266.876 123.511 266.672 122.886 266.257 122.438C265.842 121.983 265.271 121.756 264.544 121.756C264.055 121.756 263.624 121.861 263.249 122.071C262.879 122.281 262.589 122.588 262.379 122.991C262.175 123.389 262.07 123.869 262.064 124.432ZM277.096 132.247C276.261 132.247 275.516 132.102 274.863 131.812C274.21 131.517 273.692 131.082 273.312 130.509C272.937 129.929 272.749 129.207 272.749 128.344C272.749 127.616 272.883 127.006 273.15 126.511C273.417 126.017 273.781 125.619 274.241 125.318C274.701 125.017 275.224 124.79 275.809 124.636C276.4 124.483 277.019 124.375 277.667 124.312C278.428 124.233 279.042 124.159 279.508 124.091C279.974 124.017 280.312 123.909 280.522 123.767C280.732 123.625 280.837 123.415 280.837 123.136V123.085C280.837 122.545 280.667 122.128 280.326 121.832C279.991 121.537 279.513 121.389 278.894 121.389C278.241 121.389 277.721 121.534 277.335 121.824C276.948 122.108 276.692 122.466 276.567 122.898L273.21 122.625C273.38 121.83 273.715 121.142 274.215 120.562C274.715 119.977 275.36 119.528 276.15 119.216C276.945 118.898 277.866 118.739 278.911 118.739C279.638 118.739 280.335 118.824 280.999 118.994C281.67 119.165 282.263 119.429 282.781 119.787C283.303 120.145 283.715 120.605 284.016 121.168C284.317 121.724 284.468 122.392 284.468 123.17V132H281.025V130.185H280.923C280.712 130.594 280.431 130.955 280.079 131.267C279.727 131.574 279.303 131.815 278.809 131.991C278.315 132.162 277.744 132.247 277.096 132.247ZM278.136 129.741C278.67 129.741 279.141 129.636 279.55 129.426C279.96 129.21 280.281 128.92 280.513 128.557C280.746 128.193 280.863 127.781 280.863 127.321V125.932C280.749 126.006 280.593 126.074 280.394 126.136C280.201 126.193 279.982 126.247 279.738 126.298C279.494 126.344 279.249 126.386 279.005 126.426C278.761 126.46 278.539 126.491 278.34 126.52C277.914 126.582 277.542 126.682 277.224 126.818C276.906 126.955 276.658 127.139 276.482 127.372C276.306 127.599 276.218 127.884 276.218 128.224C276.218 128.719 276.397 129.097 276.755 129.358C277.119 129.614 277.579 129.741 278.136 129.741ZM287.285 132V118.909H290.745V121.219H290.898C291.171 120.452 291.626 119.847 292.262 119.403C292.898 118.96 293.66 118.739 294.546 118.739C295.444 118.739 296.208 118.963 296.839 119.412C297.469 119.855 297.89 120.457 298.1 121.219H298.237C298.504 120.469 298.987 119.869 299.685 119.42C300.39 118.966 301.222 118.739 302.183 118.739C303.404 118.739 304.396 119.128 305.157 119.906C305.924 120.679 306.308 121.776 306.308 123.196V132H302.685V123.912C302.685 123.185 302.492 122.639 302.106 122.276C301.719 121.912 301.237 121.73 300.657 121.73C299.998 121.73 299.484 121.94 299.114 122.361C298.745 122.776 298.56 123.324 298.56 124.006V132H295.04V123.835C295.04 123.193 294.856 122.682 294.487 122.301C294.123 121.92 293.643 121.73 293.046 121.73C292.643 121.73 292.279 121.832 291.955 122.037C291.637 122.236 291.384 122.517 291.197 122.881C291.009 123.239 290.915 123.659 290.915 124.142V132H287.285ZM315.141 132.256C313.795 132.256 312.636 131.983 311.664 131.438C310.698 130.886 309.954 130.108 309.431 129.102C308.908 128.091 308.647 126.895 308.647 125.514C308.647 124.168 308.908 122.986 309.431 121.969C309.954 120.952 310.69 120.159 311.638 119.591C312.593 119.023 313.712 118.739 314.996 118.739C315.86 118.739 316.664 118.878 317.408 119.156C318.158 119.429 318.812 119.841 319.369 120.392C319.931 120.943 320.369 121.636 320.681 122.472C320.994 123.301 321.15 124.273 321.15 125.386V126.384H310.096V124.134H317.732C317.732 123.611 317.619 123.148 317.391 122.744C317.164 122.341 316.849 122.026 316.445 121.798C316.048 121.565 315.585 121.449 315.056 121.449C314.505 121.449 314.016 121.577 313.59 121.832C313.17 122.082 312.84 122.42 312.602 122.847C312.363 123.267 312.241 123.736 312.235 124.253V126.392C312.235 127.04 312.354 127.599 312.593 128.071C312.837 128.543 313.181 128.906 313.624 129.162C314.067 129.418 314.593 129.545 315.201 129.545C315.604 129.545 315.974 129.489 316.309 129.375C316.644 129.261 316.931 129.091 317.17 128.864C317.408 128.636 317.59 128.358 317.715 128.028L321.073 128.25C320.903 129.057 320.553 129.761 320.025 130.364C319.502 130.96 318.826 131.426 317.996 131.761C317.173 132.091 316.221 132.256 315.141 132.256Z" fill="black"/>
<path d="M96.3807 153.364H98.375L101.415 158.653H101.54L104.58 153.364H106.574L102.352 160.432V165H100.602V160.432L96.3807 153.364ZM110.334 165.176C109.516 165.176 108.802 164.989 108.192 164.614C107.582 164.239 107.108 163.714 106.771 163.04C106.434 162.366 106.266 161.578 106.266 160.676C106.266 159.771 106.434 158.979 106.771 158.301C107.108 157.623 107.582 157.097 108.192 156.722C108.802 156.347 109.516 156.159 110.334 156.159C111.152 156.159 111.866 156.347 112.476 156.722C113.086 157.097 113.559 157.623 113.896 158.301C114.233 158.979 114.402 159.771 114.402 160.676C114.402 161.578 114.233 162.366 113.896 163.04C113.559 163.714 113.086 164.239 112.476 164.614C111.866 164.989 111.152 165.176 110.334 165.176ZM110.339 163.75C110.87 163.75 111.309 163.61 111.658 163.33C112.006 163.049 112.264 162.676 112.43 162.21C112.601 161.744 112.686 161.231 112.686 160.67C112.686 160.114 112.601 159.602 112.43 159.136C112.264 158.667 112.006 158.29 111.658 158.006C111.309 157.722 110.87 157.58 110.339 157.58C109.805 157.58 109.362 157.722 109.01 158.006C108.661 158.29 108.402 158.667 108.232 159.136C108.065 159.602 107.982 160.114 107.982 160.67C107.982 161.231 108.065 161.744 108.232 162.21C108.402 162.676 108.661 163.049 109.01 163.33C109.362 163.61 109.805 163.75 110.339 163.75ZM121.827 161.381V156.273H123.531V165H121.861V163.489H121.77C121.569 163.955 121.247 164.343 120.804 164.653C120.365 164.96 119.817 165.114 119.162 165.114C118.601 165.114 118.105 164.991 117.673 164.744C117.245 164.494 116.908 164.125 116.662 163.636C116.42 163.148 116.298 162.544 116.298 161.824V156.273H117.997V161.619C117.997 162.214 118.162 162.687 118.491 163.04C118.821 163.392 119.249 163.568 119.776 163.568C120.094 163.568 120.41 163.489 120.724 163.33C121.043 163.17 121.306 162.93 121.514 162.608C121.726 162.286 121.83 161.877 121.827 161.381ZM133.724 165.176C132.88 165.176 132.152 164.985 131.543 164.602C130.937 164.216 130.471 163.684 130.145 163.006C129.819 162.328 129.656 161.551 129.656 160.676C129.656 159.79 129.823 159.008 130.156 158.33C130.49 157.648 130.959 157.116 131.565 156.733C132.171 156.35 132.885 156.159 133.707 156.159C134.37 156.159 134.961 156.282 135.48 156.528C135.999 156.771 136.418 157.112 136.736 157.551C137.058 157.991 137.249 158.504 137.31 159.091H135.656C135.565 158.682 135.357 158.33 135.031 158.034C134.709 157.739 134.277 157.591 133.736 157.591C133.262 157.591 132.848 157.716 132.491 157.966C132.139 158.212 131.865 158.564 131.668 159.023C131.471 159.477 131.372 160.015 131.372 160.636C131.372 161.273 131.469 161.822 131.662 162.284C131.855 162.746 132.128 163.104 132.48 163.358C132.836 163.612 133.255 163.739 133.736 163.739C134.058 163.739 134.349 163.68 134.611 163.562C134.876 163.441 135.098 163.269 135.276 163.045C135.457 162.822 135.584 162.553 135.656 162.239H137.31C137.249 162.803 137.065 163.307 136.759 163.75C136.452 164.193 136.041 164.542 135.526 164.795C135.014 165.049 134.414 165.176 133.724 165.176ZM141.666 165.193C141.113 165.193 140.613 165.091 140.166 164.886C139.719 164.678 139.365 164.377 139.104 163.983C138.846 163.589 138.717 163.106 138.717 162.534C138.717 162.042 138.812 161.636 139.001 161.318C139.191 161 139.446 160.748 139.768 160.562C140.09 160.377 140.45 160.237 140.848 160.142C141.246 160.047 141.651 159.975 142.064 159.926C142.587 159.866 143.011 159.816 143.337 159.778C143.662 159.737 143.899 159.67 144.047 159.58C144.195 159.489 144.268 159.341 144.268 159.136V159.097C144.268 158.6 144.128 158.216 143.848 157.943C143.571 157.67 143.159 157.534 142.609 157.534C142.037 157.534 141.587 157.661 141.257 157.915C140.931 158.165 140.706 158.443 140.581 158.75L138.984 158.386C139.174 157.856 139.45 157.428 139.814 157.102C140.181 156.773 140.604 156.534 141.081 156.386C141.558 156.235 142.06 156.159 142.587 156.159C142.935 156.159 143.304 156.201 143.695 156.284C144.089 156.364 144.456 156.511 144.797 156.727C145.142 156.943 145.424 157.252 145.643 157.653C145.863 158.051 145.973 158.568 145.973 159.205V165H144.314V163.807H144.246C144.136 164.027 143.971 164.242 143.751 164.455C143.532 164.667 143.25 164.843 142.905 164.983C142.56 165.123 142.147 165.193 141.666 165.193ZM142.036 163.83C142.505 163.83 142.907 163.737 143.24 163.551C143.577 163.366 143.833 163.123 144.007 162.824C144.185 162.521 144.274 162.197 144.274 161.852V160.727C144.214 160.788 144.096 160.845 143.922 160.898C143.751 160.947 143.556 160.991 143.337 161.028C143.117 161.062 142.903 161.095 142.695 161.125C142.486 161.152 142.312 161.174 142.172 161.193C141.842 161.235 141.541 161.305 141.268 161.403C141 161.502 140.784 161.644 140.621 161.83C140.462 162.011 140.382 162.254 140.382 162.557C140.382 162.977 140.537 163.295 140.848 163.511C141.159 163.723 141.554 163.83 142.036 163.83ZM149.935 159.818V165H148.236V156.273H149.866V157.693H149.974C150.175 157.231 150.49 156.86 150.918 156.58C151.349 156.299 151.893 156.159 152.548 156.159C153.143 156.159 153.664 156.284 154.111 156.534C154.558 156.78 154.904 157.148 155.151 157.636C155.397 158.125 155.52 158.729 155.52 159.449V165H153.821V159.653C153.821 159.021 153.656 158.527 153.327 158.17C152.997 157.811 152.545 157.631 151.969 157.631C151.575 157.631 151.224 157.716 150.918 157.886C150.615 158.057 150.374 158.307 150.196 158.636C150.022 158.962 149.935 159.356 149.935 159.818ZM164.572 165.193C164.019 165.193 163.519 165.091 163.072 164.886C162.625 164.678 162.271 164.377 162.01 163.983C161.752 163.589 161.624 163.106 161.624 162.534C161.624 162.042 161.718 161.636 161.908 161.318C162.097 161 162.353 160.748 162.675 160.562C162.997 160.377 163.357 160.237 163.754 160.142C164.152 160.047 164.557 159.975 164.97 159.926C165.493 159.866 165.917 159.816 166.243 159.778C166.569 159.737 166.805 159.67 166.953 159.58C167.101 159.489 167.175 159.341 167.175 159.136V159.097C167.175 158.6 167.035 158.216 166.754 157.943C166.478 157.67 166.065 157.534 165.516 157.534C164.944 157.534 164.493 157.661 164.163 157.915C163.838 158.165 163.612 158.443 163.487 158.75L161.891 158.386C162.08 157.856 162.357 157.428 162.72 157.102C163.088 156.773 163.51 156.534 163.987 156.386C164.464 156.235 164.966 156.159 165.493 156.159C165.841 156.159 166.211 156.201 166.601 156.284C166.995 156.364 167.362 156.511 167.703 156.727C168.048 156.943 168.33 157.252 168.55 157.653C168.769 158.051 168.879 158.568 168.879 159.205V165H167.22V163.807H167.152C167.042 164.027 166.877 164.242 166.658 164.455C166.438 164.667 166.156 164.843 165.811 164.983C165.466 165.123 165.054 165.193 164.572 165.193ZM164.942 163.83C165.411 163.83 165.813 163.737 166.146 163.551C166.483 163.366 166.739 163.123 166.913 162.824C167.091 162.521 167.18 162.197 167.18 161.852V160.727C167.12 160.788 167.002 160.845 166.828 160.898C166.658 160.947 166.463 160.991 166.243 161.028C166.023 161.062 165.809 161.095 165.601 161.125C165.393 161.152 165.218 161.174 165.078 161.193C164.749 161.235 164.447 161.305 164.175 161.403C163.906 161.502 163.69 161.644 163.527 161.83C163.368 162.011 163.288 162.254 163.288 162.557C163.288 162.977 163.444 163.295 163.754 163.511C164.065 163.723 164.461 163.83 164.942 163.83ZM172.841 153.364V165H171.142V153.364H172.841ZM177.018 165L174.45 156.273H176.206L177.916 162.682H178.001L179.717 156.273H181.473L183.178 162.653H183.263L184.962 156.273H186.717L184.155 165H182.422L180.649 158.699H180.518L178.746 165H177.018ZM190.869 165.193C190.316 165.193 189.816 165.091 189.369 164.886C188.922 164.678 188.568 164.377 188.307 163.983C188.049 163.589 187.92 163.106 187.92 162.534C187.92 162.042 188.015 161.636 188.205 161.318C188.394 161 188.65 160.748 188.972 160.562C189.294 160.377 189.653 160.237 190.051 160.142C190.449 160.047 190.854 159.975 191.267 159.926C191.79 159.866 192.214 159.816 192.54 159.778C192.866 159.737 193.102 159.67 193.25 159.58C193.398 159.489 193.472 159.341 193.472 159.136V159.097C193.472 158.6 193.331 158.216 193.051 157.943C192.775 157.67 192.362 157.534 191.812 157.534C191.241 157.534 190.79 157.661 190.46 157.915C190.134 158.165 189.909 158.443 189.784 158.75L188.188 158.386C188.377 157.856 188.653 157.428 189.017 157.102C189.384 156.773 189.807 156.534 190.284 156.386C190.761 156.235 191.263 156.159 191.79 156.159C192.138 156.159 192.508 156.201 192.898 156.284C193.292 156.364 193.659 156.511 194 156.727C194.345 156.943 194.627 157.252 194.847 157.653C195.066 158.051 195.176 158.568 195.176 159.205V165H193.517V163.807H193.449C193.339 164.027 193.174 164.242 192.955 164.455C192.735 164.667 192.453 164.843 192.108 164.983C191.763 165.123 191.35 165.193 190.869 165.193ZM191.239 163.83C191.708 163.83 192.11 163.737 192.443 163.551C192.78 163.366 193.036 163.123 193.21 162.824C193.388 162.521 193.477 162.197 193.477 161.852V160.727C193.417 160.788 193.299 160.845 193.125 160.898C192.955 160.947 192.759 160.991 192.54 161.028C192.32 161.062 192.106 161.095 191.898 161.125C191.689 161.152 191.515 161.174 191.375 161.193C191.045 161.235 190.744 161.305 190.472 161.403C190.203 161.502 189.987 161.644 189.824 161.83C189.665 162.011 189.585 162.254 189.585 162.557C189.585 162.977 189.741 163.295 190.051 163.511C190.362 163.723 190.758 163.83 191.239 163.83ZM198.2 168.273C197.946 168.273 197.715 168.252 197.507 168.21C197.299 168.172 197.143 168.131 197.041 168.085L197.45 166.693C197.761 166.777 198.037 166.813 198.28 166.801C198.522 166.79 198.736 166.699 198.922 166.528C199.111 166.358 199.278 166.08 199.422 165.693L199.632 165.114L196.439 156.273H198.257L200.467 163.045H200.558L202.768 156.273H204.592L200.996 166.165C200.829 166.619 200.617 167.004 200.359 167.318C200.102 167.636 199.795 167.875 199.439 168.034C199.083 168.193 198.67 168.273 198.2 168.273ZM212.729 158.403L211.189 158.676C211.125 158.479 211.022 158.292 210.882 158.114C210.746 157.936 210.56 157.79 210.325 157.676C210.09 157.562 209.797 157.506 209.445 157.506C208.964 157.506 208.562 157.614 208.24 157.83C207.918 158.042 207.757 158.316 207.757 158.653C207.757 158.945 207.865 159.18 208.081 159.358C208.297 159.536 208.645 159.682 209.126 159.795L210.513 160.114C211.316 160.299 211.914 160.585 212.308 160.972C212.702 161.358 212.899 161.86 212.899 162.477C212.899 163 212.748 163.466 212.445 163.875C212.145 164.28 211.727 164.598 211.189 164.83C210.655 165.061 210.036 165.176 209.331 165.176C208.354 165.176 207.556 164.968 206.939 164.551C206.321 164.131 205.943 163.534 205.803 162.761L207.445 162.511C207.547 162.939 207.757 163.263 208.075 163.483C208.393 163.699 208.808 163.807 209.32 163.807C209.876 163.807 210.321 163.691 210.655 163.46C210.988 163.225 211.155 162.939 211.155 162.602C211.155 162.33 211.053 162.1 210.848 161.915C210.647 161.729 210.339 161.589 209.922 161.494L208.445 161.17C207.63 160.985 207.028 160.689 206.638 160.284C206.251 159.879 206.058 159.366 206.058 158.744C206.058 158.229 206.202 157.778 206.49 157.392C206.778 157.006 207.176 156.705 207.683 156.489C208.191 156.269 208.772 156.159 209.428 156.159C210.371 156.159 211.113 156.364 211.655 156.773C212.196 157.178 212.554 157.722 212.729 158.403ZM222.678 165.176C221.833 165.176 221.106 164.985 220.496 164.602C219.89 164.216 219.424 163.684 219.098 163.006C218.772 162.328 218.609 161.551 218.609 160.676C218.609 159.79 218.776 159.008 219.109 158.33C219.443 157.648 219.912 157.116 220.518 156.733C221.125 156.35 221.839 156.159 222.661 156.159C223.323 156.159 223.914 156.282 224.433 156.528C224.952 156.771 225.371 157.112 225.689 157.551C226.011 157.991 226.202 158.504 226.263 159.091H224.609C224.518 158.682 224.31 158.33 223.984 158.034C223.662 157.739 223.231 157.591 222.689 157.591C222.215 157.591 221.801 157.716 221.445 157.966C221.092 158.212 220.818 158.564 220.621 159.023C220.424 159.477 220.325 160.015 220.325 160.636C220.325 161.273 220.422 161.822 220.615 162.284C220.808 162.746 221.081 163.104 221.433 163.358C221.789 163.612 222.208 163.739 222.689 163.739C223.011 163.739 223.303 163.68 223.564 163.562C223.829 163.441 224.051 163.269 224.229 163.045C224.411 162.822 224.537 162.553 224.609 162.239H226.263C226.202 162.803 226.018 163.307 225.712 163.75C225.405 164.193 224.994 164.542 224.479 164.795C223.967 165.049 223.367 165.176 222.678 165.176ZM229.778 159.818V165H228.08V153.364H229.756V157.693H229.864C230.068 157.223 230.381 156.85 230.801 156.574C231.222 156.297 231.771 156.159 232.449 156.159C233.047 156.159 233.57 156.282 234.017 156.528C234.468 156.775 234.816 157.142 235.062 157.631C235.312 158.116 235.438 158.722 235.438 159.449V165H233.739V159.653C233.739 159.013 233.574 158.517 233.244 158.165C232.915 157.809 232.456 157.631 231.869 157.631C231.468 157.631 231.108 157.716 230.79 157.886C230.475 158.057 230.227 158.307 230.045 158.636C229.867 158.962 229.778 159.356 229.778 159.818ZM240.244 165.193C239.691 165.193 239.191 165.091 238.744 164.886C238.297 164.678 237.943 164.377 237.682 163.983C237.424 163.589 237.295 163.106 237.295 162.534C237.295 162.042 237.39 161.636 237.58 161.318C237.769 161 238.025 160.748 238.347 160.562C238.669 160.377 239.028 160.237 239.426 160.142C239.824 160.047 240.229 159.975 240.642 159.926C241.165 159.866 241.589 159.816 241.915 159.778C242.241 159.737 242.477 159.67 242.625 159.58C242.773 159.489 242.847 159.341 242.847 159.136V159.097C242.847 158.6 242.706 158.216 242.426 157.943C242.15 157.67 241.737 157.534 241.188 157.534C240.616 157.534 240.165 157.661 239.835 157.915C239.509 158.165 239.284 158.443 239.159 158.75L237.562 158.386C237.752 157.856 238.028 157.428 238.392 157.102C238.759 156.773 239.182 156.534 239.659 156.386C240.136 156.235 240.638 156.159 241.165 156.159C241.513 156.159 241.883 156.201 242.273 156.284C242.667 156.364 243.034 156.511 243.375 156.727C243.72 156.943 244.002 157.252 244.222 157.653C244.441 158.051 244.551 158.568 244.551 159.205V165H242.892V163.807H242.824C242.714 164.027 242.549 164.242 242.33 164.455C242.11 164.667 241.828 164.843 241.483 164.983C241.138 165.123 240.725 165.193 240.244 165.193ZM240.614 163.83C241.083 163.83 241.485 163.737 241.818 163.551C242.155 163.366 242.411 163.123 242.585 162.824C242.763 162.521 242.852 162.197 242.852 161.852V160.727C242.792 160.788 242.674 160.845 242.5 160.898C242.33 160.947 242.134 160.991 241.915 161.028C241.695 161.062 241.481 161.095 241.273 161.125C241.064 161.152 240.89 161.174 240.75 161.193C240.42 161.235 240.119 161.305 239.847 161.403C239.578 161.502 239.362 161.644 239.199 161.83C239.04 162.011 238.96 162.254 238.96 162.557C238.96 162.977 239.116 163.295 239.426 163.511C239.737 163.723 240.133 163.83 240.614 163.83ZM248.513 159.818V165H246.814V156.273H248.445V157.693H248.553C248.753 157.231 249.068 156.86 249.496 156.58C249.928 156.299 250.471 156.159 251.126 156.159C251.721 156.159 252.242 156.284 252.689 156.534C253.136 156.78 253.482 157.148 253.729 157.636C253.975 158.125 254.098 158.729 254.098 159.449V165H252.399V159.653C252.399 159.021 252.234 158.527 251.905 158.17C251.575 157.811 251.123 157.631 250.547 157.631C250.153 157.631 249.803 157.716 249.496 157.886C249.193 158.057 248.952 158.307 248.774 158.636C248.6 158.962 248.513 159.356 248.513 159.818ZM260.036 168.455C259.342 168.455 258.746 168.364 258.246 168.182C257.75 168 257.344 167.759 257.03 167.46C256.715 167.161 256.481 166.833 256.325 166.477L257.786 165.875C257.888 166.042 258.024 166.218 258.195 166.403C258.369 166.593 258.604 166.754 258.899 166.886C259.198 167.019 259.583 167.085 260.053 167.085C260.696 167.085 261.229 166.928 261.649 166.614C262.07 166.303 262.28 165.807 262.28 165.125V163.409H262.172C262.07 163.595 261.922 163.801 261.729 164.028C261.539 164.256 261.278 164.453 260.945 164.619C260.611 164.786 260.178 164.869 259.643 164.869C258.954 164.869 258.333 164.708 257.78 164.386C257.231 164.061 256.795 163.581 256.473 162.949C256.155 162.312 255.996 161.53 255.996 160.602C255.996 159.674 256.153 158.879 256.467 158.216C256.786 157.553 257.221 157.045 257.774 156.693C258.327 156.337 258.954 156.159 259.655 156.159C260.196 156.159 260.634 156.25 260.967 156.432C261.301 156.61 261.56 156.818 261.746 157.057C261.935 157.295 262.081 157.506 262.183 157.688H262.308V156.273H263.973V165.193C263.973 165.943 263.799 166.559 263.45 167.04C263.102 167.521 262.63 167.877 262.036 168.108C261.445 168.339 260.778 168.455 260.036 168.455ZM260.018 163.46C260.507 163.46 260.92 163.347 261.257 163.119C261.598 162.888 261.856 162.559 262.03 162.131C262.208 161.699 262.297 161.182 262.297 160.58C262.297 159.992 262.21 159.475 262.036 159.028C261.861 158.581 261.606 158.233 261.268 157.983C260.931 157.729 260.515 157.602 260.018 157.602C259.507 157.602 259.081 157.735 258.74 158C258.399 158.261 258.142 158.617 257.967 159.068C257.797 159.519 257.712 160.023 257.712 160.58C257.712 161.152 257.799 161.653 257.973 162.085C258.147 162.517 258.405 162.854 258.746 163.097C259.09 163.339 259.515 163.46 260.018 163.46ZM270.013 165.176C269.153 165.176 268.412 164.992 267.791 164.625C267.174 164.254 266.696 163.733 266.359 163.062C266.026 162.388 265.859 161.598 265.859 160.693C265.859 159.799 266.026 159.011 266.359 158.33C266.696 157.648 267.166 157.116 267.768 156.733C268.375 156.35 269.083 156.159 269.893 156.159C270.386 156.159 270.863 156.241 271.325 156.403C271.787 156.566 272.202 156.822 272.57 157.17C272.937 157.519 273.227 157.972 273.439 158.528C273.651 159.081 273.757 159.754 273.757 160.545V161.148H266.82V159.875H272.092C272.092 159.428 272.001 159.032 271.82 158.688C271.638 158.339 271.382 158.064 271.053 157.864C270.727 157.663 270.344 157.562 269.905 157.562C269.428 157.562 269.011 157.68 268.655 157.915C268.303 158.146 268.03 158.449 267.837 158.824C267.647 159.195 267.553 159.598 267.553 160.034V161.028C267.553 161.612 267.655 162.108 267.859 162.517C268.068 162.926 268.357 163.239 268.729 163.455C269.1 163.667 269.534 163.773 270.03 163.773C270.352 163.773 270.645 163.727 270.911 163.636C271.176 163.542 271.405 163.402 271.598 163.216C271.791 163.03 271.939 162.801 272.041 162.528L273.649 162.818C273.52 163.292 273.289 163.706 272.956 164.062C272.626 164.415 272.212 164.689 271.712 164.886C271.215 165.08 270.649 165.176 270.013 165.176ZM279.876 165V156.273H281.575V165H279.876ZM280.734 154.926C280.439 154.926 280.185 154.828 279.973 154.631C279.765 154.43 279.661 154.191 279.661 153.915C279.661 153.634 279.765 153.396 279.973 153.199C280.185 152.998 280.439 152.898 280.734 152.898C281.03 152.898 281.282 152.998 281.49 153.199C281.702 153.396 281.808 153.634 281.808 153.915C281.808 154.191 281.702 154.43 281.49 154.631C281.282 154.828 281.03 154.926 280.734 154.926ZM287.935 156.273V157.636H283.168V156.273H287.935ZM284.446 154.182H286.145V162.438C286.145 162.767 286.194 163.015 286.293 163.182C286.391 163.345 286.518 163.456 286.673 163.517C286.832 163.574 287.005 163.602 287.19 163.602C287.327 163.602 287.446 163.593 287.548 163.574C287.651 163.555 287.73 163.54 287.787 163.528L288.094 164.932C287.995 164.97 287.855 165.008 287.673 165.045C287.491 165.087 287.264 165.11 286.991 165.114C286.545 165.121 286.128 165.042 285.741 164.875C285.355 164.708 285.043 164.451 284.804 164.102C284.565 163.754 284.446 163.316 284.446 162.79V154.182ZM295.747 153.364V165H294.048V153.364H295.747ZM300.572 165.193C300.019 165.193 299.519 165.091 299.072 164.886C298.625 164.678 298.271 164.377 298.01 163.983C297.752 163.589 297.624 163.106 297.624 162.534C297.624 162.042 297.718 161.636 297.908 161.318C298.097 161 298.353 160.748 298.675 160.562C298.997 160.377 299.357 160.237 299.754 160.142C300.152 160.047 300.557 159.975 300.97 159.926C301.493 159.866 301.917 159.816 302.243 159.778C302.569 159.737 302.805 159.67 302.953 159.58C303.101 159.489 303.175 159.341 303.175 159.136V159.097C303.175 158.6 303.035 158.216 302.754 157.943C302.478 157.67 302.065 157.534 301.516 157.534C300.944 157.534 300.493 157.661 300.163 157.915C299.838 158.165 299.612 158.443 299.487 158.75L297.891 158.386C298.08 157.856 298.357 157.428 298.72 157.102C299.088 156.773 299.51 156.534 299.987 156.386C300.464 156.235 300.966 156.159 301.493 156.159C301.841 156.159 302.211 156.201 302.601 156.284C302.995 156.364 303.362 156.511 303.703 156.727C304.048 156.943 304.33 157.252 304.55 157.653C304.769 158.051 304.879 158.568 304.879 159.205V165H303.22V163.807H303.152C303.042 164.027 302.877 164.242 302.658 164.455C302.438 164.667 302.156 164.843 301.811 164.983C301.466 165.123 301.054 165.193 300.572 165.193ZM300.942 163.83C301.411 163.83 301.813 163.737 302.146 163.551C302.483 163.366 302.739 163.123 302.913 162.824C303.091 162.521 303.18 162.197 303.18 161.852V160.727C303.12 160.788 303.002 160.845 302.828 160.898C302.658 160.947 302.463 160.991 302.243 161.028C302.023 161.062 301.809 161.095 301.601 161.125C301.393 161.152 301.218 161.174 301.078 161.193C300.749 161.235 300.447 161.305 300.175 161.403C299.906 161.502 299.69 161.644 299.527 161.83C299.368 162.011 299.288 162.254 299.288 162.557C299.288 162.977 299.444 163.295 299.754 163.511C300.065 163.723 300.461 163.83 300.942 163.83ZM311.216 156.273V157.636H306.449V156.273H311.216ZM307.727 154.182H309.426V162.438C309.426 162.767 309.475 163.015 309.574 163.182C309.672 163.345 309.799 163.456 309.955 163.517C310.114 163.574 310.286 163.602 310.472 163.602C310.608 163.602 310.727 163.593 310.83 163.574C310.932 163.555 311.011 163.54 311.068 163.528L311.375 164.932C311.277 164.97 311.136 165.008 310.955 165.045C310.773 165.087 310.545 165.11 310.273 165.114C309.826 165.121 309.409 165.042 309.023 164.875C308.636 164.708 308.324 164.451 308.085 164.102C307.847 163.754 307.727 163.316 307.727 162.79V154.182ZM316.763 165.176C315.903 165.176 315.162 164.992 314.541 164.625C313.924 164.254 313.446 163.733 313.109 163.062C312.776 162.388 312.609 161.598 312.609 160.693C312.609 159.799 312.776 159.011 313.109 158.33C313.446 157.648 313.916 157.116 314.518 156.733C315.125 156.35 315.833 156.159 316.643 156.159C317.136 156.159 317.613 156.241 318.075 156.403C318.537 156.566 318.952 156.822 319.32 157.17C319.687 157.519 319.977 157.972 320.189 158.528C320.401 159.081 320.507 159.754 320.507 160.545V161.148H313.57V159.875H318.842C318.842 159.428 318.751 159.032 318.57 158.688C318.388 158.339 318.132 158.064 317.803 157.864C317.477 157.663 317.094 157.562 316.655 157.562C316.178 157.562 315.761 157.68 315.405 157.915C315.053 158.146 314.78 158.449 314.587 158.824C314.397 159.195 314.303 159.598 314.303 160.034V161.028C314.303 161.612 314.405 162.108 314.609 162.517C314.818 162.926 315.107 163.239 315.479 163.455C315.85 163.667 316.284 163.773 316.78 163.773C317.102 163.773 317.395 163.727 317.661 163.636C317.926 163.542 318.155 163.402 318.348 163.216C318.541 163.03 318.689 162.801 318.791 162.528L320.399 162.818C320.27 163.292 320.039 163.706 319.706 164.062C319.376 164.415 318.962 164.689 318.462 164.886C317.965 165.08 317.399 165.176 316.763 165.176ZM322.392 165V156.273H324.034V157.659H324.125C324.284 157.189 324.564 156.82 324.966 156.551C325.371 156.278 325.83 156.142 326.341 156.142C326.447 156.142 326.572 156.146 326.716 156.153C326.864 156.161 326.979 156.17 327.062 156.182V157.807C326.994 157.788 326.873 157.767 326.699 157.744C326.525 157.718 326.35 157.705 326.176 157.705C325.775 157.705 325.417 157.79 325.102 157.96C324.792 158.127 324.545 158.36 324.364 158.659C324.182 158.955 324.091 159.292 324.091 159.67V165H322.392ZM328.652 165.108C328.341 165.108 328.074 164.998 327.851 164.778C327.627 164.555 327.516 164.286 327.516 163.972C327.516 163.661 327.627 163.396 327.851 163.176C328.074 162.953 328.341 162.841 328.652 162.841C328.963 162.841 329.23 162.953 329.453 163.176C329.677 163.396 329.788 163.661 329.788 163.972C329.788 164.18 329.735 164.371 329.629 164.545C329.527 164.716 329.391 164.852 329.22 164.955C329.05 165.057 328.86 165.108 328.652 165.108Z" fill="black"/>
<rect x="21" y="338" width="388" height="70" rx="12" fill="#0095F6"/>
<path d="M203.116 367.545V385H199.929L192.335 374.014H192.207V385H188.517V367.545H191.756L199.29 378.523H199.443V367.545H203.116ZM212.063 385.256C210.717 385.256 209.558 384.983 208.586 384.438C207.62 383.886 206.876 383.108 206.353 382.102C205.83 381.091 205.569 379.895 205.569 378.514C205.569 377.168 205.83 375.986 206.353 374.969C206.876 373.952 207.612 373.159 208.56 372.591C209.515 372.023 210.634 371.739 211.918 371.739C212.782 371.739 213.586 371.878 214.33 372.156C215.08 372.429 215.734 372.841 216.29 373.392C216.853 373.943 217.29 374.636 217.603 375.472C217.915 376.301 218.072 377.273 218.072 378.386V379.384H207.018V377.134H214.654C214.654 376.611 214.54 376.148 214.313 375.744C214.086 375.341 213.771 375.026 213.367 374.798C212.969 374.565 212.506 374.449 211.978 374.449C211.427 374.449 210.938 374.577 210.512 374.832C210.092 375.082 209.762 375.42 209.523 375.847C209.285 376.267 209.163 376.736 209.157 377.253V379.392C209.157 380.04 209.276 380.599 209.515 381.071C209.759 381.543 210.103 381.906 210.546 382.162C210.989 382.418 211.515 382.545 212.123 382.545C212.526 382.545 212.896 382.489 213.231 382.375C213.566 382.261 213.853 382.091 214.092 381.864C214.33 381.636 214.512 381.358 214.637 381.028L217.995 381.25C217.825 382.057 217.475 382.761 216.947 383.364C216.424 383.96 215.748 384.426 214.918 384.761C214.094 385.091 213.143 385.256 212.063 385.256ZM223.241 371.909L225.644 376.486L228.107 371.909H231.832L228.039 378.455L231.934 385H228.227L225.644 380.474L223.104 385H219.354L223.241 378.455L219.491 371.909H223.241ZM240.951 371.909V374.636H233.067V371.909H240.951ZM234.857 368.773H238.488V380.977C238.488 381.312 238.539 381.574 238.641 381.761C238.744 381.943 238.886 382.071 239.067 382.145C239.255 382.219 239.471 382.256 239.715 382.256C239.886 382.256 240.056 382.241 240.227 382.213C240.397 382.179 240.528 382.153 240.619 382.136L241.19 384.838C241.008 384.895 240.752 384.96 240.423 385.034C240.093 385.114 239.692 385.162 239.221 385.179C238.346 385.213 237.579 385.097 236.92 384.83C236.266 384.562 235.758 384.148 235.394 383.585C235.031 383.023 234.852 382.312 234.857 381.455V368.773Z" fill="white"/>
<rect x="21" y="250" width="388" height="70" rx="12" fill="#FAFAFA"/>
<path d="M59.9517 279.455H62.1534V289.021C62.1534 290.039 61.9143 290.941 61.4361 291.727C60.9579 292.509 60.2855 293.124 59.419 293.574C58.5526 294.019 57.5369 294.241 56.3722 294.241C55.2121 294.241 54.1989 294.019 53.3324 293.574C52.4659 293.124 51.7936 292.509 51.3153 291.727C50.8371 290.941 50.598 290.039 50.598 289.021V279.455H52.7926V288.844C52.7926 289.502 52.937 290.087 53.2259 290.598C53.5194 291.109 53.9337 291.512 54.4688 291.805C55.0038 292.094 55.6383 292.239 56.3722 292.239C57.1108 292.239 57.7476 292.094 58.2827 291.805C58.8224 291.512 59.2344 291.109 59.5185 290.598C59.8073 290.087 59.9517 289.502 59.9517 288.844V279.455ZM73.3484 285.754L71.4237 286.095C71.3432 285.849 71.2153 285.615 71.0401 285.392C70.8697 285.17 70.6377 284.987 70.3441 284.845C70.0505 284.703 69.6836 284.632 69.2433 284.632C68.6419 284.632 68.14 284.767 67.7376 285.037C67.3351 285.302 67.1339 285.645 67.1339 286.067C67.1339 286.431 67.2688 286.725 67.5387 286.947C67.8086 287.17 68.2442 287.352 68.8455 287.494L70.5785 287.892C71.5823 288.124 72.3304 288.482 72.8228 288.964C73.3152 289.447 73.5614 290.075 73.5614 290.847C73.5614 291.5 73.372 292.082 72.9933 292.594C72.6192 293.1 72.096 293.498 71.4237 293.787C70.756 294.076 69.9819 294.22 69.1012 294.22C67.8796 294.22 66.8829 293.96 66.1112 293.439C65.3394 292.913 64.8659 292.168 64.6907 291.202L66.7433 290.889C66.8711 291.424 67.1339 291.829 67.5316 292.104C67.9293 292.374 68.4478 292.509 69.087 292.509C69.783 292.509 70.3394 292.364 70.756 292.075C71.1727 291.782 71.381 291.424 71.381 291.003C71.381 290.662 71.2532 290.375 70.9975 290.143C70.7466 289.911 70.3607 289.736 69.8398 289.618L67.9933 289.213C66.9753 288.981 66.2224 288.612 65.7347 288.105C65.2518 287.598 65.0103 286.957 65.0103 286.18C65.0103 285.536 65.1902 284.973 65.5501 284.49C65.9099 284.007 66.4071 283.631 67.0415 283.361C67.676 283.086 68.4028 282.949 69.2219 282.949C70.4009 282.949 71.329 283.205 72.006 283.716C72.6831 284.223 73.1306 284.902 73.3484 285.754ZM80.598 294.22C79.5232 294.22 78.5975 293.991 77.821 293.531C77.0492 293.067 76.4527 292.416 76.0312 291.578C75.6146 290.735 75.4062 289.748 75.4062 288.616C75.4062 287.499 75.6146 286.514 76.0312 285.662C76.4527 284.81 77.0398 284.144 77.7926 283.666C78.5502 283.188 79.4356 282.949 80.4489 282.949C81.0644 282.949 81.661 283.051 82.2386 283.254C82.8163 283.458 83.3348 283.777 83.794 284.213C84.2533 284.649 84.6155 285.214 84.8807 285.911C85.1458 286.602 85.2784 287.442 85.2784 288.432V289.185H76.6065V287.594H83.1974C83.1974 287.035 83.0838 286.54 82.8565 286.109C82.6293 285.674 82.3097 285.33 81.8977 285.08C81.4905 284.829 81.0123 284.703 80.4631 284.703C79.8665 284.703 79.3456 284.85 78.9006 285.143C78.4602 285.432 78.1193 285.811 77.8778 286.28C77.6411 286.744 77.5227 287.248 77.5227 287.793V289.036C77.5227 289.765 77.6506 290.385 77.9062 290.896C78.1667 291.408 78.5289 291.798 78.9929 292.068C79.4569 292.333 79.9991 292.466 80.6193 292.466C81.0218 292.466 81.3887 292.409 81.7202 292.295C82.0516 292.177 82.3381 292.002 82.5795 291.77C82.821 291.538 83.0057 291.251 83.1335 290.911L85.1435 291.273C84.9825 291.865 84.6937 292.383 84.277 292.828C83.8651 293.268 83.3466 293.612 82.7216 293.858C82.1013 294.099 81.3935 294.22 80.598 294.22ZM87.6346 294V283.091H89.6871V284.824H89.8008C89.9996 284.237 90.35 283.775 90.8519 283.439C91.3585 283.098 91.9315 282.928 92.5707 282.928C92.7032 282.928 92.8595 282.932 93.0394 282.942C93.2241 282.951 93.3685 282.963 93.4727 282.977V285.009C93.3874 284.985 93.2359 284.959 93.0181 284.93C92.8003 284.897 92.5825 284.881 92.3647 284.881C91.8628 284.881 91.4154 284.987 91.0224 285.2C90.6341 285.409 90.3263 285.7 90.0991 286.074C89.8718 286.443 89.7582 286.865 89.7582 287.338V294H87.6346ZM97.4339 287.523V294H95.3104V283.091H97.3487V284.866H97.4837C97.7346 284.289 98.1276 283.825 98.6626 283.474C99.2024 283.124 99.8819 282.949 100.701 282.949C101.444 282.949 102.095 283.105 102.654 283.418C103.213 283.725 103.646 284.185 103.954 284.795C104.262 285.406 104.415 286.161 104.415 287.061V294H102.292V287.317C102.292 286.526 102.086 285.908 101.674 285.463C101.262 285.013 100.696 284.788 99.9766 284.788C99.4841 284.788 99.0462 284.895 98.6626 285.108C98.2839 285.321 97.9832 285.634 97.7607 286.045C97.5429 286.453 97.4339 286.945 97.4339 287.523ZM110.438 294.241C109.747 294.241 109.122 294.114 108.563 293.858C108.004 293.598 107.562 293.221 107.235 292.729C106.913 292.236 106.752 291.633 106.752 290.918C106.752 290.302 106.871 289.795 107.107 289.398C107.344 289 107.664 288.685 108.066 288.453C108.469 288.221 108.918 288.046 109.415 287.928C109.913 287.809 110.419 287.719 110.935 287.658C111.589 287.582 112.119 287.52 112.526 287.473C112.933 287.421 113.229 287.338 113.414 287.224C113.599 287.111 113.691 286.926 113.691 286.67V286.621C113.691 286 113.516 285.52 113.165 285.179C112.82 284.838 112.304 284.668 111.617 284.668C110.902 284.668 110.339 284.826 109.927 285.143C109.52 285.456 109.238 285.804 109.082 286.188L107.086 285.733C107.323 285.07 107.668 284.535 108.123 284.128C108.582 283.716 109.11 283.418 109.707 283.233C110.303 283.044 110.931 282.949 111.589 282.949C112.024 282.949 112.486 283.001 112.974 283.105C113.466 283.205 113.925 283.389 114.352 283.659C114.782 283.929 115.135 284.315 115.41 284.817C115.684 285.314 115.822 285.96 115.822 286.756V294H113.748V292.509H113.663C113.525 292.783 113.319 293.053 113.045 293.318C112.77 293.583 112.417 293.804 111.987 293.979C111.556 294.154 111.04 294.241 110.438 294.241ZM110.9 292.537C111.487 292.537 111.989 292.421 112.406 292.189C112.827 291.957 113.147 291.654 113.364 291.28C113.587 290.901 113.698 290.496 113.698 290.065V288.659C113.622 288.735 113.476 288.806 113.258 288.872C113.045 288.934 112.801 288.988 112.526 289.036C112.252 289.078 111.984 289.118 111.724 289.156C111.463 289.189 111.246 289.218 111.07 289.241C110.658 289.294 110.282 289.381 109.941 289.504C109.605 289.627 109.335 289.805 109.131 290.037C108.933 290.264 108.833 290.567 108.833 290.946C108.833 291.472 109.027 291.869 109.415 292.139C109.804 292.404 110.299 292.537 110.9 292.537ZM118.65 294V283.091H120.689V284.866H120.824C121.051 284.265 121.422 283.796 121.939 283.46C122.455 283.119 123.073 282.949 123.792 282.949C124.521 282.949 125.132 283.119 125.625 283.46C126.122 283.801 126.489 284.27 126.725 284.866H126.839C127.1 284.284 127.514 283.82 128.082 283.474C128.65 283.124 129.327 282.949 130.113 282.949C131.103 282.949 131.91 283.259 132.535 283.879C133.165 284.5 133.48 285.435 133.48 286.685V294H131.356V286.884C131.356 286.145 131.155 285.61 130.752 285.278C130.35 284.947 129.869 284.781 129.311 284.781C128.619 284.781 128.082 284.994 127.699 285.42C127.315 285.842 127.123 286.384 127.123 287.047V294H125.007V286.749C125.007 286.157 124.822 285.681 124.453 285.321C124.083 284.961 123.603 284.781 123.011 284.781C122.609 284.781 122.237 284.888 121.896 285.101C121.56 285.309 121.288 285.6 121.079 285.974C120.876 286.348 120.774 286.782 120.774 287.274V294H118.65ZM141.028 294.22C139.953 294.22 139.027 293.991 138.251 293.531C137.479 293.067 136.882 292.416 136.461 291.578C136.044 290.735 135.836 289.748 135.836 288.616C135.836 287.499 136.044 286.514 136.461 285.662C136.882 284.81 137.469 284.144 138.222 283.666C138.98 283.188 139.865 282.949 140.879 282.949C141.494 282.949 142.091 283.051 142.668 283.254C143.246 283.458 143.764 283.777 144.224 284.213C144.683 284.649 145.045 285.214 145.31 285.911C145.576 286.602 145.708 287.442 145.708 288.432V289.185H137.036V287.594H143.627C143.627 287.035 143.513 286.54 143.286 286.109C143.059 285.674 142.739 285.33 142.327 285.08C141.92 284.829 141.442 284.703 140.893 284.703C140.296 284.703 139.775 284.85 139.33 285.143C138.89 285.432 138.549 285.811 138.308 286.28C138.071 286.744 137.952 287.248 137.952 287.793V289.036C137.952 289.765 138.08 290.385 138.336 290.896C138.596 291.408 138.959 291.798 139.423 292.068C139.887 292.333 140.429 292.466 141.049 292.466C141.451 292.466 141.818 292.409 142.15 292.295C142.481 292.177 142.768 292.002 143.009 291.77C143.251 291.538 143.435 291.251 143.563 290.911L145.573 291.273C145.412 291.865 145.123 292.383 144.707 292.828C144.295 293.268 143.776 293.612 143.151 293.858C142.531 294.099 141.823 294.22 141.028 294.22Z" fill="black" fill-opacity="0.5"/>
<defs>
<linearGradient id="paint0_linear_231_313" x1="19.987" y1="223.249" x2="462.172" y2="859.753" gradientUnits="userSpaceOnUse">
<stop stop-color="#82B7EE"/>
<stop offset="1" stop-color="#F5AA8F"/>
</linearGradient>
</defs>
</svg>
