<svg width="428" height="926" viewBox="0 0 428 926" fill="none" xmlns="http://www.w3.org/2000/svg">
<rect width="428" height="926" rx="32" fill="white"/>
<path d="M347 30.55C348.977 28.9036 351.468 28.0021 354.04 28.0021C356.612 28.0021 359.103 28.9036 361.08 30.55" stroke="black" stroke-width="2" stroke-linecap="round" stroke-linejoin="round"/>
<path d="M343.42 27C346.342 24.424 350.104 23.0027 354 23.0027C357.896 23.0027 361.658 24.424 364.58 27" stroke="black" stroke-width="2" stroke-linecap="round" stroke-linejoin="round"/>
<path d="M350.53 34.11C351.545 33.3887 352.76 33.0012 354.005 33.0012C355.25 33.0012 356.465 33.3887 357.48 34.11" stroke="black" stroke-width="2" stroke-linecap="round" stroke-linejoin="round"/>
<path d="M354 38H354.01" stroke="black" stroke-width="2" stroke-linecap="round" stroke-linejoin="round"/>
<path d="M392 24H378C376.895 24 376 24.8954 376 26V34C376 35.1046 376.895 36 378 36H392C393.105 36 394 35.1046 394 34V26C394 24.8954 393.105 24 392 24Z" fill="black"/>
<path d="M395 31V29" stroke="black" stroke-width="2" stroke-linecap="round" stroke-linejoin="round"/>
<path d="M321 38V28" stroke="black" stroke-width="2" stroke-linecap="round" stroke-linejoin="round"/>
<path d="M327 38V22" stroke="black" stroke-width="2" stroke-linecap="round" stroke-linejoin="round"/>
<path d="M315 38V34" stroke="black" stroke-width="2" stroke-linecap="round" stroke-linejoin="round"/>
<path d="M27.9432 24.5455V42H25.8295V26.7614H25.7273L21.4659 29.5909V27.4432L25.8295 24.5455H27.9432ZM38.6562 42.2386C37.3722 42.2386 36.2784 41.8892 35.375 41.1903C34.4716 40.4858 33.7813 39.4659 33.304 38.1307C32.8267 36.7898 32.5881 35.1705 32.5881 33.2727C32.5881 31.3864 32.8267 29.7756 33.304 28.4403C33.7869 27.0994 34.4801 26.0767 35.3835 25.3722C36.2926 24.6619 37.3835 24.3068 38.6562 24.3068C39.929 24.3068 41.017 24.6619 41.9205 25.3722C42.8295 26.0767 43.5227 27.0994 44 28.4403C44.483 29.7756 44.7244 31.3864 44.7244 33.2727C44.7244 35.1705 44.4858 36.7898 44.0085 38.1307C43.5312 39.4659 42.8409 40.4858 41.9375 41.1903C41.0341 41.8892 39.9403 42.2386 38.6562 42.2386ZM38.6562 40.3636C39.929 40.3636 40.9176 39.75 41.6222 38.5227C42.3267 37.2955 42.679 35.5455 42.679 33.2727C42.679 31.7614 42.517 30.4744 42.1932 29.4119C41.875 28.3494 41.4148 27.5398 40.8125 26.983C40.2159 26.4261 39.4972 26.1477 38.6562 26.1477C37.3949 26.1477 36.4091 26.7699 35.6989 28.0142C34.9886 29.2528 34.6335 31.0057 34.6335 33.2727C34.6335 34.7841 34.7926 36.0682 35.1108 37.125C35.429 38.1818 35.8864 38.9858 36.483 39.5369C37.0852 40.0881 37.8097 40.3636 38.6562 40.3636ZM49.4631 39.767C49.0426 39.767 48.6818 39.6165 48.3807 39.3153C48.0795 39.0142 47.929 38.6534 47.929 38.233C47.929 37.8125 48.0795 37.4517 48.3807 37.1506C48.6818 36.8494 49.0426 36.6989 49.4631 36.6989C49.8835 36.6989 50.2443 36.8494 50.5455 37.1506C50.8466 37.4517 50.9972 37.8125 50.9972 38.233C50.9972 38.5114 50.9261 38.767 50.7841 39C50.6477 39.233 50.4631 39.4205 50.2301 39.5625C50.0028 39.6989 49.7472 39.767 49.4631 39.767ZM49.4631 30.9375C49.0426 30.9375 48.6818 30.7869 48.3807 30.4858C48.0795 30.1847 47.929 29.8239 47.929 29.4034C47.929 28.983 48.0795 28.6222 48.3807 28.321C48.6818 28.0199 49.0426 27.8693 49.4631 27.8693C49.8835 27.8693 50.2443 28.0199 50.5455 28.321C50.8466 28.6222 50.9972 28.983 50.9972 29.4034C50.9972 29.6818 50.9261 29.9375 50.7841 30.1705C50.6477 30.4034 50.4631 30.5909 50.2301 30.733C50.0028 30.8693 49.7472 30.9375 49.4631 30.9375ZM60.2656 42.2386C58.9815 42.2386 57.8878 41.8892 56.9844 41.1903C56.081 40.4858 55.3906 39.4659 54.9134 38.1307C54.4361 36.7898 54.1974 35.1705 54.1974 33.2727C54.1974 31.3864 54.4361 29.7756 54.9134 28.4403C55.3963 27.0994 56.0895 26.0767 56.9929 25.3722C57.902 24.6619 58.9929 24.3068 60.2656 24.3068C61.5384 24.3068 62.6264 24.6619 63.5298 25.3722C64.4389 26.0767 65.1321 27.0994 65.6094 28.4403C66.0923 29.7756 66.3338 31.3864 66.3338 33.2727C66.3338 35.1705 66.0952 36.7898 65.6179 38.1307C65.1406 39.4659 64.4503 40.4858 63.5469 41.1903C62.6435 41.8892 61.5497 42.2386 60.2656 42.2386ZM60.2656 40.3636C61.5384 40.3636 62.527 39.75 63.2315 38.5227C63.9361 37.2955 64.2884 35.5455 64.2884 33.2727C64.2884 31.7614 64.1264 30.4744 63.8026 29.4119C63.4844 28.3494 63.0241 27.5398 62.4219 26.983C61.8253 26.4261 61.1065 26.1477 60.2656 26.1477C59.0043 26.1477 58.0185 26.7699 57.3082 28.0142C56.598 29.2528 56.2429 31.0057 56.2429 33.2727C56.2429 34.7841 56.402 36.0682 56.7202 37.125C57.0384 38.1818 57.4957 38.9858 58.0923 39.5369C58.6946 40.0881 59.419 40.3636 60.2656 40.3636ZM75.2656 42.2386C73.9815 42.2386 72.8878 41.8892 71.9844 41.1903C71.081 40.4858 70.3906 39.4659 69.9134 38.1307C69.4361 36.7898 69.1974 35.1705 69.1974 33.2727C69.1974 31.3864 69.4361 29.7756 69.9134 28.4403C70.3963 27.0994 71.0895 26.0767 71.9929 25.3722C72.902 24.6619 73.9929 24.3068 75.2656 24.3068C76.5384 24.3068 77.6264 24.6619 78.5298 25.3722C79.4389 26.0767 80.1321 27.0994 80.6094 28.4403C81.0923 29.7756 81.3338 31.3864 81.3338 33.2727C81.3338 35.1705 81.0952 36.7898 80.6179 38.1307C80.1406 39.4659 79.4503 40.4858 78.5469 41.1903C77.6435 41.8892 76.5497 42.2386 75.2656 42.2386ZM75.2656 40.3636C76.5384 40.3636 77.527 39.75 78.2315 38.5227C78.9361 37.2955 79.2884 35.5455 79.2884 33.2727C79.2884 31.7614 79.1264 30.4744 78.8026 29.4119C78.4844 28.3494 78.0241 27.5398 77.4219 26.983C76.8253 26.4261 76.1065 26.1477 75.2656 26.1477C74.0043 26.1477 73.0185 26.7699 72.3082 28.0142C71.598 29.2528 71.2429 31.0057 71.2429 33.2727C71.2429 34.7841 71.402 36.0682 71.7202 37.125C72.0384 38.1818 72.4957 38.9858 73.0923 39.5369C73.6946 40.0881 74.419 40.3636 75.2656 40.3636Z" fill="black"/>
<path d="M428 892.053V111C423.172 168.76 367.446 197 308.992 200.25L82.9848 202.378C24.6441 208.696 3.35296 261.793 0 287.552V900.944C0 914.782 11.2178 926 25.0557 926H396C413.673 926 428 911.672 428 893.999V892.053Z" fill="url(#paint0_linear_231_360)"/>
<rect x="20" y="250" width="388" height="70" rx="12" fill="#FAFAFA"/>
<g clip-path="url(#clip0_231_360)">
<path d="M374.94 290.94C373.231 292.243 371.149 292.965 369 293C362 293 358 285 358 285C359.244 282.682 360.969 280.657 363.06 279.06M366.9 277.24C367.588 277.079 368.293 276.998 369 277C376 277 380 285 380 285C379.393 286.136 378.669 287.205 377.84 288.19M371.12 287.12C370.845 287.415 370.514 287.651 370.146 287.815C369.778 287.979 369.381 288.067 368.978 288.074C368.575 288.081 368.175 288.007 367.802 287.857C367.428 287.706 367.089 287.481 366.804 287.196C366.519 286.911 366.294 286.572 366.144 286.198C365.993 285.825 365.919 285.425 365.926 285.022C365.933 284.619 366.021 284.222 366.185 283.854C366.349 283.486 366.585 283.155 366.88 282.88" stroke="black" stroke-width="2" stroke-linecap="round" stroke-linejoin="round"/>
<path d="M358 274L380 296" stroke="black" stroke-width="2" stroke-linecap="round" stroke-linejoin="round"/>
</g>
<rect x="20" y="375" width="388" height="70" rx="12" fill="#0095F6"/>
<path d="M202.116 404.545V422H198.929L191.335 411.014H191.207V422H187.517V404.545H190.756L198.29 415.523H198.443V404.545H202.116ZM211.063 422.256C209.717 422.256 208.558 421.983 207.586 421.438C206.62 420.886 205.876 420.108 205.353 419.102C204.83 418.091 204.569 416.895 204.569 415.514C204.569 414.168 204.83 412.986 205.353 411.969C205.876 410.952 206.612 410.159 207.56 409.591C208.515 409.023 209.634 408.739 210.918 408.739C211.782 408.739 212.586 408.878 213.33 409.156C214.08 409.429 214.734 409.841 215.29 410.392C215.853 410.943 216.29 411.636 216.603 412.472C216.915 413.301 217.072 414.273 217.072 415.386V416.384H206.018V414.134H213.654C213.654 413.611 213.54 413.148 213.313 412.744C213.086 412.341 212.771 412.026 212.367 411.798C211.969 411.565 211.506 411.449 210.978 411.449C210.427 411.449 209.938 411.577 209.512 411.832C209.092 412.082 208.762 412.42 208.523 412.847C208.285 413.267 208.163 413.736 208.157 414.253V416.392C208.157 417.04 208.276 417.599 208.515 418.071C208.759 418.543 209.103 418.906 209.546 419.162C209.989 419.418 210.515 419.545 211.123 419.545C211.526 419.545 211.896 419.489 212.231 419.375C212.566 419.261 212.853 419.091 213.092 418.864C213.33 418.636 213.512 418.358 213.637 418.028L216.995 418.25C216.825 419.057 216.475 419.761 215.947 420.364C215.424 420.96 214.748 421.426 213.918 421.761C213.094 422.091 212.143 422.256 211.063 422.256ZM222.241 408.909L224.644 413.486L227.107 408.909H230.832L227.039 415.455L230.934 422H227.227L224.644 417.474L222.104 422H218.354L222.241 415.455L218.491 408.909H222.241ZM239.951 408.909V411.636H232.067V408.909H239.951ZM233.857 405.773H237.488V417.977C237.488 418.312 237.539 418.574 237.641 418.761C237.744 418.943 237.886 419.071 238.067 419.145C238.255 419.219 238.471 419.256 238.715 419.256C238.886 419.256 239.056 419.241 239.227 419.213C239.397 419.179 239.528 419.153 239.619 419.136L240.19 421.838C240.008 421.895 239.752 421.96 239.423 422.034C239.093 422.114 238.692 422.162 238.221 422.179C237.346 422.213 236.579 422.097 235.92 421.83C235.266 421.562 234.758 421.148 234.394 420.585C234.031 420.023 233.852 419.312 233.857 418.455V405.773Z" fill="white"/>
<path d="M135.918 111.656H132.185C132.116 111.173 131.977 110.744 131.767 110.369C131.557 109.989 131.287 109.665 130.957 109.398C130.628 109.131 130.247 108.926 129.815 108.784C129.389 108.642 128.926 108.571 128.426 108.571C127.523 108.571 126.736 108.795 126.065 109.244C125.395 109.687 124.875 110.335 124.506 111.188C124.136 112.034 123.952 113.062 123.952 114.273C123.952 115.517 124.136 116.562 124.506 117.409C124.881 118.256 125.403 118.895 126.074 119.327C126.744 119.759 127.52 119.974 128.401 119.974C128.895 119.974 129.352 119.909 129.773 119.778C130.199 119.648 130.577 119.457 130.906 119.207C131.236 118.952 131.509 118.642 131.724 118.278C131.946 117.915 132.099 117.5 132.185 117.034L135.918 117.051C135.821 117.852 135.58 118.625 135.193 119.369C134.813 120.108 134.298 120.77 133.651 121.355C133.009 121.935 132.241 122.395 131.349 122.736C130.463 123.071 129.46 123.239 128.341 123.239C126.784 123.239 125.392 122.886 124.165 122.182C122.943 121.477 121.977 120.457 121.267 119.122C120.562 117.787 120.21 116.17 120.21 114.273C120.21 112.369 120.568 110.75 121.284 109.415C122 108.08 122.972 107.062 124.199 106.364C125.426 105.659 126.807 105.307 128.341 105.307C129.352 105.307 130.29 105.449 131.153 105.733C132.023 106.017 132.793 106.432 133.463 106.977C134.134 107.517 134.679 108.179 135.099 108.963C135.526 109.747 135.798 110.645 135.918 111.656ZM138.496 123V109.909H142.016V112.193H142.152C142.391 111.381 142.791 110.767 143.354 110.352C143.916 109.932 144.564 109.722 145.297 109.722C145.479 109.722 145.675 109.733 145.885 109.756C146.095 109.778 146.28 109.81 146.439 109.849V113.071C146.268 113.02 146.033 112.974 145.732 112.935C145.43 112.895 145.155 112.875 144.905 112.875C144.371 112.875 143.893 112.991 143.473 113.224C143.058 113.452 142.729 113.77 142.484 114.179C142.246 114.588 142.126 115.06 142.126 115.594V123H138.496ZM153.673 123.256C152.326 123.256 151.167 122.983 150.195 122.438C149.229 121.886 148.485 121.108 147.962 120.102C147.44 119.091 147.178 117.895 147.178 116.514C147.178 115.168 147.44 113.986 147.962 112.969C148.485 111.952 149.221 111.159 150.17 110.591C151.124 110.023 152.244 109.739 153.528 109.739C154.391 109.739 155.195 109.878 155.94 110.156C156.69 110.429 157.343 110.841 157.9 111.392C158.462 111.943 158.9 112.636 159.212 113.472C159.525 114.301 159.681 115.273 159.681 116.386V117.384H148.627V115.134H156.263C156.263 114.611 156.15 114.148 155.923 113.744C155.695 113.341 155.38 113.026 154.977 112.798C154.579 112.565 154.116 112.449 153.587 112.449C153.036 112.449 152.548 112.577 152.121 112.832C151.701 113.082 151.371 113.42 151.133 113.847C150.894 114.267 150.772 114.736 150.766 115.253V117.392C150.766 118.04 150.886 118.599 151.124 119.071C151.369 119.543 151.712 119.906 152.156 120.162C152.599 120.418 153.124 120.545 153.732 120.545C154.136 120.545 154.505 120.489 154.84 120.375C155.175 120.261 155.462 120.091 155.701 119.864C155.94 119.636 156.121 119.358 156.246 119.028L159.604 119.25C159.434 120.057 159.085 120.761 158.556 121.364C158.033 121.96 157.357 122.426 156.528 122.761C155.704 123.091 154.752 123.256 153.673 123.256ZM165.783 123.247C164.948 123.247 164.204 123.102 163.55 122.812C162.897 122.517 162.38 122.082 161.999 121.509C161.624 120.929 161.437 120.207 161.437 119.344C161.437 118.616 161.57 118.006 161.837 117.511C162.104 117.017 162.468 116.619 162.928 116.318C163.388 116.017 163.911 115.79 164.496 115.636C165.087 115.483 165.707 115.375 166.354 115.312C167.116 115.233 167.729 115.159 168.195 115.091C168.661 115.017 168.999 114.909 169.21 114.767C169.42 114.625 169.525 114.415 169.525 114.136V114.085C169.525 113.545 169.354 113.128 169.013 112.832C168.678 112.537 168.201 112.389 167.582 112.389C166.928 112.389 166.408 112.534 166.022 112.824C165.636 113.108 165.38 113.466 165.255 113.898L161.897 113.625C162.067 112.83 162.403 112.142 162.903 111.562C163.403 110.977 164.048 110.528 164.837 110.216C165.633 109.898 166.553 109.739 167.599 109.739C168.326 109.739 169.022 109.824 169.687 109.994C170.357 110.165 170.951 110.429 171.468 110.787C171.991 111.145 172.403 111.605 172.704 112.168C173.005 112.724 173.156 113.392 173.156 114.17V123H169.712V121.185H169.61C169.4 121.594 169.119 121.955 168.766 122.267C168.414 122.574 167.991 122.815 167.496 122.991C167.002 123.162 166.431 123.247 165.783 123.247ZM166.823 120.741C167.357 120.741 167.829 120.636 168.238 120.426C168.647 120.21 168.968 119.92 169.201 119.557C169.434 119.193 169.55 118.781 169.55 118.321V116.932C169.437 117.006 169.281 117.074 169.082 117.136C168.888 117.193 168.67 117.247 168.425 117.298C168.181 117.344 167.937 117.386 167.692 117.426C167.448 117.46 167.227 117.491 167.028 117.52C166.602 117.582 166.229 117.682 165.911 117.818C165.593 117.955 165.346 118.139 165.17 118.372C164.994 118.599 164.906 118.884 164.906 119.224C164.906 119.719 165.085 120.097 165.442 120.358C165.806 120.614 166.266 120.741 166.823 120.741ZM182.935 109.909V112.636H175.052V109.909H182.935ZM176.842 106.773H180.472V118.977C180.472 119.312 180.523 119.574 180.626 119.761C180.728 119.943 180.87 120.071 181.052 120.145C181.239 120.219 181.455 120.256 181.7 120.256C181.87 120.256 182.04 120.241 182.211 120.213C182.381 120.179 182.512 120.153 182.603 120.136L183.174 122.838C182.992 122.895 182.737 122.96 182.407 123.034C182.077 123.114 181.677 123.162 181.205 123.179C180.33 123.213 179.563 123.097 178.904 122.83C178.251 122.562 177.742 122.148 177.379 121.585C177.015 121.023 176.836 120.312 176.842 119.455V106.773ZM191.126 123.256C189.779 123.256 188.62 122.983 187.648 122.438C186.683 121.886 185.938 121.108 185.415 120.102C184.893 119.091 184.631 117.895 184.631 116.514C184.631 115.168 184.893 113.986 185.415 112.969C185.938 111.952 186.674 111.159 187.623 110.591C188.577 110.023 189.697 109.739 190.981 109.739C191.844 109.739 192.648 109.878 193.393 110.156C194.143 110.429 194.796 110.841 195.353 111.392C195.915 111.943 196.353 112.636 196.665 113.472C196.978 114.301 197.134 115.273 197.134 116.386V117.384H186.08V115.134H193.717C193.717 114.611 193.603 114.148 193.376 113.744C193.148 113.341 192.833 113.026 192.43 112.798C192.032 112.565 191.569 112.449 191.04 112.449C190.489 112.449 190.001 112.577 189.575 112.832C189.154 113.082 188.825 113.42 188.586 113.847C188.347 114.267 188.225 114.736 188.219 115.253V117.392C188.219 118.04 188.339 118.599 188.577 119.071C188.822 119.543 189.165 119.906 189.609 120.162C190.052 120.418 190.577 120.545 191.185 120.545C191.589 120.545 191.958 120.489 192.293 120.375C192.629 120.261 192.915 120.091 193.154 119.864C193.393 119.636 193.575 119.358 193.7 119.028L197.058 119.25C196.887 120.057 196.538 120.761 196.009 121.364C195.487 121.96 194.81 122.426 193.981 122.761C193.157 123.091 192.205 123.256 191.126 123.256ZM208.791 123.247C207.956 123.247 207.212 123.102 206.558 122.812C205.905 122.517 205.388 122.082 205.007 121.509C204.632 120.929 204.445 120.207 204.445 119.344C204.445 118.616 204.578 118.006 204.845 117.511C205.112 117.017 205.476 116.619 205.936 116.318C206.396 116.017 206.919 115.79 207.504 115.636C208.095 115.483 208.714 115.375 209.362 115.312C210.124 115.233 210.737 115.159 211.203 115.091C211.669 115.017 212.007 114.909 212.217 114.767C212.428 114.625 212.533 114.415 212.533 114.136V114.085C212.533 113.545 212.362 113.128 212.021 112.832C211.686 112.537 211.209 112.389 210.589 112.389C209.936 112.389 209.416 112.534 209.03 112.824C208.643 113.108 208.388 113.466 208.263 113.898L204.905 113.625C205.075 112.83 205.411 112.142 205.911 111.562C206.411 110.977 207.055 110.528 207.845 110.216C208.641 109.898 209.561 109.739 210.607 109.739C211.334 109.739 212.03 109.824 212.695 109.994C213.365 110.165 213.959 110.429 214.476 110.787C214.999 111.145 215.411 111.605 215.712 112.168C216.013 112.724 216.163 113.392 216.163 114.17V123H212.72V121.185H212.618C212.408 121.594 212.126 121.955 211.774 122.267C211.422 122.574 210.999 122.815 210.504 122.991C210.01 123.162 209.439 123.247 208.791 123.247ZM209.831 120.741C210.365 120.741 210.837 120.636 211.246 120.426C211.655 120.21 211.976 119.92 212.209 119.557C212.442 119.193 212.558 118.781 212.558 118.321V116.932C212.445 117.006 212.288 117.074 212.089 117.136C211.896 117.193 211.678 117.247 211.433 117.298C211.189 117.344 210.945 117.386 210.7 117.426C210.456 117.46 210.234 117.491 210.036 117.52C209.609 117.582 209.237 117.682 208.919 117.818C208.601 117.955 208.354 118.139 208.178 118.372C208.001 118.599 207.913 118.884 207.913 119.224C207.913 119.719 208.092 120.097 208.45 120.358C208.814 120.614 209.274 120.741 209.831 120.741ZM224.603 123V105.545H231.489C232.813 105.545 233.941 105.798 234.873 106.304C235.805 106.804 236.515 107.5 237.004 108.392C237.498 109.278 237.745 110.301 237.745 111.46C237.745 112.619 237.495 113.642 236.995 114.528C236.495 115.415 235.771 116.105 234.822 116.599C233.879 117.094 232.737 117.341 231.396 117.341H227.006V114.384H230.799C231.509 114.384 232.094 114.261 232.555 114.017C233.021 113.767 233.367 113.423 233.594 112.986C233.827 112.543 233.944 112.034 233.944 111.46C233.944 110.881 233.827 110.375 233.594 109.943C233.367 109.506 233.021 109.168 232.555 108.929C232.089 108.685 231.498 108.562 230.782 108.562H228.293V123H224.603ZM243.455 123.247C242.62 123.247 241.876 123.102 241.222 122.812C240.569 122.517 240.052 122.082 239.671 121.509C239.296 120.929 239.109 120.207 239.109 119.344C239.109 118.616 239.242 118.006 239.509 117.511C239.776 117.017 240.14 116.619 240.6 116.318C241.06 116.017 241.583 115.79 242.168 115.636C242.759 115.483 243.379 115.375 244.026 115.312C244.788 115.233 245.401 115.159 245.867 115.091C246.333 115.017 246.671 114.909 246.881 114.767C247.092 114.625 247.197 114.415 247.197 114.136V114.085C247.197 113.545 247.026 113.128 246.685 112.832C246.35 112.537 245.873 112.389 245.254 112.389C244.6 112.389 244.08 112.534 243.694 112.824C243.308 113.108 243.052 113.466 242.927 113.898L239.569 113.625C239.739 112.83 240.075 112.142 240.575 111.562C241.075 110.977 241.719 110.528 242.509 110.216C243.305 109.898 244.225 109.739 245.271 109.739C245.998 109.739 246.694 109.824 247.359 109.994C248.029 110.165 248.623 110.429 249.14 110.787C249.663 111.145 250.075 111.605 250.376 112.168C250.677 112.724 250.827 113.392 250.827 114.17V123H247.384V121.185H247.282C247.072 121.594 246.79 121.955 246.438 122.267C246.086 122.574 245.663 122.815 245.168 122.991C244.674 123.162 244.103 123.247 243.455 123.247ZM244.495 120.741C245.029 120.741 245.501 120.636 245.91 120.426C246.319 120.21 246.64 119.92 246.873 119.557C247.106 119.193 247.222 118.781 247.222 118.321V116.932C247.109 117.006 246.952 117.074 246.754 117.136C246.56 117.193 246.342 117.247 246.097 117.298C245.853 117.344 245.609 117.386 245.364 117.426C245.12 117.46 244.898 117.491 244.7 117.52C244.273 117.582 243.901 117.682 243.583 117.818C243.265 117.955 243.018 118.139 242.842 118.372C242.665 118.599 242.577 118.884 242.577 119.224C242.577 119.719 242.756 120.097 243.114 120.358C243.478 120.614 243.938 120.741 244.495 120.741ZM264.536 113.642L261.212 113.847C261.156 113.562 261.033 113.307 260.846 113.08C260.658 112.847 260.411 112.662 260.104 112.526C259.803 112.384 259.442 112.312 259.022 112.312C258.46 112.312 257.985 112.432 257.599 112.67C257.212 112.903 257.019 113.216 257.019 113.608C257.019 113.92 257.144 114.185 257.394 114.401C257.644 114.616 258.073 114.79 258.681 114.92L261.05 115.398C262.323 115.659 263.272 116.08 263.897 116.659C264.522 117.239 264.835 118 264.835 118.943C264.835 119.801 264.582 120.554 264.076 121.202C263.576 121.849 262.888 122.355 262.013 122.719C261.144 123.077 260.141 123.256 259.005 123.256C257.272 123.256 255.891 122.895 254.863 122.173C253.84 121.446 253.241 120.457 253.065 119.207L256.636 119.02C256.744 119.548 257.005 119.952 257.42 120.23C257.835 120.503 258.366 120.639 259.013 120.639C259.65 120.639 260.161 120.517 260.548 120.273C260.94 120.023 261.138 119.702 261.144 119.31C261.138 118.98 260.999 118.71 260.727 118.5C260.454 118.284 260.033 118.119 259.465 118.006L257.198 117.554C255.92 117.298 254.968 116.855 254.343 116.224C253.724 115.594 253.414 114.79 253.414 113.812C253.414 112.972 253.641 112.247 254.096 111.639C254.556 111.031 255.201 110.562 256.031 110.233C256.866 109.903 257.843 109.739 258.962 109.739C260.616 109.739 261.917 110.088 262.866 110.787C263.82 111.486 264.377 112.437 264.536 113.642ZM278.013 113.642L274.689 113.847C274.632 113.562 274.51 113.307 274.322 113.08C274.135 112.847 273.888 112.662 273.581 112.526C273.28 112.384 272.919 112.312 272.499 112.312C271.936 112.312 271.462 112.432 271.075 112.67C270.689 112.903 270.496 113.216 270.496 113.608C270.496 113.92 270.621 114.185 270.871 114.401C271.121 114.616 271.55 114.79 272.158 114.92L274.527 115.398C275.8 115.659 276.749 116.08 277.374 116.659C277.999 117.239 278.311 118 278.311 118.943C278.311 119.801 278.058 120.554 277.553 121.202C277.053 121.849 276.365 122.355 275.49 122.719C274.621 123.077 273.618 123.256 272.482 123.256C270.749 123.256 269.368 122.895 268.339 122.173C267.317 121.446 266.717 120.457 266.541 119.207L270.112 119.02C270.22 119.548 270.482 119.952 270.896 120.23C271.311 120.503 271.842 120.639 272.49 120.639C273.126 120.639 273.638 120.517 274.024 120.273C274.416 120.023 274.615 119.702 274.621 119.31C274.615 118.98 274.476 118.71 274.203 118.5C273.93 118.284 273.51 118.119 272.942 118.006L270.675 117.554C269.396 117.298 268.445 116.855 267.82 116.224C267.2 115.594 266.891 114.79 266.891 113.812C266.891 112.972 267.118 112.247 267.572 111.639C268.033 111.031 268.678 110.562 269.507 110.233C270.342 109.903 271.32 109.739 272.439 109.739C274.092 109.739 275.393 110.088 276.342 110.787C277.297 111.486 277.854 112.437 278.013 113.642ZM283.18 123L279.617 109.909H283.29L285.319 118.705H285.438L287.552 109.909H291.157L293.305 118.653H293.415L295.41 109.909H299.075L295.521 123H291.677L289.427 114.767H289.265L287.015 123H283.18ZM306.598 123.256C305.274 123.256 304.129 122.974 303.163 122.412C302.203 121.844 301.462 121.054 300.939 120.043C300.416 119.026 300.155 117.847 300.155 116.506C300.155 115.153 300.416 113.972 300.939 112.96C301.462 111.943 302.203 111.153 303.163 110.591C304.129 110.023 305.274 109.739 306.598 109.739C307.922 109.739 309.064 110.023 310.024 110.591C310.99 111.153 311.734 111.943 312.257 112.96C312.78 113.972 313.041 115.153 313.041 116.506C313.041 117.847 312.78 119.026 312.257 120.043C311.734 121.054 310.99 121.844 310.024 122.412C309.064 122.974 307.922 123.256 306.598 123.256ZM306.615 120.443C307.217 120.443 307.72 120.273 308.124 119.932C308.527 119.585 308.831 119.114 309.036 118.517C309.246 117.92 309.351 117.241 309.351 116.48C309.351 115.719 309.246 115.04 309.036 114.443C308.831 113.847 308.527 113.375 308.124 113.028C307.72 112.682 307.217 112.509 306.615 112.509C306.007 112.509 305.496 112.682 305.081 113.028C304.672 113.375 304.362 113.847 304.152 114.443C303.947 115.04 303.845 115.719 303.845 116.48C303.845 117.241 303.947 117.92 304.152 118.517C304.362 119.114 304.672 119.585 305.081 119.932C305.496 120.273 306.007 120.443 306.615 120.443ZM315.402 123V109.909H318.922V112.193H319.058C319.297 111.381 319.697 110.767 320.26 110.352C320.822 109.932 321.47 109.722 322.203 109.722C322.385 109.722 322.581 109.733 322.791 109.756C323.001 109.778 323.186 109.81 323.345 109.849V113.071C323.175 113.02 322.939 112.974 322.638 112.935C322.337 112.895 322.061 112.875 321.811 112.875C321.277 112.875 320.8 112.991 320.379 113.224C319.964 113.452 319.635 113.77 319.391 114.179C319.152 114.588 319.033 115.06 319.033 115.594V123H315.402ZM329.437 123.213C328.442 123.213 327.542 122.957 326.735 122.446C325.934 121.929 325.298 121.17 324.826 120.17C324.36 119.165 324.127 117.932 324.127 116.472C324.127 114.972 324.369 113.724 324.852 112.73C325.335 111.73 325.977 110.983 326.778 110.489C327.585 109.989 328.468 109.739 329.428 109.739C330.161 109.739 330.772 109.864 331.261 110.114C331.755 110.358 332.153 110.665 332.454 111.034C332.761 111.398 332.994 111.756 333.153 112.108H333.263V105.545H336.886V123H333.306V120.903H333.153C332.982 121.267 332.741 121.628 332.428 121.986C332.121 122.338 331.721 122.631 331.227 122.864C330.738 123.097 330.141 123.213 329.437 123.213ZM330.587 120.324C331.173 120.324 331.667 120.165 332.07 119.847C332.479 119.523 332.792 119.071 333.008 118.491C333.229 117.912 333.34 117.233 333.34 116.455C333.34 115.676 333.232 115 333.016 114.426C332.8 113.852 332.488 113.409 332.079 113.097C331.67 112.784 331.173 112.628 330.587 112.628C329.991 112.628 329.488 112.79 329.079 113.114C328.67 113.437 328.36 113.886 328.15 114.46C327.94 115.034 327.835 115.699 327.835 116.455C327.835 117.216 327.94 117.889 328.15 118.474C328.366 119.054 328.675 119.509 329.079 119.838C329.488 120.162 329.991 120.324 330.587 120.324Z" fill="black"/>
<path d="M27.7237 156V144.364H34.9396V145.875H29.4794V149.42H34.4226V150.926H29.4794V156H27.7237ZM39.9979 156.176C39.1797 156.176 38.4657 155.989 37.8558 155.614C37.246 155.239 36.7725 154.714 36.4354 154.04C36.0982 153.366 35.9297 152.578 35.9297 151.676C35.9297 150.771 36.0982 149.979 36.4354 149.301C36.7725 148.623 37.246 148.097 37.8558 147.722C38.4657 147.347 39.1797 147.159 39.9979 147.159C40.8161 147.159 41.5301 147.347 42.1399 147.722C42.7498 148.097 43.2232 148.623 43.5604 149.301C43.8975 149.979 44.0661 150.771 44.0661 151.676C44.0661 152.578 43.8975 153.366 43.5604 154.04C43.2232 154.714 42.7498 155.239 42.1399 155.614C41.5301 155.989 40.8161 156.176 39.9979 156.176ZM40.0036 154.75C40.5339 154.75 40.9732 154.61 41.3217 154.33C41.6702 154.049 41.9278 153.676 42.0945 153.21C42.2649 152.744 42.3501 152.231 42.3501 151.67C42.3501 151.114 42.2649 150.602 42.0945 150.136C41.9278 149.667 41.6702 149.29 41.3217 149.006C40.9732 148.722 40.5339 148.58 40.0036 148.58C39.4695 148.58 39.0263 148.722 38.674 149.006C38.3255 149.29 38.0661 149.667 37.8956 150.136C37.7289 150.602 37.6456 151.114 37.6456 151.67C37.6456 152.231 37.7289 152.744 37.8956 153.21C38.0661 153.676 38.3255 154.049 38.674 154.33C39.0263 154.61 39.4695 154.75 40.0036 154.75ZM45.9624 156V147.273H47.6044V148.659H47.6953C47.8544 148.189 48.1347 147.82 48.5362 147.551C48.9415 147.278 49.3999 147.142 49.9112 147.142C50.0173 147.142 50.1423 147.146 50.2862 147.153C50.4339 147.161 50.5495 147.17 50.6328 147.182V148.807C50.5646 148.788 50.4434 148.767 50.2692 148.744C50.0949 148.718 49.9207 148.705 49.7464 148.705C49.3449 148.705 48.987 148.79 48.6726 148.96C48.362 149.127 48.1158 149.36 47.9339 149.659C47.7521 149.955 47.6612 150.292 47.6612 150.67V156H45.9624ZM62.8771 149.403L61.3374 149.676C61.273 149.479 61.1707 149.292 61.0305 149.114C60.8942 148.936 60.7086 148.79 60.4737 148.676C60.2389 148.562 59.9453 148.506 59.593 148.506C59.112 148.506 58.7105 148.614 58.3885 148.83C58.0665 149.042 57.9055 149.316 57.9055 149.653C57.9055 149.945 58.0135 150.18 58.2294 150.358C58.4453 150.536 58.7938 150.682 59.2749 150.795L60.6612 151.114C61.4643 151.299 62.0627 151.585 62.4567 151.972C62.8506 152.358 63.0476 152.86 63.0476 153.477C63.0476 154 62.8961 154.466 62.593 154.875C62.2938 155.28 61.8752 155.598 61.3374 155.83C60.8033 156.061 60.1839 156.176 59.4794 156.176C58.5021 156.176 57.7048 155.968 57.0874 155.551C56.4699 155.131 56.0911 154.534 55.951 153.761L57.593 153.511C57.6953 153.939 57.9055 154.263 58.2237 154.483C58.5419 154.699 58.9567 154.807 59.468 154.807C60.0249 154.807 60.4699 154.691 60.8033 154.46C61.1366 154.225 61.3033 153.939 61.3033 153.602C61.3033 153.33 61.201 153.1 60.9964 152.915C60.7957 152.729 60.487 152.589 60.0703 152.494L58.593 152.17C57.7786 151.985 57.1764 151.689 56.7862 151.284C56.3999 150.879 56.2067 150.366 56.2067 149.744C56.2067 149.229 56.3506 148.778 56.6385 148.392C56.9264 148.006 57.3241 147.705 57.8317 147.489C58.3393 147.269 58.9207 147.159 59.576 147.159C60.5192 147.159 61.2616 147.364 61.8033 147.773C62.3449 148.178 62.7029 148.722 62.8771 149.403ZM68.6768 156.176C67.817 156.176 67.0765 155.992 66.4553 155.625C65.8378 155.254 65.3606 154.733 65.0234 154.062C64.6901 153.388 64.5234 152.598 64.5234 151.693C64.5234 150.799 64.6901 150.011 65.0234 149.33C65.3606 148.648 65.8303 148.116 66.4325 147.733C67.0386 147.35 67.7469 147.159 68.5575 147.159C69.05 147.159 69.5272 147.241 69.9893 147.403C70.4515 147.566 70.8662 147.822 71.2337 148.17C71.6011 148.519 71.8909 148.972 72.103 149.528C72.3151 150.081 72.4212 150.754 72.4212 151.545V152.148H65.4837V150.875H70.7564C70.7564 150.428 70.6655 150.032 70.4837 149.688C70.3018 149.339 70.0462 149.064 69.7166 148.864C69.3909 148.663 69.0083 148.562 68.5689 148.562C68.0916 148.562 67.675 148.68 67.3189 148.915C66.9666 149.146 66.6939 149.449 66.5007 149.824C66.3113 150.195 66.2166 150.598 66.2166 151.034V152.028C66.2166 152.612 66.3189 153.108 66.5234 153.517C66.7318 153.926 67.0215 154.239 67.3928 154.455C67.764 154.667 68.1977 154.773 68.6939 154.773C69.0159 154.773 69.3094 154.727 69.5746 154.636C69.8397 154.542 70.0689 154.402 70.2621 154.216C70.4553 154.03 70.603 153.801 70.7053 153.528L72.3132 153.818C72.1844 154.292 71.9534 154.706 71.62 155.062C71.2905 155.415 70.8757 155.689 70.3757 155.886C69.8795 156.08 69.3132 156.176 68.6768 156.176ZM77.9822 156.176C77.1375 156.176 76.4103 155.985 75.8004 155.602C75.1944 155.216 74.7285 154.684 74.4027 154.006C74.0769 153.328 73.9141 152.551 73.9141 151.676C73.9141 150.79 74.0807 150.008 74.4141 149.33C74.7474 148.648 75.2171 148.116 75.8232 147.733C76.4292 147.35 77.1432 147.159 77.9652 147.159C78.6281 147.159 79.219 147.282 79.7379 147.528C80.2569 147.771 80.6754 148.112 80.9936 148.551C81.3156 148.991 81.5069 149.504 81.5675 150.091H79.9141C79.8232 149.682 79.6148 149.33 79.2891 149.034C78.9671 148.739 78.5353 148.591 77.9936 148.591C77.5201 148.591 77.1054 148.716 76.7493 148.966C76.397 149.212 76.1224 149.564 75.9254 150.023C75.7285 150.477 75.63 151.015 75.63 151.636C75.63 152.273 75.7266 152.822 75.9197 153.284C76.1129 153.746 76.3857 154.104 76.7379 154.358C77.094 154.612 77.5125 154.739 77.9936 154.739C78.3156 154.739 78.6072 154.68 78.8686 154.562C79.1338 154.441 79.3554 154.269 79.5334 154.045C79.7152 153.822 79.8421 153.553 79.9141 153.239H81.5675C81.5069 153.803 81.3232 154.307 81.0163 154.75C80.7095 155.193 80.2985 155.542 79.7834 155.795C79.272 156.049 78.6716 156.176 77.9822 156.176ZM88.9126 152.381V147.273H90.6172V156H88.9467V154.489H88.8558C88.6551 154.955 88.3331 155.343 87.8899 155.653C87.4505 155.96 86.9032 156.114 86.2479 156.114C85.6873 156.114 85.1911 155.991 84.7592 155.744C84.3312 155.494 83.9941 155.125 83.7479 154.636C83.5054 154.148 83.3842 153.544 83.3842 152.824V147.273H85.0831V152.619C85.0831 153.214 85.2479 153.687 85.5774 154.04C85.907 154.392 86.335 154.568 86.8615 154.568C87.1797 154.568 87.496 154.489 87.8104 154.33C88.1286 154.17 88.3918 153.93 88.6001 153.608C88.8123 153.286 88.9164 152.877 88.9126 152.381ZM92.8999 156V147.273H94.5419V148.659H94.6328C94.7919 148.189 95.0722 147.82 95.4737 147.551C95.879 147.278 96.3374 147.142 96.8487 147.142C96.9548 147.142 97.0798 147.146 97.2237 147.153C97.3714 147.161 97.487 147.17 97.5703 147.182V148.807C97.5021 148.788 97.3809 148.767 97.2067 148.744C97.0324 148.718 96.8582 148.705 96.6839 148.705C96.2824 148.705 95.9245 148.79 95.6101 148.96C95.2995 149.127 95.0533 149.36 94.8714 149.659C94.6896 149.955 94.5987 150.292 94.5987 150.67V156H92.8999ZM99.0405 156V147.273H100.739V156H99.0405ZM99.8984 145.926C99.603 145.926 99.3492 145.828 99.1371 145.631C98.9287 145.43 98.8246 145.191 98.8246 144.915C98.8246 144.634 98.9287 144.396 99.1371 144.199C99.3492 143.998 99.603 143.898 99.8984 143.898C100.194 143.898 100.446 143.998 100.654 144.199C100.866 144.396 100.972 144.634 100.972 144.915C100.972 145.191 100.866 145.43 100.654 145.631C100.446 145.828 100.194 145.926 99.8984 145.926ZM107.099 147.273V148.636H102.332V147.273H107.099ZM103.61 145.182H105.309V153.438C105.309 153.767 105.358 154.015 105.457 154.182C105.555 154.345 105.682 154.456 105.837 154.517C105.996 154.574 106.169 154.602 106.354 154.602C106.491 154.602 106.61 154.593 106.712 154.574C106.815 154.555 106.894 154.54 106.951 154.528L107.258 155.932C107.159 155.97 107.019 156.008 106.837 156.045C106.656 156.087 106.428 156.11 106.156 156.114C105.709 156.121 105.292 156.042 104.906 155.875C104.519 155.708 104.207 155.451 103.968 155.102C103.729 154.754 103.61 154.316 103.61 153.79V145.182ZM110.052 159.273C109.798 159.273 109.567 159.252 109.359 159.21C109.15 159.172 108.995 159.131 108.893 159.085L109.302 157.693C109.612 157.777 109.889 157.813 110.131 157.801C110.374 157.79 110.588 157.699 110.773 157.528C110.963 157.358 111.129 157.08 111.273 156.693L111.484 156.114L108.29 147.273H110.109L112.319 154.045H112.41L114.62 147.273H116.444L112.847 157.165C112.681 157.619 112.469 158.004 112.211 158.318C111.953 158.636 111.647 158.875 111.29 159.034C110.934 159.193 110.522 159.273 110.052 159.273ZM119.704 154.409L119.619 155.028C119.562 155.483 119.465 155.956 119.329 156.449C119.196 156.945 119.058 157.405 118.914 157.83C118.774 158.254 118.658 158.591 118.567 158.841H117.363C117.412 158.606 117.48 158.288 117.567 157.886C117.655 157.489 117.74 157.044 117.823 156.551C117.906 156.059 117.969 155.557 118.011 155.045L118.067 154.409H119.704ZM123.177 159.273C122.923 159.273 122.692 159.252 122.484 159.21C122.275 159.172 122.12 159.131 122.018 159.085L122.427 157.693C122.737 157.777 123.014 157.813 123.256 157.801C123.499 157.79 123.713 157.699 123.898 157.528C124.088 157.358 124.254 157.08 124.398 156.693L124.609 156.114L121.415 147.273H123.234L125.444 154.045H125.535L127.745 147.273H129.569L125.972 157.165C125.806 157.619 125.594 158.004 125.336 158.318C125.078 158.636 124.772 158.875 124.415 159.034C124.059 159.193 123.647 159.273 123.177 159.273ZM134.545 156.176C133.727 156.176 133.013 155.989 132.403 155.614C131.793 155.239 131.319 154.714 130.982 154.04C130.645 153.366 130.477 152.578 130.477 151.676C130.477 150.771 130.645 149.979 130.982 149.301C131.319 148.623 131.793 148.097 132.403 147.722C133.013 147.347 133.727 147.159 134.545 147.159C135.363 147.159 136.077 147.347 136.687 147.722C137.297 148.097 137.77 148.623 138.107 149.301C138.444 149.979 138.613 150.771 138.613 151.676C138.613 152.578 138.444 153.366 138.107 154.04C137.77 154.714 137.297 155.239 136.687 155.614C136.077 155.989 135.363 156.176 134.545 156.176ZM134.55 154.75C135.081 154.75 135.52 154.61 135.869 154.33C136.217 154.049 136.475 153.676 136.641 153.21C136.812 152.744 136.897 152.231 136.897 151.67C136.897 151.114 136.812 150.602 136.641 150.136C136.475 149.667 136.217 149.29 135.869 149.006C135.52 148.722 135.081 148.58 134.55 148.58C134.016 148.58 133.573 148.722 133.221 149.006C132.872 149.29 132.613 149.667 132.442 150.136C132.276 150.602 132.192 151.114 132.192 151.67C132.192 152.231 132.276 152.744 132.442 153.21C132.613 153.676 132.872 154.049 133.221 154.33C133.573 154.61 134.016 154.75 134.55 154.75ZM146.038 152.381V147.273H147.742V156H146.072V154.489H145.981C145.78 154.955 145.458 155.343 145.015 155.653C144.576 155.96 144.028 156.114 143.373 156.114C142.812 156.114 142.316 155.991 141.884 155.744C141.456 155.494 141.119 155.125 140.873 154.636C140.63 154.148 140.509 153.544 140.509 152.824V147.273H142.208V152.619C142.208 153.214 142.373 153.687 142.702 154.04C143.032 154.392 143.46 154.568 143.987 154.568C144.305 154.568 144.621 154.489 144.935 154.33C145.254 154.17 145.517 153.93 145.725 153.608C145.937 153.286 146.041 152.877 146.038 152.381ZM150.025 156V147.273H151.667V148.659H151.758C151.917 148.189 152.197 147.82 152.599 147.551C153.004 147.278 153.462 147.142 153.974 147.142C154.08 147.142 154.205 147.146 154.349 147.153C154.496 147.161 154.612 147.17 154.695 147.182V148.807C154.627 148.788 154.506 148.767 154.332 148.744C154.157 148.718 153.983 148.705 153.809 148.705C153.407 148.705 153.049 148.79 152.735 148.96C152.424 149.127 152.178 149.36 151.996 149.659C151.815 149.955 151.724 150.292 151.724 150.67V156H150.025ZM160.4 159.273V147.273H162.059V148.688H162.201C162.299 148.506 162.442 148.295 162.627 148.057C162.813 147.818 163.07 147.61 163.4 147.432C163.729 147.25 164.165 147.159 164.707 147.159C165.411 147.159 166.04 147.337 166.593 147.693C167.146 148.049 167.58 148.562 167.894 149.233C168.212 149.903 168.371 150.71 168.371 151.653C168.371 152.597 168.214 153.405 167.9 154.08C167.585 154.75 167.154 155.267 166.604 155.631C166.055 155.991 165.428 156.17 164.724 156.17C164.193 156.17 163.76 156.081 163.423 155.903C163.089 155.725 162.828 155.517 162.638 155.278C162.449 155.04 162.303 154.828 162.201 154.642H162.099V159.273H160.4ZM162.065 151.636C162.065 152.25 162.154 152.788 162.332 153.25C162.51 153.712 162.767 154.074 163.104 154.335C163.442 154.593 163.854 154.722 164.343 154.722C164.851 154.722 165.275 154.587 165.616 154.318C165.957 154.045 166.214 153.676 166.388 153.21C166.567 152.744 166.656 152.22 166.656 151.636C166.656 151.061 166.568 150.544 166.394 150.085C166.224 149.627 165.966 149.265 165.621 149C165.281 148.735 164.854 148.602 164.343 148.602C163.851 148.602 163.434 148.729 163.093 148.983C162.756 149.237 162.5 149.591 162.326 150.045C162.152 150.5 162.065 151.03 162.065 151.636ZM172.815 156.193C172.262 156.193 171.762 156.091 171.315 155.886C170.868 155.678 170.513 155.377 170.252 154.983C169.995 154.589 169.866 154.106 169.866 153.534C169.866 153.042 169.96 152.636 170.15 152.318C170.339 152 170.595 151.748 170.917 151.562C171.239 151.377 171.599 151.237 171.996 151.142C172.394 151.047 172.799 150.975 173.212 150.926C173.735 150.866 174.159 150.816 174.485 150.778C174.811 150.737 175.048 150.67 175.195 150.58C175.343 150.489 175.417 150.341 175.417 150.136V150.097C175.417 149.6 175.277 149.216 174.996 148.943C174.72 148.67 174.307 148.534 173.758 148.534C173.186 148.534 172.735 148.661 172.406 148.915C172.08 149.165 171.854 149.443 171.729 149.75L170.133 149.386C170.322 148.856 170.599 148.428 170.962 148.102C171.33 147.773 171.752 147.534 172.229 147.386C172.707 147.235 173.209 147.159 173.735 147.159C174.084 147.159 174.453 147.201 174.843 147.284C175.237 147.364 175.604 147.511 175.945 147.727C176.29 147.943 176.572 148.252 176.792 148.653C177.012 149.051 177.121 149.568 177.121 150.205V156H175.462V154.807H175.394C175.284 155.027 175.12 155.242 174.9 155.455C174.68 155.667 174.398 155.843 174.053 155.983C173.709 156.123 173.296 156.193 172.815 156.193ZM173.184 154.83C173.654 154.83 174.055 154.737 174.388 154.551C174.726 154.366 174.981 154.123 175.156 153.824C175.334 153.521 175.423 153.197 175.423 152.852V151.727C175.362 151.788 175.245 151.845 175.07 151.898C174.9 151.947 174.705 151.991 174.485 152.028C174.265 152.062 174.051 152.095 173.843 152.125C173.635 152.152 173.46 152.174 173.32 152.193C172.991 152.235 172.69 152.305 172.417 152.403C172.148 152.502 171.932 152.644 171.769 152.83C171.61 153.011 171.531 153.254 171.531 153.557C171.531 153.977 171.686 154.295 171.996 154.511C172.307 154.723 172.703 154.83 173.184 154.83ZM185.924 149.403L184.384 149.676C184.32 149.479 184.218 149.292 184.077 149.114C183.941 148.936 183.755 148.79 183.521 148.676C183.286 148.562 182.992 148.506 182.64 148.506C182.159 148.506 181.757 148.614 181.435 148.83C181.113 149.042 180.952 149.316 180.952 149.653C180.952 149.945 181.06 150.18 181.276 150.358C181.492 150.536 181.841 150.682 182.322 150.795L183.708 151.114C184.511 151.299 185.11 151.585 185.504 151.972C185.897 152.358 186.094 152.86 186.094 153.477C186.094 154 185.943 154.466 185.64 154.875C185.341 155.28 184.922 155.598 184.384 155.83C183.85 156.061 183.231 156.176 182.526 156.176C181.549 156.176 180.752 155.968 180.134 155.551C179.517 155.131 179.138 154.534 178.998 153.761L180.64 153.511C180.742 153.939 180.952 154.263 181.271 154.483C181.589 154.699 182.004 154.807 182.515 154.807C183.072 154.807 183.517 154.691 183.85 154.46C184.183 154.225 184.35 153.939 184.35 153.602C184.35 153.33 184.248 153.1 184.043 152.915C183.843 152.729 183.534 152.589 183.117 152.494L181.64 152.17C180.826 151.985 180.223 151.689 179.833 151.284C179.447 150.879 179.254 150.366 179.254 149.744C179.254 149.229 179.397 148.778 179.685 148.392C179.973 148.006 180.371 147.705 180.879 147.489C181.386 147.269 181.968 147.159 182.623 147.159C183.566 147.159 184.308 147.364 184.85 147.773C185.392 148.178 185.75 148.722 185.924 149.403ZM194.502 149.403L192.962 149.676C192.898 149.479 192.796 149.292 192.656 149.114C192.519 148.936 192.334 148.79 192.099 148.676C191.864 148.562 191.57 148.506 191.218 148.506C190.737 148.506 190.335 148.614 190.013 148.83C189.692 149.042 189.531 149.316 189.531 149.653C189.531 149.945 189.638 150.18 189.854 150.358C190.07 150.536 190.419 150.682 190.9 150.795L192.286 151.114C193.089 151.299 193.688 151.585 194.082 151.972C194.476 152.358 194.673 152.86 194.673 153.477C194.673 154 194.521 154.466 194.218 154.875C193.919 155.28 193.5 155.598 192.962 155.83C192.428 156.061 191.809 156.176 191.104 156.176C190.127 156.176 189.33 155.968 188.712 155.551C188.095 155.131 187.716 154.534 187.576 153.761L189.218 153.511C189.32 153.939 189.531 154.263 189.849 154.483C190.167 154.699 190.582 154.807 191.093 154.807C191.65 154.807 192.095 154.691 192.428 154.46C192.762 154.225 192.928 153.939 192.928 153.602C192.928 153.33 192.826 153.1 192.621 152.915C192.421 152.729 192.112 152.589 191.695 152.494L190.218 152.17C189.404 151.985 188.801 151.689 188.411 151.284C188.025 150.879 187.832 150.366 187.832 149.744C187.832 149.229 187.976 148.778 188.263 148.392C188.551 148.006 188.949 147.705 189.457 147.489C189.964 147.269 190.546 147.159 191.201 147.159C192.144 147.159 192.887 147.364 193.428 147.773C193.97 148.178 194.328 148.722 194.502 149.403ZM198.433 156L195.864 147.273H197.62L199.33 153.682H199.415L201.131 147.273H202.887L204.592 153.653H204.677L206.376 147.273H208.131L205.569 156H203.836L202.063 149.699H201.933L200.16 156H198.433ZM213.154 156.176C212.336 156.176 211.622 155.989 211.012 155.614C210.402 155.239 209.929 154.714 209.592 154.04C209.254 153.366 209.086 152.578 209.086 151.676C209.086 150.771 209.254 149.979 209.592 149.301C209.929 148.623 210.402 148.097 211.012 147.722C211.622 147.347 212.336 147.159 213.154 147.159C213.972 147.159 214.686 147.347 215.296 147.722C215.906 148.097 216.379 148.623 216.717 149.301C217.054 149.979 217.222 150.771 217.222 151.676C217.222 152.578 217.054 153.366 216.717 154.04C216.379 154.714 215.906 155.239 215.296 155.614C214.686 155.989 213.972 156.176 213.154 156.176ZM213.16 154.75C213.69 154.75 214.129 154.61 214.478 154.33C214.826 154.049 215.084 153.676 215.251 153.21C215.421 152.744 215.506 152.231 215.506 151.67C215.506 151.114 215.421 150.602 215.251 150.136C215.084 149.667 214.826 149.29 214.478 149.006C214.129 148.722 213.69 148.58 213.16 148.58C212.626 148.58 212.183 148.722 211.83 149.006C211.482 149.29 211.222 149.667 211.052 150.136C210.885 150.602 210.802 151.114 210.802 151.67C210.802 152.231 210.885 152.744 211.052 153.21C211.222 153.676 211.482 154.049 211.83 154.33C212.183 154.61 212.626 154.75 213.16 154.75ZM219.119 156V147.273H220.761V148.659H220.852C221.011 148.189 221.291 147.82 221.692 147.551C222.098 147.278 222.556 147.142 223.067 147.142C223.174 147.142 223.299 147.146 223.442 147.153C223.59 147.161 223.706 147.17 223.789 147.182V148.807C223.721 148.788 223.6 148.767 223.425 148.744C223.251 148.718 223.077 148.705 222.903 148.705C222.501 148.705 222.143 148.79 221.829 148.96C221.518 149.127 221.272 149.36 221.09 149.659C220.908 149.955 220.817 150.292 220.817 150.67V156H219.119ZM228.214 156.17C227.509 156.17 226.88 155.991 226.327 155.631C225.778 155.267 225.346 154.75 225.032 154.08C224.721 153.405 224.566 152.597 224.566 151.653C224.566 150.71 224.723 149.903 225.038 149.233C225.356 148.562 225.791 148.049 226.344 147.693C226.897 147.337 227.524 147.159 228.225 147.159C228.767 147.159 229.202 147.25 229.532 147.432C229.865 147.61 230.123 147.818 230.305 148.057C230.49 148.295 230.634 148.506 230.737 148.688H230.839V144.364H232.538V156H230.879V154.642H230.737C230.634 154.828 230.487 155.04 230.293 155.278C230.104 155.517 229.843 155.725 229.509 155.903C229.176 156.081 228.744 156.17 228.214 156.17ZM228.589 154.722C229.077 154.722 229.49 154.593 229.827 154.335C230.168 154.074 230.426 153.712 230.6 153.25C230.778 152.788 230.867 152.25 230.867 151.636C230.867 151.03 230.78 150.5 230.606 150.045C230.432 149.591 230.176 149.237 229.839 148.983C229.502 148.729 229.085 148.602 228.589 148.602C228.077 148.602 227.651 148.735 227.31 149C226.969 149.265 226.712 149.627 226.538 150.085C226.367 150.544 226.282 151.061 226.282 151.636C226.282 152.22 226.369 152.744 226.543 153.21C226.718 153.676 226.975 154.045 227.316 154.318C227.661 154.587 228.085 154.722 228.589 154.722ZM239.197 156V147.273H240.827V148.693H240.935C241.117 148.212 241.415 147.837 241.827 147.568C242.24 147.295 242.735 147.159 243.31 147.159C243.894 147.159 244.382 147.295 244.776 147.568C245.174 147.841 245.468 148.216 245.657 148.693H245.748C245.956 148.227 246.288 147.856 246.742 147.58C247.197 147.299 247.738 147.159 248.367 147.159C249.159 147.159 249.805 147.407 250.305 147.903C250.808 148.4 251.06 149.148 251.06 150.148V156H249.362V150.307C249.362 149.716 249.201 149.288 248.879 149.023C248.557 148.758 248.172 148.625 247.725 148.625C247.172 148.625 246.742 148.795 246.435 149.136C246.129 149.473 245.975 149.907 245.975 150.438V156H244.282V150.199C244.282 149.725 244.134 149.345 243.839 149.057C243.543 148.769 243.159 148.625 242.685 148.625C242.363 148.625 242.066 148.71 241.793 148.881C241.524 149.047 241.307 149.28 241.14 149.58C240.977 149.879 240.896 150.225 240.896 150.619V156H239.197ZM258.866 152.381V147.273H260.57V156H258.9V154.489H258.809C258.608 154.955 258.286 155.343 257.843 155.653C257.404 155.96 256.856 156.114 256.201 156.114C255.64 156.114 255.144 155.991 254.712 155.744C254.284 155.494 253.947 155.125 253.701 154.636C253.459 154.148 253.337 153.544 253.337 152.824V147.273H255.036V152.619C255.036 153.214 255.201 153.687 255.531 154.04C255.86 154.392 256.288 154.568 256.815 154.568C257.133 154.568 257.449 154.489 257.763 154.33C258.082 154.17 258.345 153.93 258.553 153.608C258.765 153.286 258.87 152.877 258.866 152.381ZM269.393 149.403L267.853 149.676C267.789 149.479 267.686 149.292 267.546 149.114C267.41 148.936 267.224 148.79 266.989 148.676C266.754 148.562 266.461 148.506 266.109 148.506C265.628 148.506 265.226 148.614 264.904 148.83C264.582 149.042 264.421 149.316 264.421 149.653C264.421 149.945 264.529 150.18 264.745 150.358C264.961 150.536 265.309 150.682 265.79 150.795L267.177 151.114C267.98 151.299 268.578 151.585 268.972 151.972C269.366 152.358 269.563 152.86 269.563 153.477C269.563 154 269.412 154.466 269.109 154.875C268.809 155.28 268.391 155.598 267.853 155.83C267.319 156.061 266.7 156.176 265.995 156.176C265.018 156.176 264.22 155.968 263.603 155.551C262.986 155.131 262.607 154.534 262.467 153.761L264.109 153.511C264.211 153.939 264.421 154.263 264.739 154.483C265.058 154.699 265.472 154.807 265.984 154.807C266.54 154.807 266.986 154.691 267.319 154.46C267.652 154.225 267.819 153.939 267.819 153.602C267.819 153.33 267.717 153.1 267.512 152.915C267.311 152.729 267.003 152.589 266.586 152.494L265.109 152.17C264.294 151.985 263.692 151.689 263.302 151.284C262.915 150.879 262.722 150.366 262.722 149.744C262.722 149.229 262.866 148.778 263.154 148.392C263.442 148.006 263.84 147.705 264.347 147.489C264.855 147.269 265.436 147.159 266.092 147.159C267.035 147.159 267.777 147.364 268.319 147.773C268.861 148.178 269.219 148.722 269.393 149.403ZM275.505 147.273V148.636H270.738V147.273H275.505ZM272.016 145.182H273.715V153.438C273.715 153.767 273.764 154.015 273.863 154.182C273.961 154.345 274.088 154.456 274.244 154.517C274.403 154.574 274.575 154.602 274.761 154.602C274.897 154.602 275.016 154.593 275.119 154.574C275.221 154.555 275.3 154.54 275.357 154.528L275.664 155.932C275.566 155.97 275.425 156.008 275.244 156.045C275.062 156.087 274.835 156.11 274.562 156.114C274.115 156.121 273.698 156.042 273.312 155.875C272.925 155.708 272.613 155.451 272.374 155.102C272.136 154.754 272.016 154.316 272.016 153.79V145.182ZM281.755 156V144.364H283.454V148.688H283.556C283.655 148.506 283.797 148.295 283.982 148.057C284.168 147.818 284.425 147.61 284.755 147.432C285.085 147.25 285.52 147.159 286.062 147.159C286.766 147.159 287.395 147.337 287.948 147.693C288.501 148.049 288.935 148.562 289.249 149.233C289.567 149.903 289.727 150.71 289.727 151.653C289.727 152.597 289.569 153.405 289.255 154.08C288.941 154.75 288.509 155.267 287.96 155.631C287.41 155.991 286.783 156.17 286.079 156.17C285.549 156.17 285.115 156.081 284.778 155.903C284.444 155.725 284.183 155.517 283.994 155.278C283.804 155.04 283.658 154.828 283.556 154.642H283.414V156H281.755ZM283.42 151.636C283.42 152.25 283.509 152.788 283.687 153.25C283.865 153.712 284.122 154.074 284.46 154.335C284.797 154.593 285.21 154.722 285.698 154.722C286.206 154.722 286.63 154.587 286.971 154.318C287.312 154.045 287.569 153.676 287.744 153.21C287.922 152.744 288.011 152.22 288.011 151.636C288.011 151.061 287.924 150.544 287.749 150.085C287.579 149.627 287.321 149.265 286.977 149C286.636 148.735 286.21 148.602 285.698 148.602C285.206 148.602 284.789 148.729 284.448 148.983C284.111 149.237 283.855 149.591 283.681 150.045C283.507 150.5 283.42 151.03 283.42 151.636ZM295.396 156.176C294.536 156.176 293.795 155.992 293.174 155.625C292.557 155.254 292.079 154.733 291.742 154.062C291.409 153.388 291.242 152.598 291.242 151.693C291.242 150.799 291.409 150.011 291.742 149.33C292.079 148.648 292.549 148.116 293.151 147.733C293.757 147.35 294.466 147.159 295.276 147.159C295.769 147.159 296.246 147.241 296.708 147.403C297.17 147.566 297.585 147.822 297.952 148.17C298.32 148.519 298.61 148.972 298.822 149.528C299.034 150.081 299.14 150.754 299.14 151.545V152.148H292.202V150.875H297.475C297.475 150.428 297.384 150.032 297.202 149.688C297.021 149.339 296.765 149.064 296.435 148.864C296.11 148.663 295.727 148.562 295.288 148.562C294.81 148.562 294.394 148.68 294.038 148.915C293.685 149.146 293.413 149.449 293.219 149.824C293.03 150.195 292.935 150.598 292.935 151.034V152.028C292.935 152.612 293.038 153.108 293.242 153.517C293.451 153.926 293.74 154.239 294.112 154.455C294.483 154.667 294.916 154.773 295.413 154.773C295.735 154.773 296.028 154.727 296.293 154.636C296.558 154.542 296.788 154.402 296.981 154.216C297.174 154.03 297.322 153.801 297.424 153.528L299.032 153.818C298.903 154.292 298.672 154.706 298.339 155.062C298.009 155.415 297.594 155.689 297.094 155.886C296.598 156.08 296.032 156.176 295.396 156.176ZM309.299 156.159C308.78 156.152 308.269 156.057 307.765 155.875C307.265 155.693 306.81 155.39 306.401 154.966C305.992 154.542 305.665 153.972 305.418 153.256C305.176 152.54 305.055 151.646 305.055 150.574C305.055 149.559 305.155 148.657 305.356 147.869C305.56 147.081 305.854 146.417 306.237 145.875C306.619 145.33 307.081 144.915 307.623 144.631C308.165 144.347 308.772 144.205 309.447 144.205C310.14 144.205 310.755 144.341 311.293 144.614C311.831 144.886 312.267 145.263 312.6 145.744C312.937 146.225 313.151 146.773 313.242 147.386H311.509C311.392 146.902 311.159 146.506 310.81 146.199C310.462 145.892 310.007 145.739 309.447 145.739C308.594 145.739 307.93 146.11 307.452 146.852C306.979 147.595 306.74 148.627 306.737 149.949H306.822C307.022 149.619 307.269 149.339 307.56 149.108C307.856 148.873 308.185 148.693 308.549 148.568C308.916 148.439 309.303 148.375 309.708 148.375C310.382 148.375 310.992 148.54 311.538 148.869C312.087 149.195 312.524 149.646 312.85 150.222C313.176 150.797 313.339 151.456 313.339 152.199C313.339 152.941 313.17 153.614 312.833 154.216C312.5 154.818 312.03 155.295 311.424 155.648C310.818 155.996 310.11 156.167 309.299 156.159ZM309.293 154.682C309.74 154.682 310.14 154.572 310.492 154.352C310.844 154.133 311.123 153.837 311.327 153.466C311.532 153.095 311.634 152.68 311.634 152.222C311.634 151.775 311.534 151.367 311.333 151C311.136 150.633 310.863 150.341 310.515 150.125C310.17 149.909 309.776 149.801 309.333 149.801C308.996 149.801 308.683 149.866 308.396 149.994C308.112 150.123 307.862 150.301 307.646 150.528C307.43 150.756 307.259 151.017 307.134 151.312C307.013 151.604 306.952 151.913 306.952 152.239C306.952 152.674 307.053 153.078 307.254 153.449C307.458 153.82 307.737 154.119 308.089 154.347C308.445 154.57 308.846 154.682 309.293 154.682ZM323.342 156.176C322.497 156.176 321.77 155.985 321.16 155.602C320.554 155.216 320.088 154.684 319.762 154.006C319.436 153.328 319.273 152.551 319.273 151.676C319.273 150.79 319.44 150.008 319.773 149.33C320.107 148.648 320.576 148.116 321.183 147.733C321.789 147.35 322.503 147.159 323.325 147.159C323.987 147.159 324.578 147.282 325.097 147.528C325.616 147.771 326.035 148.112 326.353 148.551C326.675 148.991 326.866 149.504 326.927 150.091H325.273C325.183 149.682 324.974 149.33 324.648 149.034C324.326 148.739 323.895 148.591 323.353 148.591C322.879 148.591 322.465 148.716 322.109 148.966C321.756 149.212 321.482 149.564 321.285 150.023C321.088 150.477 320.989 151.015 320.989 151.636C320.989 152.273 321.086 152.822 321.279 153.284C321.472 153.746 321.745 154.104 322.097 154.358C322.453 154.612 322.872 154.739 323.353 154.739C323.675 154.739 323.967 154.68 324.228 154.562C324.493 154.441 324.715 154.269 324.893 154.045C325.075 153.822 325.201 153.553 325.273 153.239H326.927C326.866 153.803 326.683 154.307 326.376 154.75C326.069 155.193 325.658 155.542 325.143 155.795C324.631 156.049 324.031 156.176 323.342 156.176ZM330.442 150.818V156H328.744V144.364H330.42V148.693H330.528C330.732 148.223 331.045 147.85 331.465 147.574C331.886 147.297 332.435 147.159 333.113 147.159C333.711 147.159 334.234 147.282 334.681 147.528C335.132 147.775 335.48 148.142 335.727 148.631C335.977 149.116 336.102 149.722 336.102 150.449V156H334.403V150.653C334.403 150.013 334.238 149.517 333.908 149.165C333.579 148.809 333.121 148.631 332.533 148.631C332.132 148.631 331.772 148.716 331.454 148.886C331.139 149.057 330.891 149.307 330.71 149.636C330.531 149.962 330.442 150.356 330.442 150.818ZM340.908 156.193C340.355 156.193 339.855 156.091 339.408 155.886C338.961 155.678 338.607 155.377 338.346 154.983C338.088 154.589 337.96 154.106 337.96 153.534C337.96 153.042 338.054 152.636 338.244 152.318C338.433 152 338.689 151.748 339.011 151.562C339.333 151.377 339.692 151.237 340.09 151.142C340.488 151.047 340.893 150.975 341.306 150.926C341.829 150.866 342.253 150.816 342.579 150.778C342.905 150.737 343.141 150.67 343.289 150.58C343.437 150.489 343.511 150.341 343.511 150.136V150.097C343.511 149.6 343.371 149.216 343.09 148.943C342.814 148.67 342.401 148.534 341.852 148.534C341.28 148.534 340.829 148.661 340.499 148.915C340.174 149.165 339.948 149.443 339.823 149.75L338.227 149.386C338.416 148.856 338.692 148.428 339.056 148.102C339.424 147.773 339.846 147.534 340.323 147.386C340.8 147.235 341.302 147.159 341.829 147.159C342.177 147.159 342.547 147.201 342.937 147.284C343.331 147.364 343.698 147.511 344.039 147.727C344.384 147.943 344.666 148.252 344.886 148.653C345.105 149.051 345.215 149.568 345.215 150.205V156H343.556V154.807H343.488C343.378 155.027 343.213 155.242 342.994 155.455C342.774 155.667 342.492 155.843 342.147 155.983C341.802 156.123 341.389 156.193 340.908 156.193ZM341.278 154.83C341.747 154.83 342.149 154.737 342.482 154.551C342.819 154.366 343.075 154.123 343.249 153.824C343.427 153.521 343.516 153.197 343.516 152.852V151.727C343.456 151.788 343.338 151.845 343.164 151.898C342.994 151.947 342.799 151.991 342.579 152.028C342.359 152.062 342.145 152.095 341.937 152.125C341.728 152.152 341.554 152.174 341.414 152.193C341.085 152.235 340.783 152.305 340.511 152.403C340.242 152.502 340.026 152.644 339.863 152.83C339.704 153.011 339.624 153.254 339.624 153.557C339.624 153.977 339.78 154.295 340.09 154.511C340.401 154.723 340.797 154.83 341.278 154.83ZM347.478 156V147.273H349.12V148.659H349.211C349.37 148.189 349.65 147.82 350.052 147.551C350.457 147.278 350.915 147.142 351.427 147.142C351.533 147.142 351.658 147.146 351.802 147.153C351.95 147.161 352.065 147.17 352.148 147.182V148.807C352.08 148.788 351.959 148.767 351.785 148.744C351.611 148.718 351.436 148.705 351.262 148.705C350.861 148.705 350.503 148.79 350.188 148.96C349.878 149.127 349.631 149.36 349.45 149.659C349.268 149.955 349.177 150.292 349.177 150.67V156H347.478ZM356.08 156.193C355.527 156.193 355.027 156.091 354.58 155.886C354.133 155.678 353.779 155.377 353.518 154.983C353.26 154.589 353.131 154.106 353.131 153.534C353.131 153.042 353.226 152.636 353.415 152.318C353.605 152 353.861 151.748 354.183 151.562C354.504 151.377 354.864 151.237 355.262 151.142C355.66 151.047 356.065 150.975 356.478 150.926C357.001 150.866 357.425 150.816 357.751 150.778C358.076 150.737 358.313 150.67 358.461 150.58C358.609 150.489 358.683 150.341 358.683 150.136V150.097C358.683 149.6 358.542 149.216 358.262 148.943C357.986 148.67 357.573 148.534 357.023 148.534C356.451 148.534 356.001 148.661 355.671 148.915C355.345 149.165 355.12 149.443 354.995 149.75L353.398 149.386C353.588 148.856 353.864 148.428 354.228 148.102C354.595 147.773 355.018 147.534 355.495 147.386C355.972 147.235 356.474 147.159 357.001 147.159C357.349 147.159 357.719 147.201 358.109 147.284C358.503 147.364 358.87 147.511 359.211 147.727C359.556 147.943 359.838 148.252 360.058 148.653C360.277 149.051 360.387 149.568 360.387 150.205V156H358.728V154.807H358.66C358.55 155.027 358.385 155.242 358.165 155.455C357.946 155.667 357.664 155.843 357.319 155.983C356.974 156.123 356.561 156.193 356.08 156.193ZM356.45 154.83C356.919 154.83 357.321 154.737 357.654 154.551C357.991 154.366 358.247 154.123 358.421 153.824C358.599 153.521 358.688 153.197 358.688 152.852V151.727C358.628 151.788 358.51 151.845 358.336 151.898C358.165 151.947 357.97 151.991 357.751 152.028C357.531 152.062 357.317 152.095 357.109 152.125C356.9 152.152 356.726 152.174 356.586 152.193C356.256 152.235 355.955 152.305 355.683 152.403C355.414 152.502 355.198 152.644 355.035 152.83C354.876 153.011 354.796 153.254 354.796 153.557C354.796 153.977 354.951 154.295 355.262 154.511C355.573 154.723 355.969 154.83 356.45 154.83ZM366.326 156.176C365.481 156.176 364.754 155.985 364.144 155.602C363.538 155.216 363.072 154.684 362.746 154.006C362.421 153.328 362.258 152.551 362.258 151.676C362.258 150.79 362.424 150.008 362.758 149.33C363.091 148.648 363.561 148.116 364.167 147.733C364.773 147.35 365.487 147.159 366.309 147.159C366.972 147.159 367.563 147.282 368.082 147.528C368.601 147.771 369.019 148.112 369.337 148.551C369.659 148.991 369.851 149.504 369.911 150.091H368.258C368.167 149.682 367.959 149.33 367.633 149.034C367.311 148.739 366.879 148.591 366.337 148.591C365.864 148.591 365.449 148.716 365.093 148.966C364.741 149.212 364.466 149.564 364.269 150.023C364.072 150.477 363.974 151.015 363.974 151.636C363.974 152.273 364.07 152.822 364.263 153.284C364.457 153.746 364.729 154.104 365.082 154.358C365.438 154.612 365.856 154.739 366.337 154.739C366.659 154.739 366.951 154.68 367.212 154.562C367.478 154.441 367.699 154.269 367.877 154.045C368.059 153.822 368.186 153.553 368.258 153.239H369.911C369.851 153.803 369.667 154.307 369.36 154.75C369.053 155.193 368.642 155.542 368.127 155.795C367.616 156.049 367.015 156.176 366.326 156.176ZM375.802 147.273V148.636H371.035V147.273H375.802ZM372.313 145.182H374.012V153.438C374.012 153.767 374.061 154.015 374.16 154.182C374.258 154.345 374.385 154.456 374.54 154.517C374.7 154.574 374.872 154.602 375.058 154.602C375.194 154.602 375.313 154.593 375.415 154.574C375.518 154.555 375.597 154.54 375.654 154.528L375.961 155.932C375.862 155.97 375.722 156.008 375.54 156.045C375.359 156.087 375.131 156.11 374.859 156.114C374.412 156.121 373.995 156.042 373.609 155.875C373.222 155.708 372.91 155.451 372.671 155.102C372.433 154.754 372.313 154.316 372.313 153.79V145.182ZM381.349 156.176C380.489 156.176 379.748 155.992 379.127 155.625C378.51 155.254 378.032 154.733 377.695 154.062C377.362 153.388 377.195 152.598 377.195 151.693C377.195 150.799 377.362 150.011 377.695 149.33C378.032 148.648 378.502 148.116 379.104 147.733C379.71 147.35 380.419 147.159 381.229 147.159C381.722 147.159 382.199 147.241 382.661 147.403C383.123 147.566 383.538 147.822 383.906 148.17C384.273 148.519 384.563 148.972 384.775 149.528C384.987 150.081 385.093 150.754 385.093 151.545V152.148H378.156V150.875H383.428C383.428 150.428 383.337 150.032 383.156 149.688C382.974 149.339 382.718 149.064 382.388 148.864C382.063 148.663 381.68 148.562 381.241 148.562C380.763 148.562 380.347 148.68 379.991 148.915C379.638 149.146 379.366 149.449 379.173 149.824C378.983 150.195 378.888 150.598 378.888 151.034V152.028C378.888 152.612 378.991 153.108 379.195 153.517C379.404 153.926 379.693 154.239 380.065 154.455C380.436 154.667 380.87 154.773 381.366 154.773C381.688 154.773 381.981 154.727 382.246 154.636C382.512 154.542 382.741 154.402 382.934 154.216C383.127 154.03 383.275 153.801 383.377 153.528L384.985 153.818C384.856 154.292 384.625 154.706 384.292 155.062C383.962 155.415 383.548 155.689 383.048 155.886C382.551 156.08 381.985 156.176 381.349 156.176ZM386.978 156V147.273H388.62V148.659H388.711C388.87 148.189 389.15 147.82 389.552 147.551C389.957 147.278 390.415 147.142 390.927 147.142C391.033 147.142 391.158 147.146 391.302 147.153C391.45 147.161 391.565 147.17 391.648 147.182V148.807C391.58 148.788 391.459 148.767 391.285 148.744C391.111 148.718 390.936 148.705 390.762 148.705C390.361 148.705 390.003 148.79 389.688 148.96C389.378 149.127 389.131 149.36 388.95 149.659C388.768 149.955 388.677 150.292 388.677 150.67V156H386.978ZM399.658 149.403L398.119 149.676C398.054 149.479 397.952 149.292 397.812 149.114C397.675 148.936 397.49 148.79 397.255 148.676C397.02 148.562 396.727 148.506 396.374 148.506C395.893 148.506 395.492 148.614 395.17 148.83C394.848 149.042 394.687 149.316 394.687 149.653C394.687 149.945 394.795 150.18 395.011 150.358C395.227 150.536 395.575 150.682 396.056 150.795L397.442 151.114C398.246 151.299 398.844 151.585 399.238 151.972C399.632 152.358 399.829 152.86 399.829 153.477C399.829 154 399.677 154.466 399.374 154.875C399.075 155.28 398.656 155.598 398.119 155.83C397.585 156.061 396.965 156.176 396.261 156.176C395.283 156.176 394.486 155.968 393.869 155.551C393.251 155.131 392.872 154.534 392.732 153.761L394.374 153.511C394.477 153.939 394.687 154.263 395.005 154.483C395.323 154.699 395.738 154.807 396.249 154.807C396.806 154.807 397.251 154.691 397.585 154.46C397.918 154.225 398.085 153.939 398.085 153.602C398.085 153.33 397.982 153.1 397.778 152.915C397.577 152.729 397.268 152.589 396.852 152.494L395.374 152.17C394.56 151.985 393.958 151.689 393.567 151.284C393.181 150.879 392.988 150.366 392.988 149.744C392.988 149.229 393.132 148.778 393.42 148.392C393.708 148.006 394.105 147.705 394.613 147.489C395.121 147.269 395.702 147.159 396.357 147.159C397.3 147.159 398.043 147.364 398.585 147.773C399.126 148.178 399.484 148.722 399.658 149.403ZM186.545 175.176C185.727 175.176 185.013 174.989 184.403 174.614C183.793 174.239 183.319 173.714 182.982 173.04C182.645 172.366 182.477 171.578 182.477 170.676C182.477 169.771 182.645 168.979 182.982 168.301C183.319 167.623 183.793 167.097 184.403 166.722C185.013 166.347 185.727 166.159 186.545 166.159C187.363 166.159 188.077 166.347 188.687 166.722C189.297 167.097 189.77 167.623 190.107 168.301C190.444 168.979 190.613 169.771 190.613 170.676C190.613 171.578 190.444 172.366 190.107 173.04C189.77 173.714 189.297 174.239 188.687 174.614C188.077 174.989 187.363 175.176 186.545 175.176ZM186.55 173.75C187.081 173.75 187.52 173.61 187.869 173.33C188.217 173.049 188.475 172.676 188.641 172.21C188.812 171.744 188.897 171.231 188.897 170.67C188.897 170.114 188.812 169.602 188.641 169.136C188.475 168.667 188.217 168.29 187.869 168.006C187.52 167.722 187.081 167.58 186.55 167.58C186.016 167.58 185.573 167.722 185.221 168.006C184.872 168.29 184.613 168.667 184.442 169.136C184.276 169.602 184.192 170.114 184.192 170.67C184.192 171.231 184.276 171.744 184.442 172.21C184.613 172.676 184.872 173.049 185.221 173.33C185.573 173.61 186.016 173.75 186.55 173.75ZM192.509 175V166.273H194.151V167.659H194.242C194.401 167.189 194.682 166.82 195.083 166.551C195.488 166.278 195.947 166.142 196.458 166.142C196.564 166.142 196.689 166.146 196.833 166.153C196.981 166.161 197.096 166.17 197.18 166.182V167.807C197.112 167.788 196.99 167.767 196.816 167.744C196.642 167.718 196.468 167.705 196.293 167.705C195.892 167.705 195.534 167.79 195.219 167.96C194.909 168.127 194.663 168.36 194.481 168.659C194.299 168.955 194.208 169.292 194.208 169.67V175H192.509ZM202.884 175V166.273H204.515V167.693H204.623C204.805 167.212 205.102 166.837 205.515 166.568C205.928 166.295 206.422 166.159 206.998 166.159C207.581 166.159 208.07 166.295 208.464 166.568C208.862 166.841 209.155 167.216 209.344 167.693H209.435C209.644 167.227 209.975 166.856 210.43 166.58C210.884 166.299 211.426 166.159 212.055 166.159C212.846 166.159 213.492 166.407 213.992 166.903C214.496 167.4 214.748 168.148 214.748 169.148V175H213.049V169.307C213.049 168.716 212.888 168.288 212.566 168.023C212.244 167.758 211.86 167.625 211.413 167.625C210.86 167.625 210.43 167.795 210.123 168.136C209.816 168.473 209.663 168.907 209.663 169.438V175H207.969V169.199C207.969 168.725 207.822 168.345 207.526 168.057C207.231 167.769 206.846 167.625 206.373 167.625C206.051 167.625 205.754 167.71 205.481 167.881C205.212 168.047 204.994 168.28 204.827 168.58C204.665 168.879 204.583 169.225 204.583 169.619V175H202.884ZM220.701 175.176C219.883 175.176 219.169 174.989 218.559 174.614C217.949 174.239 217.476 173.714 217.138 173.04C216.801 172.366 216.633 171.578 216.633 170.676C216.633 169.771 216.801 168.979 217.138 168.301C217.476 167.623 217.949 167.097 218.559 166.722C219.169 166.347 219.883 166.159 220.701 166.159C221.519 166.159 222.233 166.347 222.843 166.722C223.453 167.097 223.926 167.623 224.263 168.301C224.601 168.979 224.769 169.771 224.769 170.676C224.769 171.578 224.601 172.366 224.263 173.04C223.926 173.714 223.453 174.239 222.843 174.614C222.233 174.989 221.519 175.176 220.701 175.176ZM220.707 173.75C221.237 173.75 221.676 173.61 222.025 173.33C222.373 173.049 222.631 172.676 222.798 172.21C222.968 171.744 223.053 171.231 223.053 170.67C223.053 170.114 222.968 169.602 222.798 169.136C222.631 168.667 222.373 168.29 222.025 168.006C221.676 167.722 221.237 167.58 220.707 167.58C220.173 167.58 219.729 167.722 219.377 168.006C219.029 168.29 218.769 168.667 218.599 169.136C218.432 169.602 218.349 170.114 218.349 170.67C218.349 171.231 218.432 171.744 218.599 172.21C218.769 172.676 219.029 173.049 219.377 173.33C219.729 173.61 220.173 173.75 220.707 173.75ZM226.665 175V166.273H228.308V167.659H228.398C228.558 167.189 228.838 166.82 229.239 166.551C229.645 166.278 230.103 166.142 230.614 166.142C230.72 166.142 230.845 166.146 230.989 166.153C231.137 166.161 231.253 166.17 231.336 166.182V167.807C231.268 167.788 231.147 167.767 230.972 167.744C230.798 167.718 230.624 167.705 230.45 167.705C230.048 167.705 229.69 167.79 229.376 167.96C229.065 168.127 228.819 168.36 228.637 168.659C228.455 168.955 228.364 169.292 228.364 169.67V175H226.665ZM236.255 175.176C235.395 175.176 234.655 174.992 234.033 174.625C233.416 174.254 232.939 173.733 232.602 173.062C232.268 172.388 232.102 171.598 232.102 170.693C232.102 169.799 232.268 169.011 232.602 168.33C232.939 167.648 233.408 167.116 234.011 166.733C234.617 166.35 235.325 166.159 236.136 166.159C236.628 166.159 237.105 166.241 237.567 166.403C238.03 166.566 238.444 166.822 238.812 167.17C239.179 167.519 239.469 167.972 239.681 168.528C239.893 169.081 239.999 169.754 239.999 170.545V171.148H233.062V169.875H238.335C238.335 169.428 238.244 169.032 238.062 168.688C237.88 168.339 237.624 168.064 237.295 167.864C236.969 167.663 236.586 167.562 236.147 167.562C235.67 167.562 235.253 167.68 234.897 167.915C234.545 168.146 234.272 168.449 234.079 168.824C233.889 169.195 233.795 169.598 233.795 170.034V171.028C233.795 171.612 233.897 172.108 234.102 172.517C234.31 172.926 234.6 173.239 234.971 173.455C235.342 173.667 235.776 173.773 236.272 173.773C236.594 173.773 236.888 173.727 237.153 173.636C237.418 173.542 237.647 173.402 237.84 173.216C238.033 173.03 238.181 172.801 238.283 172.528L239.891 172.818C239.763 173.292 239.531 173.706 239.198 174.062C238.869 174.415 238.454 174.689 237.954 174.886C237.458 175.08 236.891 175.176 236.255 175.176ZM243.004 175.108C242.693 175.108 242.426 174.998 242.202 174.778C241.979 174.555 241.867 174.286 241.867 173.972C241.867 173.661 241.979 173.396 242.202 173.176C242.426 172.953 242.693 172.841 243.004 172.841C243.314 172.841 243.581 172.953 243.805 173.176C244.028 173.396 244.14 173.661 244.14 173.972C244.14 174.18 244.087 174.371 243.981 174.545C243.879 174.716 243.742 174.852 243.572 174.955C243.401 175.057 243.212 175.108 243.004 175.108Z" fill="black"/>
<path d="M62.6818 348.403L61.142 348.676C61.0777 348.479 60.9754 348.292 60.8352 348.114C60.6989 347.936 60.5133 347.79 60.2784 347.676C60.0436 347.562 59.75 347.506 59.3977 347.506C58.9167 347.506 58.5152 347.614 58.1932 347.83C57.8712 348.042 57.7102 348.316 57.7102 348.653C57.7102 348.945 57.8182 349.18 58.0341 349.358C58.25 349.536 58.5985 349.682 59.0795 349.795L60.4659 350.114C61.2689 350.299 61.8674 350.585 62.2614 350.972C62.6553 351.358 62.8523 351.86 62.8523 352.477C62.8523 353 62.7008 353.466 62.3977 353.875C62.0985 354.28 61.6799 354.598 61.142 354.83C60.608 355.061 59.9886 355.176 59.2841 355.176C58.3068 355.176 57.5095 354.968 56.892 354.551C56.2746 354.131 55.8958 353.534 55.7557 352.761L57.3977 352.511C57.5 352.939 57.7102 353.263 58.0284 353.483C58.3466 353.699 58.7614 353.807 59.2727 353.807C59.8295 353.807 60.2746 353.691 60.608 353.46C60.9413 353.225 61.108 352.939 61.108 352.602C61.108 352.33 61.0057 352.1 60.8011 351.915C60.6004 351.729 60.2917 351.589 59.875 351.494L58.3977 351.17C57.5833 350.985 56.9811 350.689 56.5909 350.284C56.2045 349.879 56.0114 349.366 56.0114 348.744C56.0114 348.229 56.1553 347.778 56.4432 347.392C56.7311 347.006 57.1288 346.705 57.6364 346.489C58.1439 346.269 58.7254 346.159 59.3807 346.159C60.3239 346.159 61.0663 346.364 61.608 346.773C62.1496 347.178 62.5076 347.722 62.6818 348.403ZM67.2599 355.193C66.7069 355.193 66.2069 355.091 65.7599 354.886C65.313 354.678 64.9588 354.377 64.6974 353.983C64.4399 353.589 64.3111 353.106 64.3111 352.534C64.3111 352.042 64.4058 351.636 64.5952 351.318C64.7846 351 65.0402 350.748 65.3622 350.562C65.6842 350.377 66.044 350.237 66.4418 350.142C66.8395 350.047 67.2448 349.975 67.6577 349.926C68.1804 349.866 68.6046 349.816 68.9304 349.778C69.2562 349.737 69.4929 349.67 69.6406 349.58C69.7884 349.489 69.8622 349.341 69.8622 349.136V349.097C69.8622 348.6 69.7221 348.216 69.4418 347.943C69.1652 347.67 68.7524 347.534 68.2031 347.534C67.6312 347.534 67.1804 347.661 66.8509 347.915C66.5251 348.165 66.2997 348.443 66.1747 348.75L64.5781 348.386C64.7675 347.856 65.044 347.428 65.4077 347.102C65.7751 346.773 66.1974 346.534 66.6747 346.386C67.152 346.235 67.6539 346.159 68.1804 346.159C68.5289 346.159 68.8982 346.201 69.2884 346.284C69.6823 346.364 70.0497 346.511 70.3906 346.727C70.7353 346.943 71.0175 347.252 71.2372 347.653C71.4569 348.051 71.5668 348.568 71.5668 349.205V355H69.9077V353.807H69.8395C69.7296 354.027 69.5649 354.242 69.3452 354.455C69.1255 354.667 68.8433 354.843 68.4986 354.983C68.1539 355.123 67.741 355.193 67.2599 355.193ZM67.6293 353.83C68.099 353.83 68.5005 353.737 68.8338 353.551C69.1709 353.366 69.4266 353.123 69.6009 352.824C69.7789 352.521 69.8679 352.197 69.8679 351.852V350.727C69.8073 350.788 69.6899 350.845 69.5156 350.898C69.3452 350.947 69.1501 350.991 68.9304 351.028C68.7107 351.062 68.4967 351.095 68.2884 351.125C68.08 351.152 67.9058 351.174 67.7656 351.193C67.4361 351.235 67.1349 351.305 66.8622 351.403C66.5933 351.502 66.3774 351.644 66.2145 351.83C66.0554 352.011 65.9759 352.254 65.9759 352.557C65.9759 352.977 66.1312 353.295 66.4418 353.511C66.7524 353.723 67.1482 353.83 67.6293 353.83ZM80.983 346.273L77.8182 355H76L72.8295 346.273H74.6534L76.8636 352.989H76.9545L79.1591 346.273H80.983ZM86.044 355.176C85.1842 355.176 84.4437 354.992 83.8224 354.625C83.205 354.254 82.7277 353.733 82.3906 353.062C82.0573 352.388 81.8906 351.598 81.8906 350.693C81.8906 349.799 82.0573 349.011 82.3906 348.33C82.7277 347.648 83.1974 347.116 83.7997 346.733C84.4058 346.35 85.1141 346.159 85.9247 346.159C86.4171 346.159 86.8944 346.241 87.3565 346.403C87.8187 346.566 88.2334 346.822 88.6009 347.17C88.9683 347.519 89.258 347.972 89.4702 348.528C89.6823 349.081 89.7884 349.754 89.7884 350.545V351.148H82.8509V349.875H88.1236C88.1236 349.428 88.0327 349.032 87.8509 348.688C87.669 348.339 87.4134 348.064 87.0838 347.864C86.758 347.663 86.3755 347.562 85.9361 347.562C85.4588 347.562 85.0421 347.68 84.6861 347.915C84.3338 348.146 84.0611 348.449 83.8679 348.824C83.6785 349.195 83.5838 349.598 83.5838 350.034V351.028C83.5838 351.612 83.6861 352.108 83.8906 352.517C84.099 352.926 84.3887 353.239 84.7599 353.455C85.1312 353.667 85.5649 353.773 86.0611 353.773C86.383 353.773 86.6766 353.727 86.9418 353.636C87.2069 353.542 87.4361 353.402 87.6293 353.216C87.8224 353.03 87.9702 352.801 88.0724 352.528L89.6804 352.818C89.5516 353.292 89.3205 353.706 88.9872 354.062C88.6577 354.415 88.2429 354.689 87.7429 354.886C87.2467 355.08 86.6804 355.176 86.044 355.176ZM95.9077 358.273V346.273H97.5668V347.688H97.7088C97.8073 347.506 97.9493 347.295 98.1349 347.057C98.3205 346.818 98.5781 346.61 98.9077 346.432C99.2372 346.25 99.6728 346.159 100.214 346.159C100.919 346.159 101.548 346.337 102.101 346.693C102.654 347.049 103.088 347.562 103.402 348.233C103.72 348.903 103.879 349.71 103.879 350.653C103.879 351.597 103.722 352.405 103.408 353.08C103.093 353.75 102.661 354.267 102.112 354.631C101.563 354.991 100.936 355.17 100.232 355.17C99.7012 355.17 99.2675 355.081 98.9304 354.903C98.5971 354.725 98.3357 354.517 98.1463 354.278C97.9569 354.04 97.8111 353.828 97.7088 353.642H97.6065V358.273H95.9077ZM97.5724 350.636C97.5724 351.25 97.6615 351.788 97.8395 352.25C98.0175 352.712 98.2751 353.074 98.6122 353.335C98.9493 353.593 99.3622 353.722 99.8509 353.722C100.358 353.722 100.783 353.587 101.124 353.318C101.464 353.045 101.722 352.676 101.896 352.21C102.074 351.744 102.163 351.22 102.163 350.636C102.163 350.061 102.076 349.544 101.902 349.085C101.732 348.627 101.474 348.265 101.129 348C100.788 347.735 100.362 347.602 99.8509 347.602C99.3584 347.602 98.9418 347.729 98.6009 347.983C98.2637 348.237 98.008 348.591 97.8338 349.045C97.6596 349.5 97.5724 350.03 97.5724 350.636ZM108.322 355.193C107.769 355.193 107.269 355.091 106.822 354.886C106.375 354.678 106.021 354.377 105.76 353.983C105.502 353.589 105.374 353.106 105.374 352.534C105.374 352.042 105.468 351.636 105.658 351.318C105.847 351 106.103 350.748 106.425 350.562C106.747 350.377 107.107 350.237 107.504 350.142C107.902 350.047 108.307 349.975 108.72 349.926C109.243 349.866 109.667 349.816 109.993 349.778C110.319 349.737 110.555 349.67 110.703 349.58C110.851 349.489 110.925 349.341 110.925 349.136V349.097C110.925 348.6 110.785 348.216 110.504 347.943C110.228 347.67 109.815 347.534 109.266 347.534C108.694 347.534 108.243 347.661 107.913 347.915C107.588 348.165 107.362 348.443 107.237 348.75L105.641 348.386C105.83 347.856 106.107 347.428 106.47 347.102C106.838 346.773 107.26 346.534 107.737 346.386C108.214 346.235 108.716 346.159 109.243 346.159C109.591 346.159 109.961 346.201 110.351 346.284C110.745 346.364 111.112 346.511 111.453 346.727C111.798 346.943 112.08 347.252 112.3 347.653C112.519 348.051 112.629 348.568 112.629 349.205V355H110.97V353.807H110.902C110.792 354.027 110.627 354.242 110.408 354.455C110.188 354.667 109.906 354.843 109.561 354.983C109.216 355.123 108.804 355.193 108.322 355.193ZM108.692 353.83C109.161 353.83 109.563 353.737 109.896 353.551C110.233 353.366 110.489 353.123 110.663 352.824C110.841 352.521 110.93 352.197 110.93 351.852V350.727C110.87 350.788 110.752 350.845 110.578 350.898C110.408 350.947 110.213 350.991 109.993 351.028C109.773 351.062 109.559 351.095 109.351 351.125C109.143 351.152 108.968 351.174 108.828 351.193C108.499 351.235 108.197 351.305 107.925 351.403C107.656 351.502 107.44 351.644 107.277 351.83C107.118 352.011 107.038 352.254 107.038 352.557C107.038 352.977 107.194 353.295 107.504 353.511C107.815 353.723 108.211 353.83 108.692 353.83ZM121.432 348.403L119.892 348.676C119.828 348.479 119.725 348.292 119.585 348.114C119.449 347.936 119.263 347.79 119.028 347.676C118.794 347.562 118.5 347.506 118.148 347.506C117.667 347.506 117.265 347.614 116.943 347.83C116.621 348.042 116.46 348.316 116.46 348.653C116.46 348.945 116.568 349.18 116.784 349.358C117 349.536 117.348 349.682 117.83 349.795L119.216 350.114C120.019 350.299 120.617 350.585 121.011 350.972C121.405 351.358 121.602 351.86 121.602 352.477C121.602 353 121.451 353.466 121.148 353.875C120.848 354.28 120.43 354.598 119.892 354.83C119.358 355.061 118.739 355.176 118.034 355.176C117.057 355.176 116.259 354.968 115.642 354.551C115.025 354.131 114.646 353.534 114.506 352.761L116.148 352.511C116.25 352.939 116.46 353.263 116.778 353.483C117.097 353.699 117.511 353.807 118.023 353.807C118.58 353.807 119.025 353.691 119.358 353.46C119.691 353.225 119.858 352.939 119.858 352.602C119.858 352.33 119.756 352.1 119.551 351.915C119.35 351.729 119.042 351.589 118.625 351.494L117.148 351.17C116.333 350.985 115.731 350.689 115.341 350.284C114.955 349.879 114.761 349.366 114.761 348.744C114.761 348.229 114.905 347.778 115.193 347.392C115.481 347.006 115.879 346.705 116.386 346.489C116.894 346.269 117.475 346.159 118.131 346.159C119.074 346.159 119.816 346.364 120.358 346.773C120.9 347.178 121.258 347.722 121.432 348.403ZM130.01 348.403L128.47 348.676C128.406 348.479 128.304 348.292 128.163 348.114C128.027 347.936 127.841 347.79 127.607 347.676C127.372 347.562 127.078 347.506 126.726 347.506C126.245 347.506 125.843 347.614 125.521 347.83C125.199 348.042 125.038 348.316 125.038 348.653C125.038 348.945 125.146 349.18 125.362 349.358C125.578 349.536 125.927 349.682 126.408 349.795L127.794 350.114C128.597 350.299 129.196 350.585 129.589 350.972C129.983 351.358 130.18 351.86 130.18 352.477C130.18 353 130.029 353.466 129.726 353.875C129.427 354.28 129.008 354.598 128.47 354.83C127.936 355.061 127.317 355.176 126.612 355.176C125.635 355.176 124.838 354.968 124.22 354.551C123.603 354.131 123.224 353.534 123.084 352.761L124.726 352.511C124.828 352.939 125.038 353.263 125.357 353.483C125.675 353.699 126.089 353.807 126.601 353.807C127.158 353.807 127.603 353.691 127.936 353.46C128.269 353.225 128.436 352.939 128.436 352.602C128.436 352.33 128.334 352.1 128.129 351.915C127.929 351.729 127.62 351.589 127.203 351.494L125.726 351.17C124.911 350.985 124.309 350.689 123.919 350.284C123.533 349.879 123.339 349.366 123.339 348.744C123.339 348.229 123.483 347.778 123.771 347.392C124.059 347.006 124.457 346.705 124.964 346.489C125.472 346.269 126.054 346.159 126.709 346.159C127.652 346.159 128.394 346.364 128.936 346.773C129.478 347.178 129.836 347.722 130.01 348.403ZM133.94 355L131.372 346.273H133.128L134.838 352.682H134.923L136.639 346.273H138.395L140.099 352.653H140.185L141.884 346.273H143.639L141.077 355H139.344L137.571 348.699H137.44L135.668 355H133.94ZM148.662 355.176C147.844 355.176 147.13 354.989 146.52 354.614C145.91 354.239 145.437 353.714 145.099 353.04C144.762 352.366 144.594 351.578 144.594 350.676C144.594 349.771 144.762 348.979 145.099 348.301C145.437 347.623 145.91 347.097 146.52 346.722C147.13 346.347 147.844 346.159 148.662 346.159C149.48 346.159 150.194 346.347 150.804 346.722C151.414 347.097 151.887 347.623 152.224 348.301C152.562 348.979 152.73 349.771 152.73 350.676C152.73 351.578 152.562 352.366 152.224 353.04C151.887 353.714 151.414 354.239 150.804 354.614C150.194 354.989 149.48 355.176 148.662 355.176ZM148.668 353.75C149.198 353.75 149.637 353.61 149.986 353.33C150.334 353.049 150.592 352.676 150.759 352.21C150.929 351.744 151.014 351.231 151.014 350.67C151.014 350.114 150.929 349.602 150.759 349.136C150.592 348.667 150.334 348.29 149.986 348.006C149.637 347.722 149.198 347.58 148.668 347.58C148.134 347.58 147.69 347.722 147.338 348.006C146.99 348.29 146.73 348.667 146.56 349.136C146.393 349.602 146.31 350.114 146.31 350.67C146.31 351.231 146.393 351.744 146.56 352.21C146.73 352.676 146.99 353.049 147.338 353.33C147.69 353.61 148.134 353.75 148.668 353.75ZM154.626 355V346.273H156.268V347.659H156.359C156.518 347.189 156.799 346.82 157.2 346.551C157.606 346.278 158.064 346.142 158.575 346.142C158.681 346.142 158.806 346.146 158.95 346.153C159.098 346.161 159.214 346.17 159.297 346.182V347.807C159.229 347.788 159.107 347.767 158.933 347.744C158.759 347.718 158.585 347.705 158.411 347.705C158.009 347.705 157.651 347.79 157.337 347.96C157.026 348.127 156.78 348.36 156.598 348.659C156.416 348.955 156.325 349.292 156.325 349.67V355H154.626ZM163.722 355.17C163.017 355.17 162.388 354.991 161.835 354.631C161.286 354.267 160.854 353.75 160.54 353.08C160.229 352.405 160.074 351.597 160.074 350.653C160.074 349.71 160.231 348.903 160.545 348.233C160.864 347.562 161.299 347.049 161.852 346.693C162.405 346.337 163.032 346.159 163.733 346.159C164.275 346.159 164.71 346.25 165.04 346.432C165.373 346.61 165.631 346.818 165.812 347.057C165.998 347.295 166.142 347.506 166.244 347.688H166.347V343.364H168.045V355H166.386V353.642H166.244C166.142 353.828 165.994 354.04 165.801 354.278C165.612 354.517 165.35 354.725 165.017 354.903C164.684 355.081 164.252 355.17 163.722 355.17ZM164.097 353.722C164.585 353.722 164.998 353.593 165.335 353.335C165.676 353.074 165.934 352.712 166.108 352.25C166.286 351.788 166.375 351.25 166.375 350.636C166.375 350.03 166.288 349.5 166.114 349.045C165.939 348.591 165.684 348.237 165.347 347.983C165.009 347.729 164.593 347.602 164.097 347.602C163.585 347.602 163.159 347.735 162.818 348C162.477 348.265 162.22 348.627 162.045 349.085C161.875 349.544 161.79 350.061 161.79 350.636C161.79 351.22 161.877 351.744 162.051 352.21C162.225 352.676 162.483 353.045 162.824 353.318C163.169 353.587 163.593 353.722 164.097 353.722Z" fill="black"/>
<rect x="20" y="337" width="25" height="25" rx="5" fill="#0095F6"/>
<path d="M40.8334 343.25L29.375 354.708L24.1667 349.5" stroke="white" stroke-width="2" stroke-linecap="round" stroke-linejoin="round"/>
<defs>
<linearGradient id="paint0_linear_231_360" x1="19.987" y1="223.249" x2="462.172" y2="859.753" gradientUnits="userSpaceOnUse">
<stop stop-color="#82B7EE"/>
<stop offset="1" stop-color="#F5AA8F"/>
</linearGradient>
<clipPath id="clip0_231_360">
<rect width="24" height="24" fill="white" transform="translate(357 273)"/>
</clipPath>
</defs>
</svg>
