<svg width="428" height="926" viewBox="0 0 428 926" fill="none" xmlns="http://www.w3.org/2000/svg">
<rect width="428" height="926" rx="32" fill="white"/>
<path d="M347 30.55C348.977 28.9036 351.468 28.0021 354.04 28.0021C356.612 28.0021 359.103 28.9036 361.08 30.55" stroke="black" stroke-width="2" stroke-linecap="round" stroke-linejoin="round"/>
<path d="M343.42 27C346.342 24.424 350.104 23.0027 354 23.0027C357.896 23.0027 361.658 24.424 364.58 27" stroke="black" stroke-width="2" stroke-linecap="round" stroke-linejoin="round"/>
<path d="M350.53 34.11C351.545 33.3887 352.76 33.0012 354.005 33.0012C355.25 33.0012 356.465 33.3887 357.48 34.11" stroke="black" stroke-width="2" stroke-linecap="round" stroke-linejoin="round"/>
<path d="M354 38H354.01" stroke="black" stroke-width="2" stroke-linecap="round" stroke-linejoin="round"/>
<path d="M392 24H378C376.895 24 376 24.8954 376 26V34C376 35.1046 376.895 36 378 36H392C393.105 36 394 35.1046 394 34V26C394 24.8954 393.105 24 392 24Z" fill="black"/>
<path d="M395 31V29" stroke="black" stroke-width="2" stroke-linecap="round" stroke-linejoin="round"/>
<path d="M321 38V28" stroke="black" stroke-width="2" stroke-linecap="round" stroke-linejoin="round"/>
<path d="M327 38V22" stroke="black" stroke-width="2" stroke-linecap="round" stroke-linejoin="round"/>
<path d="M315 38V34" stroke="black" stroke-width="2" stroke-linecap="round" stroke-linejoin="round"/>
<path d="M27.9432 24.5455V42H25.8295V26.7614H25.7273L21.4659 29.5909V27.4432L25.8295 24.5455H27.9432ZM38.6562 42.2386C37.3722 42.2386 36.2784 41.8892 35.375 41.1903C34.4716 40.4858 33.7813 39.4659 33.304 38.1307C32.8267 36.7898 32.5881 35.1705 32.5881 33.2727C32.5881 31.3864 32.8267 29.7756 33.304 28.4403C33.7869 27.0994 34.4801 26.0767 35.3835 25.3722C36.2926 24.6619 37.3835 24.3068 38.6562 24.3068C39.929 24.3068 41.017 24.6619 41.9205 25.3722C42.8295 26.0767 43.5227 27.0994 44 28.4403C44.483 29.7756 44.7244 31.3864 44.7244 33.2727C44.7244 35.1705 44.4858 36.7898 44.0085 38.1307C43.5312 39.4659 42.8409 40.4858 41.9375 41.1903C41.0341 41.8892 39.9403 42.2386 38.6562 42.2386ZM38.6562 40.3636C39.929 40.3636 40.9176 39.75 41.6222 38.5227C42.3267 37.2955 42.679 35.5455 42.679 33.2727C42.679 31.7614 42.517 30.4744 42.1932 29.4119C41.875 28.3494 41.4148 27.5398 40.8125 26.983C40.2159 26.4261 39.4972 26.1477 38.6562 26.1477C37.3949 26.1477 36.4091 26.7699 35.6989 28.0142C34.9886 29.2528 34.6335 31.0057 34.6335 33.2727C34.6335 34.7841 34.7926 36.0682 35.1108 37.125C35.429 38.1818 35.8864 38.9858 36.483 39.5369C37.0852 40.0881 37.8097 40.3636 38.6562 40.3636ZM49.4631 39.767C49.0426 39.767 48.6818 39.6165 48.3807 39.3153C48.0795 39.0142 47.929 38.6534 47.929 38.233C47.929 37.8125 48.0795 37.4517 48.3807 37.1506C48.6818 36.8494 49.0426 36.6989 49.4631 36.6989C49.8835 36.6989 50.2443 36.8494 50.5455 37.1506C50.8466 37.4517 50.9972 37.8125 50.9972 38.233C50.9972 38.5114 50.9261 38.767 50.7841 39C50.6477 39.233 50.4631 39.4205 50.2301 39.5625C50.0028 39.6989 49.7472 39.767 49.4631 39.767ZM49.4631 30.9375C49.0426 30.9375 48.6818 30.7869 48.3807 30.4858C48.0795 30.1847 47.929 29.8239 47.929 29.4034C47.929 28.983 48.0795 28.6222 48.3807 28.321C48.6818 28.0199 49.0426 27.8693 49.4631 27.8693C49.8835 27.8693 50.2443 28.0199 50.5455 28.321C50.8466 28.6222 50.9972 28.983 50.9972 29.4034C50.9972 29.6818 50.9261 29.9375 50.7841 30.1705C50.6477 30.4034 50.4631 30.5909 50.2301 30.733C50.0028 30.8693 49.7472 30.9375 49.4631 30.9375ZM60.2656 42.2386C58.9815 42.2386 57.8878 41.8892 56.9844 41.1903C56.081 40.4858 55.3906 39.4659 54.9134 38.1307C54.4361 36.7898 54.1974 35.1705 54.1974 33.2727C54.1974 31.3864 54.4361 29.7756 54.9134 28.4403C55.3963 27.0994 56.0895 26.0767 56.9929 25.3722C57.902 24.6619 58.9929 24.3068 60.2656 24.3068C61.5384 24.3068 62.6264 24.6619 63.5298 25.3722C64.4389 26.0767 65.1321 27.0994 65.6094 28.4403C66.0923 29.7756 66.3338 31.3864 66.3338 33.2727C66.3338 35.1705 66.0952 36.7898 65.6179 38.1307C65.1406 39.4659 64.4503 40.4858 63.5469 41.1903C62.6435 41.8892 61.5497 42.2386 60.2656 42.2386ZM60.2656 40.3636C61.5384 40.3636 62.527 39.75 63.2315 38.5227C63.9361 37.2955 64.2884 35.5455 64.2884 33.2727C64.2884 31.7614 64.1264 30.4744 63.8026 29.4119C63.4844 28.3494 63.0241 27.5398 62.4219 26.983C61.8253 26.4261 61.1065 26.1477 60.2656 26.1477C59.0043 26.1477 58.0185 26.7699 57.3082 28.0142C56.598 29.2528 56.2429 31.0057 56.2429 33.2727C56.2429 34.7841 56.402 36.0682 56.7202 37.125C57.0384 38.1818 57.4957 38.9858 58.0923 39.5369C58.6946 40.0881 59.419 40.3636 60.2656 40.3636ZM75.2656 42.2386C73.9815 42.2386 72.8878 41.8892 71.9844 41.1903C71.081 40.4858 70.3906 39.4659 69.9134 38.1307C69.4361 36.7898 69.1974 35.1705 69.1974 33.2727C69.1974 31.3864 69.4361 29.7756 69.9134 28.4403C70.3963 27.0994 71.0895 26.0767 71.9929 25.3722C72.902 24.6619 73.9929 24.3068 75.2656 24.3068C76.5384 24.3068 77.6264 24.6619 78.5298 25.3722C79.4389 26.0767 80.1321 27.0994 80.6094 28.4403C81.0923 29.7756 81.3338 31.3864 81.3338 33.2727C81.3338 35.1705 81.0952 36.7898 80.6179 38.1307C80.1406 39.4659 79.4503 40.4858 78.5469 41.1903C77.6435 41.8892 76.5497 42.2386 75.2656 42.2386ZM75.2656 40.3636C76.5384 40.3636 77.527 39.75 78.2315 38.5227C78.9361 37.2955 79.2884 35.5455 79.2884 33.2727C79.2884 31.7614 79.1264 30.4744 78.8026 29.4119C78.4844 28.3494 78.0241 27.5398 77.4219 26.983C76.8253 26.4261 76.1065 26.1477 75.2656 26.1477C74.0043 26.1477 73.0185 26.7699 72.3082 28.0142C71.598 29.2528 71.2429 31.0057 71.2429 33.2727C71.2429 34.7841 71.402 36.0682 71.7202 37.125C72.0384 38.1818 72.4957 38.9858 73.0923 39.5369C73.6946 40.0881 74.419 40.3636 75.2656 40.3636Z" fill="black"/>
<path d="M428 892.053V111C423.172 168.76 367.446 197 308.992 200.25L82.9848 202.378C24.6441 208.696 3.35296 261.793 0 287.552V900.944C0 914.782 11.2178 926 25.0557 926H396C413.673 926 428 911.672 428 893.999V892.053Z" fill="url(#paint0_linear_231_392)"/>
<rect x="20" y="331" width="388" height="70" rx="12" fill="#0095F6"/>
<path d="M182.341 364.642L179.017 364.847C178.96 364.562 178.838 364.307 178.651 364.08C178.463 363.847 178.216 363.662 177.909 363.526C177.608 363.384 177.247 363.312 176.827 363.312C176.264 363.312 175.79 363.432 175.403 363.67C175.017 363.903 174.824 364.216 174.824 364.608C174.824 364.92 174.949 365.185 175.199 365.401C175.449 365.616 175.878 365.79 176.486 365.92L178.855 366.398C180.128 366.659 181.077 367.08 181.702 367.659C182.327 368.239 182.639 369 182.639 369.943C182.639 370.801 182.386 371.554 181.881 372.202C181.381 372.849 180.693 373.355 179.818 373.719C178.949 374.077 177.946 374.256 176.81 374.256C175.077 374.256 173.696 373.895 172.668 373.173C171.645 372.446 171.045 371.457 170.869 370.207L174.44 370.02C174.548 370.548 174.81 370.952 175.224 371.23C175.639 371.503 176.17 371.639 176.818 371.639C177.455 371.639 177.966 371.517 178.352 371.273C178.744 371.023 178.943 370.702 178.949 370.31C178.943 369.98 178.804 369.71 178.531 369.5C178.259 369.284 177.838 369.119 177.27 369.006L175.003 368.554C173.724 368.298 172.773 367.855 172.148 367.224C171.528 366.594 171.219 365.79 171.219 364.812C171.219 363.972 171.446 363.247 171.901 362.639C172.361 362.031 173.006 361.562 173.835 361.233C174.67 360.903 175.648 360.739 176.767 360.739C178.42 360.739 179.722 361.088 180.67 361.787C181.625 362.486 182.182 363.437 182.341 364.642ZM184.925 374V360.909H188.556V374H184.925ZM186.749 359.222C186.21 359.222 185.746 359.043 185.36 358.685C184.979 358.321 184.789 357.886 184.789 357.381C184.789 356.881 184.979 356.452 185.36 356.094C185.746 355.73 186.21 355.548 186.749 355.548C187.289 355.548 187.749 355.73 188.13 356.094C188.516 356.452 188.71 356.881 188.71 357.381C188.71 357.886 188.516 358.321 188.13 358.685C187.749 359.043 187.289 359.222 186.749 359.222ZM197.362 379.182C196.186 379.182 195.178 379.02 194.337 378.696C193.501 378.378 192.837 377.943 192.342 377.392C191.848 376.841 191.527 376.222 191.379 375.534L194.737 375.082C194.839 375.344 195.001 375.588 195.223 375.815C195.445 376.043 195.737 376.224 196.101 376.361C196.47 376.503 196.919 376.574 197.447 376.574C198.237 376.574 198.888 376.381 199.399 375.994C199.916 375.614 200.175 374.974 200.175 374.077V371.682H200.021C199.862 372.045 199.624 372.389 199.305 372.713C198.987 373.037 198.578 373.301 198.078 373.506C197.578 373.71 196.982 373.812 196.288 373.812C195.305 373.812 194.411 373.585 193.604 373.131C192.803 372.67 192.163 371.969 191.686 371.026C191.214 370.077 190.979 368.878 190.979 367.429C190.979 365.946 191.22 364.707 191.703 363.713C192.186 362.719 192.828 361.974 193.629 361.48C194.436 360.986 195.32 360.739 196.28 360.739C197.013 360.739 197.626 360.864 198.121 361.114C198.615 361.358 199.013 361.665 199.314 362.034C199.621 362.398 199.857 362.756 200.021 363.108H200.158V360.909H203.763V374.128C203.763 375.241 203.49 376.173 202.945 376.923C202.399 377.673 201.643 378.236 200.678 378.611C199.717 378.991 198.612 379.182 197.362 379.182ZM197.439 371.085C198.024 371.085 198.518 370.94 198.922 370.651C199.331 370.355 199.643 369.935 199.859 369.389C200.081 368.838 200.192 368.179 200.192 367.412C200.192 366.645 200.084 365.98 199.868 365.418C199.652 364.849 199.339 364.409 198.93 364.097C198.521 363.784 198.024 363.628 197.439 363.628C196.842 363.628 196.339 363.79 195.93 364.114C195.521 364.432 195.212 364.875 195.001 365.443C194.791 366.011 194.686 366.668 194.686 367.412C194.686 368.168 194.791 368.821 195.001 369.372C195.217 369.918 195.527 370.341 195.93 370.642C196.339 370.937 196.842 371.085 197.439 371.085ZM210.283 366.432V374H206.652V360.909H210.112V363.219H210.266C210.555 362.457 211.041 361.855 211.723 361.412C212.405 360.963 213.232 360.739 214.203 360.739C215.112 360.739 215.905 360.938 216.581 361.335C217.257 361.733 217.783 362.301 218.158 363.04C218.533 363.773 218.72 364.648 218.72 365.665V374H215.089V366.312C215.095 365.511 214.891 364.886 214.476 364.438C214.061 363.983 213.49 363.756 212.763 363.756C212.274 363.756 211.842 363.861 211.467 364.071C211.098 364.281 210.808 364.588 210.598 364.991C210.393 365.389 210.288 365.869 210.283 366.432ZM235.531 368.426V360.909H239.162V374H235.676V371.622H235.54C235.244 372.389 234.753 373.006 234.065 373.472C233.384 373.937 232.551 374.17 231.568 374.17C230.693 374.17 229.923 373.972 229.259 373.574C228.594 373.176 228.074 372.611 227.699 371.878C227.33 371.145 227.142 370.267 227.136 369.244V360.909H230.767V368.597C230.773 369.369 230.98 369.98 231.389 370.429C231.798 370.878 232.347 371.102 233.034 371.102C233.472 371.102 233.881 371.003 234.261 370.804C234.642 370.599 234.949 370.298 235.182 369.901C235.42 369.503 235.537 369.011 235.531 368.426ZM242.066 378.909V360.909H245.646V363.108H245.808C245.967 362.756 246.197 362.398 246.498 362.034C246.805 361.665 247.202 361.358 247.691 361.114C248.185 360.864 248.799 360.739 249.532 360.739C250.487 360.739 251.367 360.989 252.174 361.489C252.981 361.983 253.626 362.73 254.109 363.73C254.592 364.724 254.833 365.972 254.833 367.472C254.833 368.932 254.597 370.165 254.126 371.17C253.66 372.17 253.023 372.929 252.217 373.446C251.415 373.957 250.518 374.213 249.523 374.213C248.819 374.213 248.219 374.097 247.725 373.864C247.237 373.631 246.836 373.338 246.523 372.986C246.211 372.628 245.972 372.267 245.808 371.903H245.697V378.909H242.066ZM245.62 367.455C245.62 368.233 245.728 368.912 245.944 369.491C246.16 370.071 246.472 370.523 246.881 370.847C247.29 371.165 247.788 371.324 248.373 371.324C248.964 371.324 249.464 371.162 249.873 370.838C250.282 370.509 250.592 370.054 250.802 369.474C251.018 368.889 251.126 368.216 251.126 367.455C251.126 366.699 251.021 366.034 250.81 365.46C250.6 364.886 250.29 364.437 249.881 364.114C249.472 363.79 248.969 363.628 248.373 363.628C247.782 363.628 247.282 363.784 246.873 364.097C246.469 364.409 246.16 364.852 245.944 365.426C245.728 366 245.62 366.676 245.62 367.455Z" fill="white"/>
<path d="M83.6999 250L78.7056 232.545H82.7369L85.6261 244.673H85.771L88.9585 232.545H92.4102L95.5891 244.699H95.7425L98.6317 232.545H102.663L97.6687 250H94.0721L90.7482 238.588H90.6119L87.2965 250H83.6999ZM109.13 250.256C107.783 250.256 106.624 249.983 105.652 249.438C104.686 248.886 103.942 248.108 103.419 247.102C102.897 246.091 102.635 244.895 102.635 243.514C102.635 242.168 102.897 240.986 103.419 239.969C103.942 238.952 104.678 238.159 105.627 237.591C106.581 237.023 107.701 236.739 108.985 236.739C109.848 236.739 110.652 236.878 111.397 237.156C112.147 237.429 112.8 237.841 113.357 238.392C113.919 238.943 114.357 239.636 114.669 240.472C114.982 241.301 115.138 242.273 115.138 243.386V244.384H104.084V242.134H111.721C111.721 241.611 111.607 241.148 111.38 240.744C111.152 240.341 110.837 240.026 110.434 239.798C110.036 239.565 109.573 239.449 109.044 239.449C108.493 239.449 108.005 239.577 107.578 239.832C107.158 240.082 106.828 240.42 106.59 240.847C106.351 241.267 106.229 241.736 106.223 242.253V244.392C106.223 245.04 106.343 245.599 106.581 246.071C106.826 246.543 107.169 246.906 107.613 247.162C108.056 247.418 108.581 247.545 109.189 247.545C109.593 247.545 109.962 247.489 110.297 247.375C110.632 247.261 110.919 247.091 111.158 246.864C111.397 246.636 111.578 246.358 111.703 246.028L115.061 246.25C114.891 247.057 114.542 247.761 114.013 248.364C113.49 248.96 112.814 249.426 111.985 249.761C111.161 250.091 110.209 250.256 109.13 250.256ZM121.138 232.545V250H117.507V232.545H121.138ZM129.961 250.256C128.62 250.256 127.467 249.972 126.501 249.403C125.541 248.83 124.802 248.034 124.285 247.017C123.774 246 123.518 244.83 123.518 243.506C123.518 242.165 123.777 240.989 124.294 239.977C124.816 238.96 125.558 238.168 126.518 237.599C127.478 237.026 128.62 236.739 129.944 236.739C131.086 236.739 132.086 236.946 132.944 237.361C133.802 237.776 134.481 238.358 134.981 239.108C135.481 239.858 135.757 240.739 135.808 241.75H132.382C132.285 241.097 132.029 240.571 131.615 240.173C131.206 239.77 130.669 239.568 130.004 239.568C129.441 239.568 128.95 239.722 128.529 240.028C128.115 240.33 127.791 240.77 127.558 241.349C127.325 241.929 127.208 242.631 127.208 243.455C127.208 244.29 127.322 245 127.549 245.585C127.782 246.17 128.109 246.616 128.529 246.923C128.95 247.23 129.441 247.384 130.004 247.384C130.419 247.384 130.791 247.298 131.12 247.128C131.456 246.957 131.731 246.71 131.947 246.386C132.169 246.057 132.314 245.662 132.382 245.202H135.808C135.751 246.202 135.478 247.082 134.99 247.844C134.507 248.599 133.839 249.19 132.987 249.616C132.135 250.043 131.126 250.256 129.961 250.256ZM144.047 250.256C142.723 250.256 141.578 249.974 140.613 249.412C139.652 248.844 138.911 248.054 138.388 247.043C137.865 246.026 137.604 244.847 137.604 243.506C137.604 242.153 137.865 240.972 138.388 239.96C138.911 238.943 139.652 238.153 140.613 237.591C141.578 237.023 142.723 236.739 144.047 236.739C145.371 236.739 146.513 237.023 147.473 237.591C148.439 238.153 149.184 238.943 149.706 239.96C150.229 240.972 150.49 242.153 150.49 243.506C150.49 244.847 150.229 246.026 149.706 247.043C149.184 248.054 148.439 248.844 147.473 249.412C146.513 249.974 145.371 250.256 144.047 250.256ZM144.064 247.443C144.667 247.443 145.169 247.273 145.573 246.932C145.976 246.585 146.28 246.114 146.485 245.517C146.695 244.92 146.8 244.241 146.8 243.48C146.8 242.719 146.695 242.04 146.485 241.443C146.28 240.847 145.976 240.375 145.573 240.028C145.169 239.682 144.667 239.509 144.064 239.509C143.456 239.509 142.945 239.682 142.53 240.028C142.121 240.375 141.811 240.847 141.601 241.443C141.397 242.04 141.294 242.719 141.294 243.48C141.294 244.241 141.397 244.92 141.601 245.517C141.811 246.114 142.121 246.585 142.53 246.932C142.945 247.273 143.456 247.443 144.064 247.443ZM152.851 250V236.909H156.311V239.219H156.465C156.738 238.452 157.192 237.847 157.828 237.403C158.465 236.96 159.226 236.739 160.113 236.739C161.01 236.739 161.775 236.963 162.405 237.412C163.036 237.855 163.456 238.457 163.667 239.219H163.803C164.07 238.469 164.553 237.869 165.252 237.42C165.956 236.966 166.789 236.739 167.749 236.739C168.971 236.739 169.962 237.128 170.723 237.906C171.49 238.679 171.874 239.776 171.874 241.196V250H168.252V241.912C168.252 241.185 168.059 240.639 167.672 240.276C167.286 239.912 166.803 239.73 166.223 239.73C165.564 239.73 165.05 239.94 164.681 240.361C164.311 240.776 164.127 241.324 164.127 242.006V250H160.607V241.835C160.607 241.193 160.422 240.682 160.053 240.301C159.689 239.92 159.209 239.73 158.613 239.73C158.209 239.73 157.846 239.832 157.522 240.037C157.203 240.236 156.951 240.517 156.763 240.881C156.576 241.239 156.482 241.659 156.482 242.142V250H152.851ZM180.708 250.256C179.361 250.256 178.202 249.983 177.23 249.438C176.265 248.886 175.52 248.108 174.998 247.102C174.475 246.091 174.213 244.895 174.213 243.514C174.213 242.168 174.475 240.986 174.998 239.969C175.52 238.952 176.256 238.159 177.205 237.591C178.159 237.023 179.279 236.739 180.563 236.739C181.426 236.739 182.23 236.878 182.975 237.156C183.725 237.429 184.378 237.841 184.935 238.392C185.498 238.943 185.935 239.636 186.248 240.472C186.56 241.301 186.716 242.273 186.716 243.386V244.384H175.662V242.134H183.299C183.299 241.611 183.185 241.148 182.958 240.744C182.73 240.341 182.415 240.026 182.012 239.798C181.614 239.565 181.151 239.449 180.623 239.449C180.071 239.449 179.583 239.577 179.157 239.832C178.736 240.082 178.407 240.42 178.168 240.847C177.929 241.267 177.807 241.736 177.801 242.253V244.392C177.801 245.04 177.921 245.599 178.159 246.071C178.404 246.543 178.748 246.906 179.191 247.162C179.634 247.418 180.159 247.545 180.767 247.545C181.171 247.545 181.54 247.489 181.875 247.375C182.211 247.261 182.498 247.091 182.736 246.864C182.975 246.636 183.157 246.358 183.282 246.028L186.64 246.25C186.469 247.057 186.12 247.761 185.591 248.364C185.069 248.96 184.392 249.426 183.563 249.761C182.739 250.091 181.787 250.256 180.708 250.256ZM201.603 236.909V239.636H193.72V236.909H201.603ZM195.51 233.773H199.14V245.977C199.14 246.312 199.191 246.574 199.294 246.761C199.396 246.943 199.538 247.071 199.72 247.145C199.907 247.219 200.123 247.256 200.368 247.256C200.538 247.256 200.708 247.241 200.879 247.213C201.049 247.179 201.18 247.153 201.271 247.136L201.842 249.838C201.66 249.895 201.404 249.96 201.075 250.034C200.745 250.114 200.345 250.162 199.873 250.179C198.998 250.213 198.231 250.097 197.572 249.83C196.919 249.562 196.41 249.148 196.047 248.585C195.683 248.023 195.504 247.312 195.51 246.455V233.773ZM209.743 250.256C208.419 250.256 207.274 249.974 206.308 249.412C205.348 248.844 204.606 248.054 204.083 247.043C203.561 246.026 203.299 244.847 203.299 243.506C203.299 242.153 203.561 240.972 204.083 239.96C204.606 238.943 205.348 238.153 206.308 237.591C207.274 237.023 208.419 236.739 209.743 236.739C211.066 236.739 212.208 237.023 213.169 237.591C214.135 238.153 214.879 238.943 215.402 239.96C215.924 240.972 216.186 242.153 216.186 243.506C216.186 244.847 215.924 246.026 215.402 247.043C214.879 248.054 214.135 248.844 213.169 249.412C212.208 249.974 211.066 250.256 209.743 250.256ZM209.76 247.443C210.362 247.443 210.865 247.273 211.268 246.932C211.672 246.585 211.975 246.114 212.18 245.517C212.39 244.92 212.495 244.241 212.495 243.48C212.495 242.719 212.39 242.04 212.18 241.443C211.975 240.847 211.672 240.375 211.268 240.028C210.865 239.682 210.362 239.509 209.76 239.509C209.152 239.509 208.64 239.682 208.225 240.028C207.816 240.375 207.507 240.847 207.297 241.443C207.092 242.04 206.99 242.719 206.99 243.48C206.99 244.241 207.092 244.92 207.297 245.517C207.507 246.114 207.816 246.585 208.225 246.932C208.64 247.273 209.152 247.443 209.76 247.443ZM227.86 232.545V250H224.169V232.545H227.86ZM234.458 242.432V250H230.828V236.909H234.288V239.219H234.441C234.731 238.457 235.217 237.855 235.899 237.412C236.581 236.963 237.407 236.739 238.379 236.739C239.288 236.739 240.081 236.938 240.757 237.335C241.433 237.733 241.958 238.301 242.333 239.04C242.708 239.773 242.896 240.648 242.896 241.665V250H239.265V242.312C239.271 241.511 239.066 240.886 238.652 240.438C238.237 239.983 237.666 239.756 236.939 239.756C236.45 239.756 236.018 239.861 235.643 240.071C235.274 240.281 234.984 240.588 234.774 240.991C234.569 241.389 234.464 241.869 234.458 242.432ZM256.65 240.642L253.326 240.847C253.269 240.562 253.147 240.307 252.959 240.08C252.772 239.847 252.525 239.662 252.218 239.526C251.917 239.384 251.556 239.312 251.135 239.312C250.573 239.312 250.098 239.432 249.712 239.67C249.326 239.903 249.132 240.216 249.132 240.608C249.132 240.92 249.257 241.185 249.507 241.401C249.757 241.616 250.186 241.79 250.794 241.92L253.164 242.398C254.436 242.659 255.385 243.08 256.01 243.659C256.635 244.239 256.948 245 256.948 245.943C256.948 246.801 256.695 247.554 256.189 248.202C255.689 248.849 255.002 249.355 254.127 249.719C253.257 250.077 252.255 250.256 251.118 250.256C249.385 250.256 248.005 249.895 246.976 249.173C245.953 248.446 245.354 247.457 245.178 246.207L248.749 246.02C248.857 246.548 249.118 246.952 249.533 247.23C249.948 247.503 250.479 247.639 251.127 247.639C251.763 247.639 252.275 247.517 252.661 247.273C253.053 247.023 253.252 246.702 253.257 246.31C253.252 245.98 253.113 245.71 252.84 245.5C252.567 245.284 252.147 245.119 251.578 245.006L249.311 244.554C248.033 244.298 247.081 243.855 246.456 243.224C245.837 242.594 245.527 241.79 245.527 240.812C245.527 239.972 245.755 239.247 246.209 238.639C246.669 238.031 247.314 237.562 248.144 237.233C248.979 236.903 249.956 236.739 251.076 236.739C252.729 236.739 254.03 237.088 254.979 237.787C255.934 238.486 256.49 239.437 256.65 240.642ZM266.197 236.909V239.636H258.314V236.909H266.197ZM260.103 233.773H263.734V245.977C263.734 246.312 263.785 246.574 263.887 246.761C263.99 246.943 264.132 247.071 264.314 247.145C264.501 247.219 264.717 247.256 264.961 247.256C265.132 247.256 265.302 247.241 265.473 247.213C265.643 247.179 265.774 247.153 265.865 247.136L266.436 249.838C266.254 249.895 265.998 249.96 265.669 250.034C265.339 250.114 264.939 250.162 264.467 250.179C263.592 250.213 262.825 250.097 262.166 249.83C261.512 249.562 261.004 249.148 260.64 248.585C260.277 248.023 260.098 247.312 260.103 246.455V233.773ZM272.295 250.247C271.46 250.247 270.716 250.102 270.062 249.812C269.409 249.517 268.892 249.082 268.511 248.509C268.136 247.929 267.949 247.207 267.949 246.344C267.949 245.616 268.082 245.006 268.349 244.511C268.616 244.017 268.98 243.619 269.44 243.318C269.9 243.017 270.423 242.79 271.008 242.636C271.599 242.483 272.218 242.375 272.866 242.312C273.627 242.233 274.241 242.159 274.707 242.091C275.173 242.017 275.511 241.909 275.721 241.767C275.931 241.625 276.037 241.415 276.037 241.136V241.085C276.037 240.545 275.866 240.128 275.525 239.832C275.19 239.537 274.713 239.389 274.093 239.389C273.44 239.389 272.92 239.534 272.534 239.824C272.147 240.108 271.892 240.466 271.767 240.898L268.409 240.625C268.579 239.83 268.914 239.142 269.414 238.562C269.914 237.977 270.559 237.528 271.349 237.216C272.145 236.898 273.065 236.739 274.11 236.739C274.838 236.739 275.534 236.824 276.199 236.994C276.869 237.165 277.463 237.429 277.98 237.787C278.502 238.145 278.914 238.605 279.216 239.168C279.517 239.724 279.667 240.392 279.667 241.17V250H276.224V248.185H276.122C275.912 248.594 275.63 248.955 275.278 249.267C274.926 249.574 274.502 249.815 274.008 249.991C273.514 250.162 272.943 250.247 272.295 250.247ZM273.335 247.741C273.869 247.741 274.341 247.636 274.75 247.426C275.159 247.21 275.48 246.92 275.713 246.557C275.946 246.193 276.062 245.781 276.062 245.321V243.932C275.949 244.006 275.792 244.074 275.593 244.136C275.4 244.193 275.181 244.247 274.937 244.298C274.693 244.344 274.449 244.386 274.204 244.426C273.96 244.46 273.738 244.491 273.539 244.52C273.113 244.582 272.741 244.682 272.423 244.818C272.105 244.955 271.858 245.139 271.681 245.372C271.505 245.599 271.417 245.884 271.417 246.224C271.417 246.719 271.596 247.097 271.954 247.358C272.318 247.614 272.778 247.741 273.335 247.741ZM288.382 255.182C287.206 255.182 286.197 255.02 285.356 254.696C284.521 254.378 283.856 253.943 283.362 253.392C282.868 252.841 282.547 252.222 282.399 251.534L285.757 251.082C285.859 251.344 286.021 251.588 286.243 251.815C286.464 252.043 286.757 252.224 287.12 252.361C287.49 252.503 287.939 252.574 288.467 252.574C289.257 252.574 289.907 252.381 290.419 251.994C290.936 251.614 291.194 250.974 291.194 250.077V247.682H291.041C290.882 248.045 290.643 248.389 290.325 248.713C290.007 249.037 289.598 249.301 289.098 249.506C288.598 249.71 288.001 249.812 287.308 249.812C286.325 249.812 285.43 249.585 284.623 249.131C283.822 248.67 283.183 247.969 282.706 247.026C282.234 246.077 281.998 244.878 281.998 243.429C281.998 241.946 282.24 240.707 282.723 239.713C283.206 238.719 283.848 237.974 284.649 237.48C285.456 236.986 286.339 236.739 287.299 236.739C288.032 236.739 288.646 236.864 289.14 237.114C289.635 237.358 290.032 237.665 290.333 238.034C290.64 238.398 290.876 238.756 291.041 239.108H291.177V236.909H294.782V250.128C294.782 251.241 294.51 252.173 293.964 252.923C293.419 253.673 292.663 254.236 291.697 254.611C290.737 254.991 289.632 255.182 288.382 255.182ZM288.458 247.085C289.044 247.085 289.538 246.94 289.941 246.651C290.35 246.355 290.663 245.935 290.879 245.389C291.1 244.838 291.211 244.179 291.211 243.412C291.211 242.645 291.103 241.98 290.887 241.418C290.672 240.849 290.359 240.409 289.95 240.097C289.541 239.784 289.044 239.628 288.458 239.628C287.862 239.628 287.359 239.79 286.95 240.114C286.541 240.432 286.231 240.875 286.021 241.443C285.811 242.011 285.706 242.668 285.706 243.412C285.706 244.168 285.811 244.821 286.021 245.372C286.237 245.918 286.547 246.341 286.95 246.642C287.359 246.937 287.862 247.085 288.458 247.085ZM297.672 250V236.909H301.191V239.193H301.328C301.566 238.381 301.967 237.767 302.529 237.352C303.092 236.932 303.74 236.722 304.473 236.722C304.654 236.722 304.85 236.733 305.061 236.756C305.271 236.778 305.456 236.81 305.615 236.849V240.071C305.444 240.02 305.208 239.974 304.907 239.935C304.606 239.895 304.331 239.875 304.081 239.875C303.547 239.875 303.069 239.991 302.649 240.224C302.234 240.452 301.904 240.77 301.66 241.179C301.422 241.588 301.302 242.06 301.302 242.594V250H297.672ZM310.85 250.247C310.015 250.247 309.27 250.102 308.617 249.812C307.963 249.517 307.446 249.082 307.066 248.509C306.691 247.929 306.503 247.207 306.503 246.344C306.503 245.616 306.637 245.006 306.904 244.511C307.171 244.017 307.534 243.619 307.995 243.318C308.455 243.017 308.978 242.79 309.563 242.636C310.154 242.483 310.773 242.375 311.421 242.312C312.182 242.233 312.796 242.159 313.262 242.091C313.728 242.017 314.066 241.909 314.276 241.767C314.486 241.625 314.591 241.415 314.591 241.136V241.085C314.591 240.545 314.421 240.128 314.08 239.832C313.745 239.537 313.267 239.389 312.648 239.389C311.995 239.389 311.475 239.534 311.088 239.824C310.702 240.108 310.446 240.466 310.321 240.898L306.963 240.625C307.134 239.83 307.469 239.142 307.969 238.562C308.469 237.977 309.114 237.528 309.904 237.216C310.699 236.898 311.62 236.739 312.665 236.739C313.392 236.739 314.088 236.824 314.753 236.994C315.424 237.165 316.017 237.429 316.534 237.787C317.057 238.145 317.469 238.605 317.77 239.168C318.071 239.724 318.222 240.392 318.222 241.17V250H314.779V248.185H314.676C314.466 248.594 314.185 248.955 313.833 249.267C313.48 249.574 313.057 249.815 312.563 249.991C312.069 250.162 311.498 250.247 310.85 250.247ZM311.89 247.741C312.424 247.741 312.895 247.636 313.304 247.426C313.713 247.21 314.034 246.92 314.267 246.557C314.5 246.193 314.617 245.781 314.617 245.321V243.932C314.503 244.006 314.347 244.074 314.148 244.136C313.955 244.193 313.736 244.247 313.492 244.298C313.248 244.344 313.003 244.386 312.759 244.426C312.515 244.46 312.293 244.491 312.094 244.52C311.668 244.582 311.296 244.682 310.978 244.818C310.659 244.955 310.412 245.139 310.236 245.372C310.06 245.599 309.972 245.884 309.972 246.224C309.972 246.719 310.151 247.097 310.509 247.358C310.873 247.614 311.333 247.741 311.89 247.741ZM321.039 250V236.909H324.499V239.219H324.652C324.925 238.452 325.38 237.847 326.016 237.403C326.652 236.96 327.414 236.739 328.3 236.739C329.198 236.739 329.962 236.963 330.593 237.412C331.223 237.855 331.644 238.457 331.854 239.219H331.99C332.257 238.469 332.74 237.869 333.439 237.42C334.144 236.966 334.976 236.739 335.936 236.739C337.158 236.739 338.15 237.128 338.911 237.906C339.678 238.679 340.061 239.776 340.061 241.196V250H336.439V241.912C336.439 241.185 336.246 240.639 335.86 240.276C335.473 239.912 334.99 239.73 334.411 239.73C333.752 239.73 333.238 239.94 332.868 240.361C332.499 240.776 332.314 241.324 332.314 242.006V250H328.794V241.835C328.794 241.193 328.61 240.682 328.24 240.301C327.877 239.92 327.397 239.73 326.8 239.73C326.397 239.73 326.033 239.832 325.709 240.037C325.391 240.236 325.138 240.517 324.951 240.881C324.763 241.239 324.669 241.659 324.669 242.142V250H321.039ZM346.875 247.614L346.782 248.551C346.708 249.301 346.566 250.048 346.355 250.793C346.151 251.543 345.935 252.222 345.708 252.83C345.486 253.438 345.307 253.915 345.171 254.261H342.819C342.904 253.926 343.02 253.457 343.168 252.855C343.316 252.259 343.455 251.588 343.586 250.844C343.716 250.099 343.799 249.341 343.833 248.568L343.875 247.614H346.875ZM164.364 269.642L161.04 269.847C160.984 269.562 160.862 269.307 160.674 269.08C160.487 268.847 160.239 268.662 159.933 268.526C159.631 268.384 159.271 268.312 158.85 268.312C158.288 268.312 157.813 268.432 157.427 268.67C157.04 268.903 156.847 269.216 156.847 269.608C156.847 269.92 156.972 270.185 157.222 270.401C157.472 270.616 157.901 270.79 158.509 270.92L160.879 271.398C162.151 271.659 163.1 272.08 163.725 272.659C164.35 273.239 164.663 274 164.663 274.943C164.663 275.801 164.41 276.554 163.904 277.202C163.404 277.849 162.717 278.355 161.842 278.719C160.972 279.077 159.969 279.256 158.833 279.256C157.1 279.256 155.719 278.895 154.691 278.173C153.668 277.446 153.069 276.457 152.893 275.207L156.464 275.02C156.572 275.548 156.833 275.952 157.248 276.23C157.663 276.503 158.194 276.639 158.842 276.639C159.478 276.639 159.989 276.517 160.376 276.273C160.768 276.023 160.967 275.702 160.972 275.31C160.967 274.98 160.827 274.71 160.555 274.5C160.282 274.284 159.862 274.119 159.293 274.006L157.026 273.554C155.748 273.298 154.796 272.855 154.171 272.224C153.552 271.594 153.242 270.79 153.242 269.812C153.242 268.972 153.469 268.247 153.924 267.639C154.384 267.031 155.029 266.562 155.859 266.233C156.694 265.903 157.671 265.739 158.79 265.739C160.444 265.739 161.745 266.088 162.694 266.787C163.648 267.486 164.205 268.437 164.364 269.642ZM166.949 279V265.909H170.409V268.219H170.562C170.835 267.452 171.29 266.847 171.926 266.403C172.562 265.96 173.324 265.739 174.21 265.739C175.108 265.739 175.872 265.963 176.503 266.412C177.134 266.855 177.554 267.457 177.764 268.219H177.901C178.168 267.469 178.651 266.869 179.349 266.42C180.054 265.966 180.886 265.739 181.847 265.739C183.068 265.739 184.06 266.128 184.821 266.906C185.588 267.679 185.972 268.776 185.972 270.196V279H182.349V270.912C182.349 270.185 182.156 269.639 181.77 269.276C181.384 268.912 180.901 268.73 180.321 268.73C179.662 268.73 179.148 268.94 178.778 269.361C178.409 269.776 178.224 270.324 178.224 271.006V279H174.705V270.835C174.705 270.193 174.52 269.682 174.151 269.301C173.787 268.92 173.307 268.73 172.71 268.73C172.307 268.73 171.943 268.832 171.619 269.037C171.301 269.236 171.048 269.517 170.861 269.881C170.673 270.239 170.58 270.659 170.58 271.142V279H166.949ZM188.839 279V265.909H192.47V279H188.839ZM190.663 264.222C190.124 264.222 189.661 264.043 189.274 263.685C188.893 263.321 188.703 262.886 188.703 262.381C188.703 261.881 188.893 261.452 189.274 261.094C189.661 260.73 190.124 260.548 190.663 260.548C191.203 260.548 191.663 260.73 192.044 261.094C192.43 261.452 192.624 261.881 192.624 262.381C192.624 262.886 192.43 263.321 192.044 263.685C191.663 264.043 191.203 264.222 190.663 264.222ZM202.342 265.909V268.636H194.458V265.909H202.342ZM196.248 262.773H199.879V274.977C199.879 275.312 199.93 275.574 200.032 275.761C200.134 275.943 200.276 276.071 200.458 276.145C200.646 276.219 200.862 276.256 201.106 276.256C201.276 276.256 201.447 276.241 201.617 276.213C201.788 276.179 201.918 276.153 202.009 276.136L202.58 278.838C202.398 278.895 202.143 278.96 201.813 279.034C201.484 279.114 201.083 279.162 200.612 279.179C199.737 279.213 198.969 279.097 198.31 278.83C197.657 278.562 197.148 278.148 196.785 277.585C196.421 277.023 196.242 276.312 196.248 275.455V262.773ZM214.704 279V281.753H203.241V279H214.704ZM217.246 283.909V265.909H220.825V268.108H220.987C221.146 267.756 221.376 267.398 221.678 267.034C221.984 266.665 222.382 266.358 222.871 266.114C223.365 265.864 223.979 265.739 224.712 265.739C225.666 265.739 226.547 265.989 227.354 266.489C228.161 266.983 228.805 267.73 229.288 268.73C229.771 269.724 230.013 270.972 230.013 272.472C230.013 273.932 229.777 275.165 229.305 276.17C228.839 277.17 228.203 277.929 227.396 278.446C226.595 278.957 225.697 279.213 224.703 279.213C223.999 279.213 223.399 279.097 222.905 278.864C222.416 278.631 222.016 278.338 221.703 277.986C221.391 277.628 221.152 277.267 220.987 276.903H220.876V283.909H217.246ZM220.8 272.455C220.8 273.233 220.908 273.912 221.124 274.491C221.339 275.071 221.652 275.523 222.061 275.847C222.47 276.165 222.967 276.324 223.553 276.324C224.143 276.324 224.643 276.162 225.053 275.838C225.462 275.509 225.771 275.054 225.982 274.474C226.197 273.889 226.305 273.216 226.305 272.455C226.305 271.699 226.2 271.034 225.99 270.46C225.78 269.886 225.47 269.437 225.061 269.114C224.652 268.79 224.149 268.628 223.553 268.628C222.962 268.628 222.462 268.784 222.053 269.097C221.649 269.409 221.339 269.852 221.124 270.426C220.908 271 220.8 271.676 220.8 272.455ZM236.166 279.247C235.331 279.247 234.587 279.102 233.933 278.812C233.28 278.517 232.763 278.082 232.382 277.509C232.007 276.929 231.82 276.207 231.82 275.344C231.82 274.616 231.953 274.006 232.22 273.511C232.487 273.017 232.851 272.619 233.311 272.318C233.771 272.017 234.294 271.79 234.879 271.636C235.47 271.483 236.089 271.375 236.737 271.312C237.499 271.233 238.112 271.159 238.578 271.091C239.044 271.017 239.382 270.909 239.592 270.767C239.803 270.625 239.908 270.415 239.908 270.136V270.085C239.908 269.545 239.737 269.128 239.396 268.832C239.061 268.537 238.584 268.389 237.964 268.389C237.311 268.389 236.791 268.534 236.405 268.824C236.018 269.108 235.763 269.466 235.638 269.898L232.28 269.625C232.45 268.83 232.786 268.142 233.286 267.562C233.786 266.977 234.43 266.528 235.22 266.216C236.016 265.898 236.936 265.739 237.982 265.739C238.709 265.739 239.405 265.824 240.07 265.994C240.74 266.165 241.334 266.429 241.851 266.787C242.374 267.145 242.786 267.605 243.087 268.168C243.388 268.724 243.538 269.392 243.538 270.17V279H240.095V277.185H239.993C239.783 277.594 239.501 277.955 239.149 278.267C238.797 278.574 238.374 278.815 237.879 278.991C237.385 279.162 236.814 279.247 236.166 279.247ZM237.206 276.741C237.74 276.741 238.212 276.636 238.621 276.426C239.03 276.21 239.351 275.92 239.584 275.557C239.817 275.193 239.933 274.781 239.933 274.321V272.932C239.82 273.006 239.663 273.074 239.464 273.136C239.271 273.193 239.053 273.247 238.808 273.298C238.564 273.344 238.32 273.386 238.075 273.426C237.831 273.46 237.609 273.491 237.411 273.52C236.984 273.582 236.612 273.682 236.294 273.818C235.976 273.955 235.729 274.139 235.553 274.372C235.376 274.599 235.288 274.884 235.288 275.224C235.288 275.719 235.467 276.097 235.825 276.358C236.189 276.614 236.649 276.741 237.206 276.741ZM253.318 265.909V268.636H245.435V265.909H253.318ZM247.224 262.773H250.855V274.977C250.855 275.312 250.906 275.574 251.009 275.761C251.111 275.943 251.253 276.071 251.435 276.145C251.622 276.219 251.838 276.256 252.082 276.256C252.253 276.256 252.423 276.241 252.594 276.213C252.764 276.179 252.895 276.153 252.986 276.136L253.557 278.838C253.375 278.895 253.119 278.96 252.79 279.034C252.46 279.114 252.06 279.162 251.588 279.179C250.713 279.213 249.946 279.097 249.287 278.83C248.634 278.562 248.125 278.148 247.761 277.585C247.398 277.023 247.219 276.312 247.224 275.455V262.773ZM261.509 279.256C260.162 279.256 259.003 278.983 258.031 278.438C257.065 277.886 256.321 277.108 255.798 276.102C255.276 275.091 255.014 273.895 255.014 272.514C255.014 271.168 255.276 269.986 255.798 268.969C256.321 267.952 257.057 267.159 258.006 266.591C258.96 266.023 260.08 265.739 261.364 265.739C262.227 265.739 263.031 265.878 263.776 266.156C264.526 266.429 265.179 266.841 265.736 267.392C266.298 267.943 266.736 268.636 267.048 269.472C267.361 270.301 267.517 271.273 267.517 272.386V273.384H256.463V271.134H264.099C264.099 270.611 263.986 270.148 263.759 269.744C263.531 269.341 263.216 269.026 262.812 268.798C262.415 268.565 261.952 268.449 261.423 268.449C260.872 268.449 260.384 268.577 259.957 268.832C259.537 269.082 259.207 269.42 258.969 269.847C258.73 270.267 258.608 270.736 258.602 271.253V273.392C258.602 274.04 258.722 274.599 258.96 275.071C259.205 275.543 259.548 275.906 259.991 276.162C260.435 276.418 260.96 276.545 261.568 276.545C261.972 276.545 262.341 276.489 262.676 276.375C263.011 276.261 263.298 276.091 263.537 275.864C263.776 275.636 263.957 275.358 264.082 275.028L267.44 275.25C267.27 276.057 266.92 276.761 266.392 277.364C265.869 277.96 265.193 278.426 264.364 278.761C263.54 279.091 262.588 279.256 261.509 279.256ZM273.517 261.545V279H269.886V261.545H273.517Z" fill="black"/>
<path d="M99.0415 440H96.712L101.946 425.455H104.482L109.716 440H107.387L103.275 428.097H103.161L99.0415 440ZM99.4322 434.304H106.989V436.151H99.4322V434.304ZM115.554 440.213C114.674 440.213 113.888 439.988 113.196 439.538C112.51 439.084 111.97 438.437 111.577 437.599C111.189 436.757 110.995 435.746 110.995 434.567C110.995 433.388 111.191 432.379 111.584 431.541C111.982 430.703 112.526 430.062 113.218 429.616C113.909 429.171 114.693 428.949 115.569 428.949C116.246 428.949 116.79 429.062 117.202 429.29C117.619 429.512 117.941 429.773 118.168 430.071C118.4 430.369 118.58 430.632 118.708 430.859H118.836V425.455H120.959V440H118.885V438.303H118.708C118.58 438.535 118.395 438.8 118.154 439.098C117.917 439.396 117.59 439.657 117.174 439.879C116.757 440.102 116.217 440.213 115.554 440.213ZM116.023 438.402C116.634 438.402 117.15 438.241 117.571 437.919C117.998 437.592 118.319 437.14 118.537 436.562C118.76 435.985 118.871 435.312 118.871 434.545C118.871 433.788 118.762 433.125 118.544 432.557C118.327 431.989 118.007 431.546 117.586 431.229C117.164 430.911 116.643 430.753 116.023 430.753C115.384 430.753 114.851 430.919 114.425 431.25C113.999 431.581 113.677 432.034 113.459 432.607C113.246 433.179 113.14 433.826 113.14 434.545C113.14 435.275 113.248 435.93 113.466 436.513C113.684 437.095 114.006 437.557 114.432 437.898C114.863 438.234 115.393 438.402 116.023 438.402ZM128.074 440.213C127.193 440.213 126.407 439.988 125.716 439.538C125.029 439.084 124.49 438.437 124.097 437.599C123.708 436.757 123.514 435.746 123.514 434.567C123.514 433.388 123.711 432.379 124.104 431.541C124.501 430.703 125.046 430.062 125.737 429.616C126.429 429.171 127.212 428.949 128.088 428.949C128.765 428.949 129.31 429.062 129.722 429.29C130.138 429.512 130.46 429.773 130.688 430.071C130.92 430.369 131.099 430.632 131.227 430.859H131.355V425.455H133.479V440H131.405V438.303H131.227C131.099 438.535 130.915 438.8 130.673 439.098C130.437 439.396 130.11 439.657 129.693 439.879C129.277 440.102 128.737 440.213 128.074 440.213ZM128.543 438.402C129.153 438.402 129.67 438.241 130.091 437.919C130.517 437.592 130.839 437.14 131.057 436.562C131.279 435.985 131.391 435.312 131.391 434.545C131.391 433.788 131.282 433.125 131.064 432.557C130.846 431.989 130.527 431.546 130.105 431.229C129.684 430.911 129.163 430.753 128.543 430.753C127.903 430.753 127.371 430.919 126.945 431.25C126.518 431.581 126.196 432.034 125.979 432.607C125.766 433.179 125.659 433.826 125.659 434.545C125.659 435.275 125.768 435.93 125.986 436.513C126.204 437.095 126.526 437.557 126.952 437.898C127.383 438.234 127.913 438.402 128.543 438.402ZM153.713 425.455V440H151.696L144.303 429.332H144.168V440H141.973V425.455H144.004L151.405 436.136H151.54V425.455H153.713ZM161.446 440.22C160.371 440.22 159.445 439.991 158.669 439.531C157.897 439.067 157.3 438.416 156.879 437.578C156.462 436.735 156.254 435.748 156.254 434.616C156.254 433.499 156.462 432.514 156.879 431.662C157.3 430.81 157.887 430.144 158.64 429.666C159.398 429.188 160.283 428.949 161.297 428.949C161.912 428.949 162.509 429.051 163.086 429.254C163.664 429.458 164.182 429.777 164.642 430.213C165.101 430.649 165.463 431.214 165.728 431.911C165.993 432.602 166.126 433.442 166.126 434.432V435.185H157.454V433.594H164.045C164.045 433.035 163.931 432.54 163.704 432.109C163.477 431.674 163.157 431.33 162.745 431.08C162.338 430.829 161.86 430.703 161.311 430.703C160.714 430.703 160.193 430.85 159.748 431.143C159.308 431.432 158.967 431.811 158.725 432.28C158.489 432.744 158.37 433.248 158.37 433.793V435.036C158.37 435.765 158.498 436.385 158.754 436.896C159.014 437.408 159.377 437.798 159.841 438.068C160.305 438.333 160.847 438.466 161.467 438.466C161.869 438.466 162.236 438.409 162.568 438.295C162.899 438.177 163.186 438.002 163.427 437.77C163.669 437.538 163.853 437.251 163.981 436.911L165.991 437.273C165.83 437.865 165.541 438.383 165.125 438.828C164.713 439.268 164.194 439.612 163.569 439.858C162.949 440.099 162.241 440.22 161.446 440.22ZM170.828 440L167.618 429.091H169.812L171.95 437.102H172.056L174.201 429.091H176.396L178.527 437.067H178.633L180.757 429.091H182.951L179.748 440H177.582L175.366 432.124H175.203L172.987 440H170.828ZM190.43 440V425.455H195.615C196.746 425.455 197.684 425.661 198.427 426.072C199.171 426.484 199.727 427.048 200.096 427.763C200.466 428.473 200.65 429.273 200.65 430.163C200.65 431.058 200.463 431.863 200.089 432.578C199.72 433.288 199.161 433.852 198.413 434.268C197.67 434.68 196.734 434.886 195.608 434.886H192.042V433.026H195.409C196.124 433.026 196.704 432.902 197.149 432.656C197.594 432.405 197.921 432.064 198.129 431.634C198.337 431.203 198.441 430.713 198.441 430.163C198.441 429.614 198.337 429.126 198.129 428.7C197.921 428.274 197.592 427.94 197.142 427.699C196.697 427.457 196.109 427.337 195.38 427.337H192.625V440H190.43ZM205.176 433.523V440H203.053V425.455H205.148V430.866H205.283C205.538 430.279 205.929 429.813 206.455 429.467C206.98 429.122 207.667 428.949 208.514 428.949C209.262 428.949 209.916 429.103 210.474 429.411C211.038 429.718 211.473 430.178 211.781 430.788C212.094 431.394 212.25 432.152 212.25 433.061V440H210.126V433.317C210.126 432.517 209.92 431.896 209.509 431.456C209.097 431.011 208.524 430.788 207.79 430.788C207.288 430.788 206.838 430.895 206.44 431.108C206.047 431.321 205.737 431.634 205.51 432.045C205.287 432.453 205.176 432.945 205.176 433.523ZM219.679 440.22C218.656 440.22 217.764 439.986 217.001 439.517C216.239 439.048 215.647 438.393 215.226 437.55C214.804 436.707 214.594 435.722 214.594 434.595C214.594 433.464 214.804 432.474 215.226 431.626C215.647 430.779 216.239 430.121 217.001 429.652C217.764 429.183 218.656 428.949 219.679 428.949C220.702 428.949 221.594 429.183 222.357 429.652C223.119 430.121 223.711 430.779 224.132 431.626C224.554 432.474 224.764 433.464 224.764 434.595C224.764 435.722 224.554 436.707 224.132 437.55C223.711 438.393 223.119 439.048 222.357 439.517C221.594 439.986 220.702 440.22 219.679 440.22ZM219.686 438.438C220.349 438.438 220.898 438.262 221.334 437.912C221.769 437.562 222.091 437.095 222.3 436.513C222.513 435.93 222.619 435.289 222.619 434.588C222.619 433.892 222.513 433.253 222.3 432.67C222.091 432.083 221.769 431.612 221.334 431.257C220.898 430.902 220.349 430.724 219.686 430.724C219.018 430.724 218.464 430.902 218.024 431.257C217.589 431.612 217.264 432.083 217.051 432.67C216.843 433.253 216.739 433.892 216.739 434.588C216.739 435.289 216.843 435.93 217.051 436.513C217.264 437.095 217.589 437.562 218.024 437.912C218.464 438.262 219.018 438.438 219.686 438.438ZM229.258 433.523V440H227.135V429.091H229.173V430.866H229.308C229.559 430.289 229.952 429.825 230.487 429.474C231.027 429.124 231.706 428.949 232.525 428.949C233.269 428.949 233.92 429.105 234.478 429.418C235.037 429.725 235.47 430.185 235.778 430.795C236.086 431.406 236.24 432.161 236.24 433.061V440H234.116V433.317C234.116 432.526 233.91 431.908 233.498 431.463C233.086 431.013 232.52 430.788 231.801 430.788C231.308 430.788 230.87 430.895 230.487 431.108C230.108 431.321 229.807 431.634 229.585 432.045C229.367 432.453 229.258 432.945 229.258 433.523ZM243.789 440.22C242.715 440.22 241.789 439.991 241.012 439.531C240.241 439.067 239.644 438.416 239.223 437.578C238.806 436.735 238.598 435.748 238.598 434.616C238.598 433.499 238.806 432.514 239.223 431.662C239.644 430.81 240.231 430.144 240.984 429.666C241.742 429.188 242.627 428.949 243.64 428.949C244.256 428.949 244.852 429.051 245.43 429.254C246.008 429.458 246.526 429.777 246.985 430.213C247.445 430.649 247.807 431.214 248.072 431.911C248.337 432.602 248.47 433.442 248.47 434.432V435.185H239.798V433.594H246.389C246.389 433.035 246.275 432.54 246.048 432.109C245.821 431.674 245.501 431.33 245.089 431.08C244.682 430.829 244.204 430.703 243.654 430.703C243.058 430.703 242.537 430.85 242.092 431.143C241.652 431.432 241.311 431.811 241.069 432.28C240.833 432.744 240.714 433.248 240.714 433.793V435.036C240.714 435.765 240.842 436.385 241.098 436.896C241.358 437.408 241.72 437.798 242.184 438.068C242.648 438.333 243.19 438.466 243.811 438.466C244.213 438.466 244.58 438.409 244.912 438.295C245.243 438.177 245.529 438.002 245.771 437.77C246.012 437.538 246.197 437.251 246.325 436.911L248.335 437.273C248.174 437.865 247.885 438.383 247.468 438.828C247.056 439.268 246.538 439.612 245.913 439.858C245.293 440.099 244.585 440.22 243.789 440.22ZM260.714 440.22C259.691 440.22 258.799 439.986 258.037 439.517C257.274 439.048 256.682 438.393 256.261 437.55C255.84 436.707 255.629 435.722 255.629 434.595C255.629 433.464 255.84 432.474 256.261 431.626C256.682 430.779 257.274 430.121 258.037 429.652C258.799 429.183 259.691 428.949 260.714 428.949C261.737 428.949 262.629 429.183 263.392 429.652C264.154 430.121 264.746 430.779 265.167 431.626C265.589 432.474 265.799 433.464 265.799 434.595C265.799 435.722 265.589 436.707 265.167 437.55C264.746 438.393 264.154 439.048 263.392 439.517C262.629 439.986 261.737 440.22 260.714 440.22ZM260.721 438.438C261.384 438.438 261.933 438.262 262.369 437.912C262.805 437.562 263.127 437.095 263.335 436.513C263.548 435.93 263.654 435.289 263.654 434.588C263.654 433.892 263.548 433.253 263.335 432.67C263.127 432.083 262.805 431.612 262.369 431.257C261.933 430.902 261.384 430.724 260.721 430.724C260.054 430.724 259.5 430.902 259.059 431.257C258.624 431.612 258.299 432.083 258.086 432.67C257.878 433.253 257.774 433.892 257.774 434.588C257.774 435.289 257.878 435.93 258.086 436.513C258.299 437.095 258.624 437.562 259.059 437.912C259.5 438.262 260.054 438.438 260.721 438.438ZM268.17 440V429.091H270.222V430.824H270.336C270.535 430.237 270.885 429.775 271.387 429.439C271.894 429.098 272.467 428.928 273.106 428.928C273.238 428.928 273.395 428.932 273.575 428.942C273.759 428.951 273.904 428.963 274.008 428.977V431.009C273.923 430.985 273.771 430.959 273.553 430.93C273.335 430.897 273.118 430.881 272.9 430.881C272.398 430.881 271.951 430.987 271.558 431.2C271.169 431.409 270.862 431.7 270.634 432.074C270.407 432.443 270.293 432.865 270.293 433.338V440H268.17ZM281.309 440V425.455H290.428V427.344H283.504V431.776H289.952V433.658H283.504V438.111H290.513V440H281.309ZM293.189 440V429.091H295.228V430.866H295.363C295.59 430.265 295.962 429.796 296.478 429.46C296.994 429.119 297.612 428.949 298.331 428.949C299.06 428.949 299.671 429.119 300.164 429.46C300.661 429.801 301.028 430.27 301.265 430.866H301.378C301.639 430.284 302.053 429.82 302.621 429.474C303.189 429.124 303.866 428.949 304.652 428.949C305.642 428.949 306.449 429.259 307.074 429.879C307.704 430.5 308.019 431.435 308.019 432.685V440H305.895V432.884C305.895 432.145 305.694 431.61 305.292 431.278C304.889 430.947 304.408 430.781 303.85 430.781C303.158 430.781 302.621 430.994 302.238 431.42C301.854 431.842 301.662 432.384 301.662 433.047V440H299.546V432.749C299.546 432.157 299.361 431.681 298.992 431.321C298.623 430.961 298.142 430.781 297.55 430.781C297.148 430.781 296.776 430.888 296.435 431.101C296.099 431.309 295.827 431.6 295.618 431.974C295.415 432.348 295.313 432.782 295.313 433.274V440H293.189ZM314.04 440.241C313.348 440.241 312.723 440.114 312.165 439.858C311.606 439.598 311.163 439.221 310.837 438.729C310.515 438.236 310.354 437.633 310.354 436.918C310.354 436.302 310.472 435.795 310.709 435.398C310.946 435 311.265 434.685 311.668 434.453C312.07 434.221 312.52 434.046 313.017 433.928C313.514 433.809 314.021 433.719 314.537 433.658C315.19 433.582 315.721 433.52 316.128 433.473C316.535 433.421 316.831 433.338 317.016 433.224C317.2 433.111 317.293 432.926 317.293 432.67V432.621C317.293 432 317.117 431.52 316.767 431.179C316.421 430.838 315.905 430.668 315.219 430.668C314.504 430.668 313.94 430.826 313.528 431.143C313.121 431.456 312.839 431.804 312.683 432.188L310.688 431.733C310.924 431.07 311.27 430.535 311.724 430.128C312.184 429.716 312.712 429.418 313.308 429.233C313.905 429.044 314.532 428.949 315.19 428.949C315.626 428.949 316.088 429.001 316.575 429.105C317.068 429.205 317.527 429.389 317.953 429.659C318.384 429.929 318.737 430.315 319.011 430.817C319.286 431.314 319.423 431.96 319.423 432.756V440H317.349V438.509H317.264C317.127 438.783 316.921 439.053 316.646 439.318C316.372 439.583 316.019 439.804 315.588 439.979C315.157 440.154 314.641 440.241 314.04 440.241ZM314.501 438.537C315.089 438.537 315.59 438.421 316.007 438.189C316.429 437.957 316.748 437.654 316.966 437.28C317.188 436.901 317.3 436.496 317.3 436.065V434.659C317.224 434.735 317.077 434.806 316.859 434.872C316.646 434.934 316.402 434.988 316.128 435.036C315.853 435.078 315.586 435.118 315.325 435.156C315.065 435.189 314.847 435.218 314.672 435.241C314.26 435.294 313.884 435.381 313.543 435.504C313.206 435.627 312.937 435.805 312.733 436.037C312.534 436.264 312.435 436.567 312.435 436.946C312.435 437.472 312.629 437.869 313.017 438.139C313.405 438.404 313.9 438.537 314.501 438.537ZM322.252 440V429.091H324.375V440H322.252ZM323.324 427.408C322.955 427.408 322.638 427.285 322.373 427.038C322.112 426.787 321.982 426.489 321.982 426.143C321.982 425.793 322.112 425.495 322.373 425.249C322.638 424.998 322.955 424.872 323.324 424.872C323.694 424.872 324.008 424.998 324.269 425.249C324.534 425.495 324.667 425.793 324.667 426.143C324.667 426.489 324.534 426.787 324.269 427.038C324.008 427.285 323.694 427.408 323.324 427.408ZM329.356 425.455V440H327.232V425.455H329.356Z" fill="#0095F6"/>
<defs>
<linearGradient id="paint0_linear_231_392" x1="19.987" y1="223.249" x2="462.172" y2="859.753" gradientUnits="userSpaceOnUse">
<stop stop-color="#82B7EE"/>
<stop offset="1" stop-color="#F5AA8F"/>
</linearGradient>
</defs>
</svg>
